{"glyphs":{"0":{"ha":933,"x_min":51,"x_max":882,"o":"m 470 -19 q 275 19 356 -19 q 146 126 195 58 q 74 285 97 194 q 51 478 51 375 q 93 736 51 624 q 227 914 136 849 q 464 978 318 978 q 654 941 575 978 q 783 837 733 904 q 858 679 834 770 q 882 479 882 588 q 838 218 882 330 q 702 43 794 106 q 470 -19 611 -19 m 467 201 q 549 236 519 201 q 593 335 580 272 q 606 479 606 398 q 592 626 606 563 q 547 723 578 688 q 467 757 516 757 q 386 722 417 757 q 341 625 356 688 q 327 479 327 563 q 341 334 327 397 q 385 236 354 272 q 467 201 415 201 z "},"1":{"ha":648,"x_min":22,"x_max":549,"o":"m 83 576 l 22 781 q 220 873 121 827 q 419 964 320 918 l 409 728 q 246 652 328 690 q 83 576 165 615 m 280 0 q 280 142 280 74 q 280 298 280 211 l 280 567 q 280 707 280 638 q 280 847 280 777 l 419 964 l 549 957 q 549 790 549 873 q 549 623 549 707 l 549 298 q 549 142 549 211 q 549 0 549 74 l 280 0 z "},"2":{"ha":802,"x_min":50,"x_max":747,"o":"m 56 0 l 56 178 q 126 237 91 208 q 197 295 162 266 q 339 423 280 364 q 431 536 399 481 q 463 647 463 591 q 432 727 463 700 q 339 755 401 755 q 272 747 306 755 q 204 724 238 738 q 137 692 170 710 q 72 652 103 674 l 50 905 q 122 932 83 919 q 206 956 162 945 q 299 972 251 966 q 396 978 347 978 q 584 943 507 978 q 700 841 660 908 q 739 683 739 775 q 712 542 739 612 q 627 405 685 472 q 481 272 570 338 l 353 176 l 322 228 l 483 228 q 615 228 549 228 q 747 228 681 228 l 747 0 l 56 0 z "},"3":{"ha":819,"x_min":47,"x_max":772,"o":"m 391 -20 q 289 -15 338 -20 q 194 1 239 -9 q 113 23 150 10 q 47 49 76 35 l 65 290 q 140 256 102 272 q 216 228 178 240 q 291 209 254 216 q 361 203 327 203 q 466 228 435 203 q 497 294 497 253 q 460 365 497 342 q 350 388 423 388 q 283 388 316 388 q 217 388 250 388 l 217 571 q 275 571 246 571 q 333 571 303 571 q 413 582 382 571 q 458 613 444 593 q 473 663 473 633 q 440 732 473 709 q 349 754 407 754 q 283 747 317 754 q 215 728 249 740 q 148 700 181 716 q 83 665 115 683 l 61 908 q 131 934 93 922 q 213 957 169 947 q 303 973 257 967 q 398 978 350 978 q 590 947 512 978 q 709 859 669 915 q 749 725 749 802 q 726 623 749 665 q 665 555 703 581 q 577 520 626 530 l 577 501 q 649 477 615 494 q 712 432 684 460 q 756 363 740 403 q 772 267 772 322 q 732 118 772 183 q 607 17 691 53 q 391 -20 522 -20 z "},"4":{"ha":863,"x_min":29,"x_max":826,"o":"m 444 0 q 444 137 444 71 q 444 288 444 203 l 464 322 l 464 567 q 464 706 464 636 q 464 846 464 776 l 643 933 q 575 836 608 884 q 508 742 542 789 l 363 534 q 304 451 333 492 q 246 368 275 410 l 238 399 l 510 399 l 534 418 q 630 418 577 418 q 735 418 683 418 q 826 418 787 418 l 826 190 q 735 190 787 190 q 630 190 683 190 q 534 190 577 190 l 29 190 l 29 367 q 88 451 56 405 q 154 544 121 497 q 215 630 187 590 l 326 786 q 386 872 356 829 q 447 957 417 915 l 711 957 q 711 788 711 871 q 711 622 711 705 l 711 288 q 711 137 711 203 q 711 0 711 71 l 444 0 z "},"5":{"ha":817,"x_min":47,"x_max":770,"o":"m 385 -20 q 285 -15 333 -20 q 192 1 236 -9 q 112 23 149 10 q 47 49 75 35 l 65 290 q 140 256 102 272 q 215 228 178 240 q 289 209 253 216 q 358 203 325 203 q 462 232 431 203 q 494 316 494 262 q 477 379 494 354 q 429 416 460 403 q 353 428 397 428 q 281 420 318 428 q 211 393 244 413 l 97 401 l 97 567 q 97 770 97 672 q 97 957 97 868 l 726 957 l 726 729 q 563 729 645 729 q 401 729 481 729 l 265 729 l 336 812 q 334 715 335 764 q 331 617 333 665 l 331 574 l 350 574 q 418 598 383 590 q 493 607 453 607 q 633 574 570 607 q 733 475 697 541 q 770 313 770 410 q 729 140 770 215 q 603 22 688 65 q 385 -20 517 -20 z "},"6":{"ha":865,"x_min":51,"x_max":818,"o":"m 455 -20 q 230 35 319 -20 q 95 200 140 90 q 51 474 51 310 q 82 707 51 610 q 172 863 114 803 q 307 950 229 923 q 476 978 384 978 q 553 974 516 978 q 626 963 591 970 q 694 946 660 956 q 758 926 727 937 l 737 688 q 677 716 708 704 q 615 737 647 728 q 553 750 584 746 q 494 754 523 754 q 383 724 423 754 q 327 631 344 694 q 311 467 311 567 q 328 313 311 371 q 374 229 344 255 q 442 203 404 203 q 503 219 479 203 q 540 261 528 235 q 553 322 553 288 q 541 379 553 354 q 505 418 528 404 q 445 433 481 433 q 412 430 429 433 q 378 422 395 428 q 343 404 360 415 q 309 374 326 392 q 265 434 276 411 q 265 481 255 458 q 307 541 276 505 l 333 540 q 369 568 349 556 q 416 589 390 580 q 470 603 441 598 q 533 608 500 608 q 680 574 615 608 q 781 475 744 540 q 818 320 818 410 q 780 156 818 233 q 662 29 742 78 q 455 -20 582 -20 z "},"7":{"ha":780,"x_min":35,"x_max":740,"o":"m 110 0 q 185 168 147 84 q 258 335 222 252 l 373 592 q 415 687 394 640 q 457 781 436 734 l 509 729 l 338 729 q 187 729 263 729 q 35 729 111 729 l 35 957 l 740 957 l 740 780 q 675 629 707 703 q 610 478 644 556 l 535 303 q 469 152 502 228 q 403 0 437 77 l 110 0 z "},"8":{"ha":868,"x_min":47,"x_max":821,"o":"m 435 -20 q 215 17 301 -20 q 88 120 129 55 q 47 270 47 185 q 75 393 47 344 q 146 470 103 442 q 236 508 190 497 l 236 527 q 152 563 190 537 q 93 629 115 588 q 71 726 71 670 q 113 858 71 801 q 237 947 156 915 q 435 978 319 978 q 631 947 550 978 q 755 858 713 915 q 797 726 797 801 q 775 629 797 670 q 716 563 753 588 q 632 527 678 537 l 632 508 q 722 469 679 497 q 793 393 765 442 q 821 270 821 344 q 780 120 821 185 q 653 17 739 55 q 435 -20 568 -20 m 435 198 q 503 211 476 198 q 543 248 530 225 q 556 299 556 271 q 540 354 556 331 q 497 389 525 377 q 433 401 469 401 q 370 389 397 401 q 327 354 342 377 q 313 299 313 331 q 325 248 313 271 q 365 211 338 225 q 435 198 392 198 m 435 583 q 512 609 484 583 q 540 678 540 636 q 510 748 540 724 q 435 772 481 772 q 359 748 388 772 q 331 678 331 724 q 343 628 331 650 q 378 595 355 607 q 435 583 401 583 z "},"9":{"ha":865,"x_min":47,"x_max":814,"o":"m 389 -20 q 311 -16 349 -20 q 239 -5 274 -12 q 171 11 204 2 q 107 32 138 21 l 128 269 q 188 241 157 253 q 249 220 218 229 q 311 208 281 212 q 370 203 342 203 q 481 233 442 203 q 537 327 521 263 q 553 490 553 390 q 537 645 553 587 q 491 729 520 703 q 422 755 461 755 q 361 739 385 755 q 325 696 337 723 q 313 636 313 669 q 324 578 313 603 q 360 539 336 553 q 419 525 384 525 q 452 527 435 525 q 487 536 469 530 q 522 554 504 542 q 556 583 539 565 q 599 523 589 547 q 599 476 610 500 q 558 417 589 453 l 532 417 q 495 390 516 403 q 449 369 474 378 q 394 355 424 360 q 332 349 365 349 q 185 384 249 349 q 84 483 120 418 q 47 638 47 547 q 85 802 47 724 q 203 929 123 880 q 410 978 283 978 q 635 923 545 978 q 769 757 725 867 q 814 484 814 647 q 782 251 814 347 q 693 94 751 154 q 558 7 636 35 q 389 -20 481 -20 z "},"A":{"ha":1019,"x_min":23,"x_max":999,"o":"m 23 0 q 74 168 47 79 q 126 335 101 256 l 231 675 q 283 842 260 768 q 328 990 306 915 l 694 990 q 741 838 719 912 q 792 675 764 765 l 896 335 q 948 166 922 253 q 999 0 975 79 l 703 0 q 666 153 685 74 q 629 301 647 231 l 519 751 l 499 751 l 386 306 q 348 153 368 233 q 309 0 328 74 l 23 0 m 292 183 l 324 395 l 733 395 l 759 183 l 292 183 z "},"Á":{"ha":1019,"x_min":23,"x_max":999,"o":"m 23 0 q 74 168 47 79 q 126 335 101 256 l 231 675 q 283 842 260 768 q 328 990 306 915 l 694 990 q 741 838 719 912 q 792 675 764 765 l 896 335 q 948 166 922 253 q 999 0 975 79 l 703 0 q 666 153 685 74 q 629 301 647 231 l 519 751 l 499 751 l 386 306 q 348 153 368 233 q 309 0 328 74 l 23 0 m 292 183 l 324 395 l 733 395 l 759 183 l 292 183 m 358 1069 q 440 1204 399 1137 q 521 1338 481 1271 l 785 1344 q 702 1250 743 1297 q 623 1159 662 1204 q 545 1072 583 1115 l 358 1069 z "},"Ă":{"ha":1019,"x_min":23,"x_max":999,"o":"m 23 0 q 74 168 47 79 q 126 335 101 256 l 231 675 q 283 842 260 768 q 328 990 306 915 l 694 990 q 741 838 719 912 q 792 675 764 765 l 896 335 q 948 166 922 253 q 999 0 975 79 l 703 0 q 666 153 685 74 q 629 301 647 231 l 519 751 l 499 751 l 386 306 q 348 153 368 233 q 309 0 328 74 l 23 0 m 292 183 l 324 395 l 733 395 l 759 183 l 292 183 m 509 1052 q 302 1123 371 1052 q 233 1349 233 1194 l 408 1357 q 432 1257 408 1293 q 509 1221 456 1221 q 588 1256 563 1221 q 612 1349 612 1291 l 785 1349 q 755 1180 785 1246 q 664 1083 725 1115 q 509 1052 602 1052 z "},"Ắ":{"ha":1019,"x_min":23,"x_max":999,"o":"m 23 0 q 74 168 47 79 q 126 335 101 256 l 231 675 q 283 842 260 768 q 328 990 306 915 l 694 990 q 741 838 719 912 q 792 675 764 765 l 896 335 q 948 166 922 253 q 999 0 975 79 l 703 0 q 666 153 685 74 q 629 301 647 231 l 519 751 l 499 751 l 386 306 q 348 153 368 233 q 309 0 328 74 l 23 0 m 292 183 l 324 395 l 733 395 l 759 183 l 292 183 m 509 1052 q 356 1080 417 1052 q 264 1162 294 1108 q 233 1297 233 1217 l 401 1304 q 427 1237 401 1267 q 509 1207 452 1207 q 592 1236 567 1207 q 617 1297 617 1265 l 785 1297 q 717 1114 785 1176 q 509 1052 649 1052 m 405 1324 q 475 1453 440 1388 q 543 1582 510 1519 l 771 1587 q 702 1497 736 1542 q 635 1409 668 1453 q 570 1325 601 1366 l 405 1324 z "},"Ặ":{"ha":1019,"x_min":23,"x_max":999,"o":"m 23 0 q 74 168 47 79 q 126 335 101 256 l 231 675 q 283 842 260 768 q 328 990 306 915 l 694 990 q 741 838 719 912 q 792 675 764 765 l 896 335 q 948 166 922 253 q 999 0 975 79 l 703 0 q 666 153 685 74 q 629 301 647 231 l 519 751 l 499 751 l 386 306 q 348 153 368 233 q 309 0 328 74 l 23 0 m 292 183 l 324 395 l 733 395 l 759 183 l 292 183 m 510 -336 q 401 -305 441 -336 q 360 -201 360 -273 q 401 -105 360 -139 q 512 -70 441 -70 q 622 -106 581 -70 q 662 -201 662 -142 q 622 -305 662 -273 q 510 -336 581 -336 m 509 1052 q 302 1123 371 1052 q 233 1349 233 1194 l 408 1357 q 432 1257 408 1293 q 509 1221 456 1221 q 588 1256 563 1221 q 612 1349 612 1291 l 785 1349 q 755 1180 785 1246 q 664 1083 725 1115 q 509 1052 602 1052 z "},"Ằ":{"ha":1019,"x_min":23,"x_max":999,"o":"m 23 0 q 74 168 47 79 q 126 335 101 256 l 231 675 q 283 842 260 768 q 328 990 306 915 l 694 990 q 741 838 719 912 q 792 675 764 765 l 896 335 q 948 166 922 253 q 999 0 975 79 l 703 0 q 666 153 685 74 q 629 301 647 231 l 519 751 l 499 751 l 386 306 q 348 153 368 233 q 309 0 328 74 l 23 0 m 292 183 l 324 395 l 733 395 l 759 183 l 292 183 m 510 1052 q 356 1080 417 1052 q 265 1162 295 1108 q 234 1297 234 1217 l 402 1304 q 427 1237 402 1267 q 510 1207 453 1207 q 593 1236 567 1207 q 618 1297 618 1265 l 786 1297 q 718 1114 786 1176 q 510 1052 649 1052 m 474 1324 q 409 1407 442 1365 q 342 1494 376 1450 q 273 1582 308 1538 l 499 1587 q 568 1457 534 1522 q 638 1325 603 1392 l 474 1324 z "},"Ẳ":{"ha":1019,"x_min":23,"x_max":999,"o":"m 23 0 q 74 168 47 79 q 126 335 101 256 l 231 675 q 283 842 260 768 q 328 990 306 915 l 694 990 q 741 838 719 912 q 792 675 764 765 l 896 335 q 948 166 922 253 q 999 0 975 79 l 703 0 q 666 153 685 74 q 629 301 647 231 l 519 751 l 499 751 l 386 306 q 348 153 368 233 q 309 0 328 74 l 23 0 m 292 183 l 324 395 l 733 395 l 759 183 l 292 183 m 510 1052 q 356 1080 417 1052 q 265 1162 295 1108 q 234 1297 234 1217 l 402 1304 q 427 1237 402 1267 q 510 1207 453 1207 q 593 1236 567 1207 q 618 1297 618 1265 l 786 1297 q 718 1114 786 1176 q 510 1052 649 1052 m 427 1314 l 427 1381 q 505 1405 471 1387 q 538 1448 538 1424 q 524 1474 538 1466 q 485 1483 509 1483 q 440 1478 463 1483 q 394 1466 417 1474 q 347 1448 371 1458 l 338 1575 q 369 1586 350 1580 q 411 1597 388 1592 q 463 1605 435 1601 q 524 1608 492 1608 q 615 1597 572 1608 q 685 1558 658 1586 q 713 1481 713 1531 q 692 1409 713 1440 q 636 1360 672 1379 q 553 1334 600 1342 l 553 1314 l 427 1314 z "},"Ẵ":{"ha":1019,"x_min":23,"x_max":999,"o":"m 23 0 q 74 168 47 79 q 126 335 101 256 l 231 675 q 283 842 260 768 q 328 990 306 915 l 694 990 q 741 838 719 912 q 792 675 764 765 l 896 335 q 948 166 922 253 q 999 0 975 79 l 703 0 q 666 153 685 74 q 629 301 647 231 l 519 751 l 499 751 l 386 306 q 348 153 368 233 q 309 0 328 74 l 23 0 m 292 183 l 324 395 l 733 395 l 759 183 l 292 183 m 509 1052 q 356 1080 417 1052 q 264 1162 294 1108 q 233 1297 233 1217 l 401 1304 q 427 1237 401 1267 q 509 1207 452 1207 q 592 1236 567 1207 q 617 1297 617 1265 l 785 1297 q 717 1114 785 1176 q 509 1052 649 1052 m 627 1341 q 555 1355 586 1341 q 499 1386 523 1369 q 457 1418 476 1404 q 422 1432 439 1432 q 384 1410 397 1432 q 367 1366 372 1389 l 247 1366 q 289 1532 247 1474 q 401 1590 331 1590 q 472 1576 442 1590 q 525 1544 501 1562 q 567 1513 548 1526 q 602 1499 585 1499 q 639 1520 627 1499 q 653 1565 650 1542 l 773 1565 q 733 1399 773 1457 q 627 1341 693 1341 z "},"Â":{"ha":1019,"x_min":23,"x_max":999,"o":"m 23 0 q 74 168 47 79 q 126 335 101 256 l 231 675 q 283 842 260 768 q 328 990 306 915 l 694 990 q 741 838 719 912 q 792 675 764 765 l 896 335 q 948 166 922 253 q 999 0 975 79 l 703 0 q 666 153 685 74 q 629 301 647 231 l 519 751 l 499 751 l 386 306 q 348 153 368 233 q 309 0 328 74 l 23 0 m 292 183 l 324 395 l 733 395 l 759 183 l 292 183 m 619 1067 q 549 1155 584 1111 q 478 1242 515 1198 l 541 1242 q 472 1156 506 1199 q 403 1070 438 1113 l 216 1070 q 297 1205 256 1137 q 379 1341 338 1272 l 641 1341 q 723 1205 682 1272 q 804 1070 764 1137 l 619 1067 z "},"Ấ":{"ha":1019,"x_min":23,"x_max":1061,"o":"m 23 0 q 74 168 47 79 q 126 335 101 256 l 231 675 q 283 842 260 768 q 328 990 306 915 l 694 990 q 741 838 719 912 q 792 675 764 765 l 896 335 q 948 166 922 253 q 999 0 975 79 l 703 0 q 666 153 685 74 q 629 301 647 231 l 519 751 l 499 751 l 386 306 q 348 153 368 233 q 309 0 328 74 l 23 0 m 292 183 l 324 395 l 733 395 l 759 183 l 292 183 m 696 1274 q 765 1405 731 1340 q 834 1533 800 1469 l 1061 1538 q 992 1449 1026 1493 q 926 1361 958 1404 q 860 1276 893 1317 l 696 1274 m 233 1070 q 310 1200 271 1134 q 388 1331 349 1265 l 613 1331 q 543 1242 577 1286 q 475 1155 508 1198 q 408 1070 442 1113 l 233 1070 m 614 1067 q 547 1154 581 1111 q 478 1242 513 1197 q 408 1331 444 1286 l 633 1331 q 711 1200 672 1265 q 787 1070 749 1134 l 614 1067 z "},"Ậ":{"ha":1019,"x_min":23,"x_max":999,"o":"m 23 0 q 74 168 47 79 q 126 335 101 256 l 231 675 q 283 842 260 768 q 328 990 306 915 l 694 990 q 741 838 719 912 q 792 675 764 765 l 896 335 q 948 166 922 253 q 999 0 975 79 l 703 0 q 666 153 685 74 q 629 301 647 231 l 519 751 l 499 751 l 386 306 q 348 153 368 233 q 309 0 328 74 l 23 0 m 292 183 l 324 395 l 733 395 l 759 183 l 292 183 m 510 -336 q 401 -305 441 -336 q 360 -201 360 -273 q 401 -105 360 -139 q 512 -70 441 -70 q 622 -106 581 -70 q 662 -201 662 -142 q 622 -305 662 -273 q 510 -336 581 -336 m 619 1067 q 549 1155 584 1111 q 478 1242 515 1198 l 541 1242 q 472 1156 506 1199 q 403 1070 438 1113 l 216 1070 q 297 1205 256 1137 q 379 1341 338 1272 l 641 1341 q 723 1205 682 1272 q 804 1070 764 1137 l 619 1067 z "},"Ầ":{"ha":1019,"x_min":23,"x_max":999,"o":"m 23 0 q 74 168 47 79 q 126 335 101 256 l 231 675 q 283 842 260 768 q 328 990 306 915 l 694 990 q 741 838 719 912 q 792 675 764 765 l 896 335 q 948 166 922 253 q 999 0 975 79 l 703 0 q 666 153 685 74 q 629 301 647 231 l 519 751 l 499 751 l 386 306 q 348 153 368 233 q 309 0 328 74 l 23 0 m 292 183 l 324 395 l 733 395 l 759 183 l 292 183 m 747 1275 q 682 1358 715 1316 q 615 1444 649 1401 q 547 1533 581 1488 l 773 1538 q 842 1408 807 1473 q 912 1276 876 1342 l 747 1275 m 233 1070 q 310 1200 271 1134 q 388 1331 349 1265 l 613 1331 q 543 1242 577 1286 q 475 1155 508 1198 q 408 1070 442 1113 l 233 1070 m 614 1067 q 547 1154 581 1111 q 478 1242 513 1197 q 408 1331 444 1286 l 633 1331 q 711 1200 672 1265 q 787 1070 749 1134 l 614 1067 z "},"Ẩ":{"ha":1019,"x_min":23,"x_max":999,"o":"m 23 0 q 74 168 47 79 q 126 335 101 256 l 231 675 q 283 842 260 768 q 328 990 306 915 l 694 990 q 741 838 719 912 q 792 675 764 765 l 896 335 q 948 166 922 253 q 999 0 975 79 l 703 0 q 666 153 685 74 q 629 301 647 231 l 519 751 l 499 751 l 386 306 q 348 153 368 233 q 309 0 328 74 l 23 0 m 292 183 l 324 395 l 733 395 l 759 183 l 292 183 m 233 1070 q 310 1200 271 1134 q 388 1331 349 1265 l 613 1331 q 543 1242 577 1286 q 475 1155 508 1198 q 408 1070 442 1113 l 233 1070 m 614 1067 q 547 1154 581 1111 q 478 1242 513 1197 q 408 1331 444 1286 l 633 1331 q 711 1200 672 1265 q 787 1070 749 1134 l 614 1067 m 706 1265 l 706 1332 q 783 1357 750 1338 q 817 1399 817 1375 q 802 1426 817 1417 q 764 1434 788 1434 q 719 1429 742 1434 q 673 1416 696 1424 q 626 1399 650 1408 l 616 1526 q 648 1537 629 1531 q 690 1548 667 1542 q 742 1556 714 1553 q 803 1560 771 1560 q 893 1549 850 1560 q 964 1509 937 1538 q 991 1433 991 1481 q 971 1361 991 1391 q 915 1312 951 1331 q 832 1285 878 1293 l 832 1265 l 706 1265 z "},"Ẫ":{"ha":1019,"x_min":23,"x_max":999,"o":"m 23 0 q 74 168 47 79 q 126 335 101 256 l 231 675 q 283 842 260 768 q 328 990 306 915 l 694 990 q 741 838 719 912 q 792 675 764 765 l 896 335 q 948 166 922 253 q 999 0 975 79 l 703 0 q 666 153 685 74 q 629 301 647 231 l 519 751 l 499 751 l 386 306 q 348 153 368 233 q 309 0 328 74 l 23 0 m 292 183 l 324 395 l 733 395 l 759 183 l 292 183 m 233 1070 q 310 1200 271 1134 q 388 1331 349 1265 l 613 1331 q 543 1242 578 1286 q 475 1155 508 1198 q 408 1070 442 1113 l 233 1070 m 614 1067 q 547 1154 581 1111 q 478 1242 513 1197 q 408 1331 443 1286 l 633 1331 q 711 1200 672 1265 q 787 1070 749 1134 l 614 1067 m 627 1355 q 555 1369 586 1355 q 499 1400 523 1383 q 457 1432 476 1418 q 422 1446 439 1446 q 384 1424 397 1446 q 367 1380 372 1403 l 247 1380 q 289 1545 247 1488 q 401 1603 331 1603 q 472 1590 442 1603 q 525 1558 501 1576 q 567 1526 548 1540 q 602 1513 585 1513 q 639 1534 627 1513 q 653 1578 650 1556 l 773 1578 q 733 1413 773 1471 q 627 1355 693 1355 z "},"Ȁ":{"ha":1019,"x_min":23,"x_max":999,"o":"m 23 0 q 74 168 47 79 q 126 335 101 256 l 231 675 q 283 842 260 768 q 328 990 306 915 l 694 990 q 741 838 719 912 q 792 675 764 765 l 896 335 q 948 166 922 253 q 999 0 975 79 l 703 0 q 666 153 685 74 q 629 301 647 231 l 519 751 l 499 751 l 386 306 q 348 153 368 233 q 309 0 328 74 l 23 0 m 292 183 l 324 395 l 733 395 l 759 183 l 292 183 m 301 1069 q 230 1156 266 1112 q 156 1246 193 1201 q 81 1338 119 1292 l 320 1344 q 397 1207 359 1275 q 473 1072 435 1140 l 301 1069 m 611 1069 q 551 1156 582 1112 q 489 1246 520 1201 q 426 1338 458 1292 l 658 1344 q 718 1208 688 1275 q 778 1072 747 1141 l 611 1069 z "},"Ä":{"ha":1019,"x_min":23,"x_max":999,"o":"m 23 0 q 74 168 47 79 q 126 335 101 256 l 231 675 q 283 842 260 768 q 328 990 306 915 l 694 990 q 741 838 719 912 q 792 675 764 765 l 896 335 q 948 166 922 253 q 999 0 975 79 l 703 0 q 666 153 685 74 q 629 301 647 231 l 519 751 l 499 751 l 386 306 q 348 153 368 233 q 309 0 328 74 l 23 0 m 292 183 l 324 395 l 733 395 l 759 183 l 292 183 m 674 1063 q 580 1094 614 1063 q 546 1191 546 1126 q 580 1282 546 1247 q 676 1316 615 1316 q 769 1280 735 1316 q 803 1191 803 1244 q 769 1094 803 1126 q 674 1063 735 1063 m 347 1063 q 252 1094 286 1063 q 219 1191 219 1126 q 253 1282 219 1247 q 348 1316 287 1316 q 442 1280 408 1316 q 476 1191 476 1244 q 442 1094 476 1126 q 347 1063 408 1063 z "},"Ạ":{"ha":1019,"x_min":23,"x_max":999,"o":"m 23 0 q 74 168 47 79 q 126 335 101 256 l 231 675 q 283 842 260 768 q 328 990 306 915 l 694 990 q 741 838 719 912 q 792 675 764 765 l 896 335 q 948 166 922 253 q 999 0 975 79 l 703 0 q 666 153 685 74 q 629 301 647 231 l 519 751 l 499 751 l 386 306 q 348 153 368 233 q 309 0 328 74 l 23 0 m 292 183 l 324 395 l 733 395 l 759 183 l 292 183 m 510 -336 q 401 -305 441 -336 q 360 -201 360 -273 q 401 -105 360 -139 q 512 -70 441 -70 q 622 -106 581 -70 q 662 -201 662 -142 q 622 -305 662 -273 q 510 -336 581 -336 z "},"À":{"ha":1019,"x_min":23,"x_max":999,"o":"m 23 0 q 74 168 47 79 q 126 335 101 256 l 231 675 q 283 842 260 768 q 328 990 306 915 l 694 990 q 741 838 719 912 q 792 675 764 765 l 896 335 q 948 166 922 253 q 999 0 975 79 l 703 0 q 666 153 685 74 q 629 301 647 231 l 519 751 l 499 751 l 386 306 q 348 153 368 233 q 309 0 328 74 l 23 0 m 292 183 l 324 395 l 733 395 l 759 183 l 292 183 m 476 1069 q 398 1157 438 1113 q 318 1246 358 1201 q 236 1338 278 1292 l 499 1344 q 581 1207 540 1275 q 663 1072 622 1140 l 476 1069 z "},"Ả":{"ha":1019,"x_min":23,"x_max":999,"o":"m 23 0 q 74 168 47 79 q 126 335 101 256 l 231 675 q 283 842 260 768 q 328 990 306 915 l 694 990 q 741 838 719 912 q 792 675 764 765 l 896 335 q 948 166 922 253 q 999 0 975 79 l 703 0 q 666 153 685 74 q 629 301 647 231 l 519 751 l 499 751 l 386 306 q 348 153 368 233 q 309 0 328 74 l 23 0 m 292 183 l 324 395 l 733 395 l 759 183 l 292 183 m 413 1070 l 413 1145 q 500 1165 462 1147 q 538 1210 538 1183 q 522 1239 538 1230 q 479 1248 506 1248 q 428 1243 453 1248 q 376 1229 402 1238 q 323 1209 350 1220 l 312 1354 q 348 1367 326 1360 q 396 1379 369 1374 q 456 1389 424 1385 q 524 1392 488 1392 q 626 1380 577 1392 q 706 1335 675 1367 q 737 1249 737 1304 q 714 1168 737 1201 q 651 1116 692 1135 q 557 1093 610 1097 l 557 1070 l 413 1070 z "},"Ȃ":{"ha":1019,"x_min":23,"x_max":999,"o":"m 23 0 q 74 168 47 79 q 126 335 101 256 l 231 675 q 283 842 260 768 q 328 990 306 915 l 694 990 q 741 838 719 912 q 792 675 764 765 l 896 335 q 948 166 922 253 q 999 0 975 79 l 703 0 q 666 153 685 74 q 629 301 647 231 l 519 751 l 499 751 l 386 306 q 348 153 368 233 q 309 0 328 74 l 23 0 m 292 183 l 324 395 l 733 395 l 759 183 l 292 183 m 612 1058 q 588 1158 612 1122 q 510 1194 564 1194 q 432 1159 456 1194 q 408 1065 408 1124 l 233 1065 q 264 1234 233 1169 q 355 1331 294 1300 q 510 1363 417 1363 q 717 1291 648 1363 q 785 1065 785 1220 l 612 1058 z "},"Ā":{"ha":1019,"x_min":23,"x_max":999,"o":"m 23 0 q 74 168 47 79 q 126 335 101 256 l 231 675 q 283 842 260 768 q 328 990 306 915 l 694 990 q 741 838 719 912 q 792 675 764 765 l 896 335 q 948 166 922 253 q 999 0 975 79 l 703 0 q 666 153 685 74 q 629 301 647 231 l 519 751 l 499 751 l 386 306 q 348 153 368 233 q 309 0 328 74 l 23 0 m 292 183 l 324 395 l 733 395 l 759 183 l 292 183 m 263 1097 l 263 1285 q 380 1285 318 1285 q 510 1285 442 1285 q 641 1285 578 1285 q 758 1285 703 1285 l 758 1097 q 641 1097 703 1097 q 510 1097 578 1097 q 380 1097 442 1097 q 263 1097 318 1097 z "},"Ą":{"ha":1019,"x_min":23,"x_max":1003,"o":"m 23 0 q 74 168 47 79 q 126 335 101 256 l 231 675 q 283 842 260 768 q 328 990 306 915 l 694 990 q 741 838 719 912 q 792 675 764 765 l 896 335 q 948 166 922 253 q 999 0 975 79 l 703 0 q 666 153 685 74 q 629 301 647 231 l 519 751 l 499 751 l 386 306 q 348 153 368 233 q 309 0 328 74 l 23 0 m 292 183 l 324 395 l 733 395 l 759 183 l 292 183 m 904 -310 q 784 -292 829 -310 q 717 -245 738 -275 q 697 -177 697 -215 q 713 -107 697 -138 q 757 -52 730 -76 q 815 -14 784 -29 l 815 35 l 947 51 l 999 0 q 915 -48 947 -21 q 883 -108 883 -75 q 900 -144 883 -132 q 949 -156 917 -156 q 982 -153 968 -156 q 1003 -147 996 -149 l 1003 -296 q 961 -306 988 -302 q 904 -310 935 -310 z "},"Å":{"ha":1019,"x_min":23,"x_max":999,"o":"m 23 0 q 74 168 47 79 q 126 335 101 256 l 231 675 q 283 842 260 768 q 328 990 306 915 l 694 990 q 741 838 719 912 q 792 675 764 765 l 896 335 q 948 166 922 253 q 999 0 975 79 l 703 0 q 666 153 685 74 q 629 301 647 231 l 519 751 l 499 751 l 386 306 q 348 153 368 233 q 309 0 328 74 l 23 0 m 292 183 l 324 395 l 733 395 l 759 183 l 292 183 m 509 1051 q 403 1071 449 1051 q 333 1130 358 1090 q 308 1229 308 1169 q 364 1356 308 1309 q 510 1402 419 1402 q 616 1380 571 1402 q 686 1319 661 1358 q 711 1229 711 1280 q 686 1130 711 1169 q 616 1071 661 1090 q 509 1051 570 1051 m 509 1155 q 566 1174 545 1155 q 586 1228 586 1193 q 566 1278 586 1256 q 510 1300 545 1300 q 454 1279 475 1300 q 433 1228 433 1258 q 454 1174 433 1193 q 509 1155 474 1155 z "},"Ǻ":{"ha":1019,"x_min":23,"x_max":999,"o":"m 23 0 q 74 168 47 79 q 126 335 101 256 l 231 675 q 283 842 260 768 q 328 990 306 915 l 694 990 q 741 838 719 912 q 792 675 764 765 l 896 335 q 948 166 922 253 q 999 0 975 79 l 703 0 q 666 153 685 74 q 629 301 647 231 l 519 751 l 499 751 l 386 306 q 348 153 368 233 q 309 0 328 74 l 23 0 m 292 183 l 324 395 l 733 395 l 759 183 l 292 183 m 509 1051 q 403 1071 449 1051 q 333 1130 358 1090 q 308 1229 308 1169 q 364 1356 308 1309 q 510 1402 419 1402 q 616 1380 571 1402 q 686 1319 661 1358 q 711 1229 711 1280 q 686 1130 711 1169 q 616 1071 661 1090 q 509 1051 570 1051 m 509 1155 q 566 1174 545 1155 q 586 1228 586 1193 q 566 1278 586 1256 q 510 1300 545 1300 q 454 1279 475 1300 q 433 1228 433 1258 q 454 1174 433 1193 q 509 1155 474 1155 m 384 1324 q 466 1459 426 1392 q 547 1594 507 1526 l 811 1599 q 729 1506 769 1552 q 649 1415 688 1460 q 572 1327 610 1370 l 384 1324 z "},"Ã":{"ha":1019,"x_min":23,"x_max":999,"o":"m 23 0 q 74 168 47 79 q 126 335 101 256 l 231 675 q 283 842 260 768 q 328 990 306 915 l 694 990 q 741 838 719 912 q 792 675 764 765 l 896 335 q 948 166 922 253 q 999 0 975 79 l 703 0 q 666 153 685 74 q 629 301 647 231 l 519 751 l 499 751 l 386 306 q 348 153 368 233 q 309 0 328 74 l 23 0 m 292 183 l 324 395 l 733 395 l 759 183 l 292 183 m 637 1053 q 559 1069 592 1053 q 499 1104 525 1084 q 454 1140 474 1124 q 417 1155 434 1155 q 376 1131 390 1155 q 357 1081 362 1106 l 227 1081 q 273 1268 227 1203 q 393 1333 318 1333 q 469 1318 437 1333 q 526 1283 501 1303 q 571 1248 551 1263 q 610 1233 591 1233 q 648 1257 636 1233 q 664 1306 660 1281 l 794 1306 q 751 1119 794 1185 q 637 1053 708 1053 z "},"Æ":{"ha":1401,"x_min":15,"x_max":1340,"o":"m 15 0 q 91 168 51 81 q 165 335 130 256 l 315 676 q 388 840 354 763 q 455 990 422 916 l 1332 990 l 1332 762 q 1248 762 1292 762 q 1152 762 1203 762 q 1038 762 1100 762 l 826 762 l 931 944 q 931 787 931 864 q 931 613 931 710 l 931 367 q 931 199 931 273 q 931 46 931 124 l 842 228 l 1057 228 q 1157 228 1109 228 q 1251 228 1206 228 q 1340 228 1297 228 l 1340 0 l 651 0 q 651 152 651 78 q 651 320 651 226 l 651 659 q 651 833 651 758 q 651 970 651 908 l 791 764 l 612 764 l 430 312 q 367 156 399 236 q 305 0 335 76 l 15 0 m 319 183 l 351 395 l 744 395 l 769 183 l 319 183 m 865 394 l 865 601 l 1040 601 q 1191 601 1128 601 q 1314 601 1255 601 l 1314 394 q 1252 394 1283 394 q 1188 394 1221 394 q 1119 394 1156 394 q 1040 394 1082 394 l 865 394 z "},"Ǽ":{"ha":1401,"x_min":15,"x_max":1340,"o":"m 15 0 q 91 168 51 81 q 165 335 130 256 l 315 676 q 388 840 354 763 q 455 990 422 916 l 1332 990 l 1332 762 q 1248 762 1292 762 q 1152 762 1203 762 q 1038 762 1100 762 l 826 762 l 931 944 q 931 787 931 864 q 931 613 931 710 l 931 367 q 931 199 931 273 q 931 46 931 124 l 842 228 l 1057 228 q 1157 228 1109 228 q 1251 228 1206 228 q 1340 228 1297 228 l 1340 0 l 651 0 q 651 152 651 78 q 651 320 651 226 l 651 659 q 651 833 651 758 q 651 970 651 908 l 791 764 l 612 764 l 430 312 q 367 156 399 236 q 305 0 335 76 l 15 0 m 319 183 l 351 395 l 744 395 l 769 183 l 319 183 m 865 394 l 865 601 l 1040 601 q 1191 601 1128 601 q 1314 601 1255 601 l 1314 394 q 1252 394 1283 394 q 1188 394 1221 394 q 1119 394 1156 394 q 1040 394 1082 394 l 865 394 m 638 1069 q 720 1204 679 1137 q 801 1338 760 1271 l 1065 1344 q 982 1250 1023 1297 q 902 1159 942 1204 q 825 1072 863 1115 l 638 1069 z "},"B":{"ha":933,"x_min":80,"x_max":896,"o":"m 450 0 q 305 0 372 0 q 181 0 238 0 q 80 0 125 0 q 80 152 80 78 q 80 320 80 226 l 80 659 q 80 833 80 756 q 80 990 80 910 q 278 990 167 990 q 501 990 390 990 q 684 974 612 990 q 798 928 756 958 q 858 857 840 898 q 875 766 875 816 q 851 656 875 703 q 785 580 826 610 q 691 539 743 551 l 691 519 q 801 476 755 504 q 872 400 847 447 q 896 281 896 352 q 876 165 896 217 q 806 76 856 113 q 670 20 757 40 q 450 0 583 0 m 361 203 l 477 203 q 545 214 517 203 q 586 248 572 225 q 599 305 599 271 q 570 380 599 354 q 483 406 541 406 l 293 406 l 293 590 l 468 590 q 530 602 505 590 q 568 636 555 614 q 581 691 581 659 q 556 765 581 738 q 479 791 531 791 l 361 791 q 361 703 361 749 q 361 597 361 658 l 361 382 q 361 284 361 326 q 361 203 361 242 z "},"C":{"ha":948,"x_min":42,"x_max":892,"o":"m 574 -20 q 353 16 451 -20 q 185 119 255 52 q 79 281 116 187 q 42 493 42 376 q 102 759 42 642 q 276 944 162 876 q 556 1012 391 1012 q 650 1006 603 1012 q 741 990 697 1000 q 823 967 785 980 q 892 938 862 954 l 872 674 q 768 730 817 709 q 674 761 718 751 q 590 771 629 771 q 463 740 519 771 q 374 647 406 709 q 341 494 341 585 q 358 386 341 438 q 408 297 374 335 q 493 235 442 258 q 614 213 544 213 q 676 217 644 213 q 741 231 708 222 q 807 258 774 241 q 874 301 840 276 l 888 40 q 821 13 858 25 q 743 -6 784 1 q 660 -17 703 -13 q 574 -20 617 -20 z "},"Ć":{"ha":948,"x_min":42,"x_max":892,"o":"m 574 -20 q 353 16 451 -20 q 185 119 255 52 q 79 281 116 187 q 42 493 42 376 q 102 759 42 642 q 276 944 162 876 q 556 1012 391 1012 q 650 1006 603 1012 q 741 990 697 1000 q 823 967 785 980 q 892 938 862 954 l 872 674 q 768 730 817 709 q 674 761 718 751 q 590 771 629 771 q 463 740 519 771 q 374 647 406 709 q 341 494 341 585 q 358 386 341 438 q 408 297 374 335 q 493 235 442 258 q 614 213 544 213 q 676 217 644 213 q 741 231 708 222 q 807 258 774 241 q 874 301 840 276 l 888 40 q 821 13 858 25 q 743 -6 784 1 q 660 -17 703 -13 q 574 -20 617 -20 m 392 1069 q 475 1204 434 1137 q 556 1338 515 1271 l 819 1344 q 737 1250 778 1297 q 657 1159 697 1204 q 580 1072 618 1115 l 392 1069 z "},"Č":{"ha":948,"x_min":42,"x_max":892,"o":"m 574 -20 q 353 16 451 -20 q 185 119 255 52 q 79 281 116 187 q 42 493 42 376 q 102 759 42 642 q 276 944 162 876 q 556 1012 391 1012 q 650 1006 603 1012 q 741 990 697 1000 q 823 967 785 980 q 892 938 862 954 l 872 674 q 768 730 817 709 q 674 761 718 751 q 590 771 629 771 q 463 740 519 771 q 374 647 406 709 q 341 494 341 585 q 358 386 341 438 q 408 297 374 335 q 493 235 442 258 q 614 213 544 213 q 676 217 644 213 q 741 231 708 222 q 807 258 774 241 q 874 301 840 276 l 888 40 q 821 13 858 25 q 743 -6 784 1 q 660 -17 703 -13 q 574 -20 617 -20 m 413 1068 q 331 1205 372 1137 q 250 1339 290 1273 l 435 1342 q 505 1255 470 1299 q 576 1167 540 1212 l 513 1167 q 583 1254 548 1211 q 651 1339 617 1297 l 838 1339 q 757 1205 798 1273 q 675 1068 717 1137 l 413 1068 z "},"Ç":{"ha":948,"x_min":42,"x_max":892,"o":"m 574 -20 q 353 16 451 -20 q 185 119 255 52 q 79 281 116 187 q 42 493 42 376 q 102 759 42 642 q 276 944 162 876 q 556 1012 391 1012 q 650 1006 603 1012 q 741 990 697 1000 q 823 967 785 980 q 892 938 862 954 l 872 674 q 768 730 817 709 q 674 761 718 751 q 590 771 629 771 q 463 740 519 771 q 374 647 406 709 q 341 494 341 585 q 358 386 341 438 q 408 297 374 335 q 493 235 442 258 q 614 213 544 213 q 676 217 644 213 q 741 231 708 222 q 807 258 774 241 q 874 301 840 276 l 888 40 q 821 13 858 25 q 743 -6 784 1 q 660 -17 703 -13 q 574 -20 617 -20 m 507 -312 q 468 -310 487 -312 q 433 -306 449 -309 q 406 -299 417 -303 l 406 -161 q 431 -166 415 -163 q 465 -169 447 -169 q 515 -159 499 -169 q 532 -128 532 -149 q 524 -106 532 -116 q 499 -87 517 -96 q 451 -69 482 -78 l 499 44 l 631 44 l 631 0 l 604 -62 q 677 -89 649 -72 q 717 -130 705 -106 q 728 -185 728 -153 q 708 -250 728 -221 q 638 -295 687 -278 q 507 -312 590 -312 z "},"Ḉ":{"ha":948,"x_min":42,"x_max":892,"o":"m 574 -20 q 353 16 451 -20 q 185 119 255 52 q 79 281 116 187 q 42 493 42 376 q 102 759 42 642 q 276 944 162 876 q 556 1012 391 1012 q 650 1006 603 1012 q 741 990 697 1000 q 823 967 785 980 q 892 938 862 954 l 872 674 q 768 730 817 709 q 674 761 718 751 q 590 771 629 771 q 463 740 519 771 q 374 647 406 709 q 341 494 341 585 q 358 386 341 438 q 408 297 374 335 q 493 235 442 258 q 614 213 544 213 q 676 217 644 213 q 741 231 708 222 q 807 258 774 241 q 874 301 840 276 l 888 40 q 821 13 858 25 q 743 -6 784 1 q 660 -17 703 -13 q 574 -20 617 -20 m 507 -312 q 468 -310 487 -312 q 433 -306 449 -309 q 406 -299 417 -303 l 406 -161 q 431 -166 415 -163 q 465 -169 447 -169 q 515 -159 499 -169 q 532 -128 532 -149 q 524 -106 532 -116 q 499 -87 517 -96 q 451 -69 482 -78 l 499 44 l 631 44 l 631 0 l 604 -62 q 677 -89 649 -72 q 717 -130 705 -106 q 728 -185 728 -153 q 708 -250 728 -221 q 638 -295 687 -278 q 507 -312 590 -312 m 392 1069 q 475 1204 434 1137 q 556 1338 515 1271 l 819 1344 q 737 1250 778 1297 q 657 1159 697 1204 q 580 1072 618 1115 l 392 1069 z "},"Ĉ":{"ha":948,"x_min":42,"x_max":892,"o":"m 574 -20 q 353 16 451 -20 q 185 119 255 52 q 79 281 116 187 q 42 493 42 376 q 102 759 42 642 q 276 944 162 876 q 556 1012 391 1012 q 650 1006 603 1012 q 741 990 697 1000 q 823 967 785 980 q 892 938 862 954 l 872 674 q 768 730 817 709 q 674 761 718 751 q 590 771 629 771 q 463 740 519 771 q 374 647 406 709 q 341 494 341 585 q 358 386 341 438 q 408 297 374 335 q 493 235 442 258 q 614 213 544 213 q 676 217 644 213 q 741 231 708 222 q 807 258 774 241 q 874 301 840 276 l 888 40 q 821 13 858 25 q 743 -6 784 1 q 660 -17 703 -13 q 574 -20 617 -20 m 653 1067 q 584 1155 619 1111 q 513 1242 549 1198 l 576 1242 q 507 1156 541 1199 q 438 1070 472 1113 l 251 1070 q 332 1205 291 1137 q 414 1341 373 1272 l 676 1341 q 758 1205 717 1272 q 839 1070 799 1137 l 653 1067 z "},"Ċ":{"ha":948,"x_min":42,"x_max":892,"o":"m 574 -20 q 353 16 451 -20 q 185 119 255 52 q 79 281 116 187 q 42 493 42 376 q 102 759 42 642 q 276 944 162 876 q 556 1012 391 1012 q 650 1006 603 1012 q 741 990 697 1000 q 823 967 785 980 q 892 938 862 954 l 872 674 q 768 730 817 709 q 674 761 718 751 q 590 771 629 771 q 463 740 519 771 q 374 647 406 709 q 341 494 341 585 q 358 386 341 438 q 408 297 374 335 q 493 235 442 258 q 614 213 544 213 q 676 217 644 213 q 741 231 708 222 q 807 258 774 241 q 874 301 840 276 l 888 40 q 821 13 858 25 q 743 -6 784 1 q 660 -17 703 -13 q 574 -20 617 -20 m 544 1063 q 435 1094 476 1063 q 394 1197 394 1126 q 435 1294 394 1260 q 546 1328 476 1328 q 656 1293 616 1328 q 696 1197 696 1258 q 656 1094 696 1126 q 544 1063 615 1063 z "},"D":{"ha":1016,"x_min":81,"x_max":974,"o":"m 81 0 q 81 152 81 78 q 81 320 81 226 l 81 658 q 81 833 81 756 q 81 990 81 910 q 205 990 137 990 q 349 990 274 990 q 500 990 424 990 q 700 958 613 990 q 849 862 788 925 q 942 708 910 799 q 974 498 974 616 q 945 302 974 393 q 856 144 917 212 q 692 38 794 76 q 442 0 590 0 q 309 0 372 0 q 190 0 247 0 q 81 0 133 0 m 367 226 l 441 226 q 579 262 528 226 q 653 360 631 298 q 675 501 675 422 q 662 608 675 560 q 622 691 649 656 q 552 745 594 726 q 450 764 510 764 l 367 764 q 367 684 367 725 q 367 588 367 643 l 367 393 q 367 303 367 342 q 367 226 367 263 z "},"Ǆ":{"ha":1966,"x_min":81,"x_max":1917,"o":"m 81 0 q 81 152 81 78 q 81 320 81 226 l 81 658 q 81 833 81 756 q 81 990 81 910 q 205 990 137 990 q 349 990 274 990 q 500 990 424 990 q 700 958 613 990 q 849 862 788 925 q 942 708 910 799 q 974 498 974 616 q 945 302 974 393 q 856 144 917 212 q 692 38 794 76 q 442 0 590 0 q 309 0 372 0 q 190 0 247 0 q 81 0 133 0 m 367 226 l 441 226 q 579 262 528 226 q 653 360 631 298 q 675 501 675 422 q 662 608 675 560 q 622 691 649 656 q 552 745 594 726 q 450 764 510 764 l 367 764 q 367 684 367 725 q 367 588 367 643 l 367 393 q 367 303 367 342 q 367 226 367 263 m 1048 0 l 1048 147 q 1121 240 1081 188 q 1202 345 1161 292 q 1278 442 1243 398 l 1588 838 l 1613 755 l 1382 755 q 1231 755 1311 755 q 1065 755 1150 755 l 1065 990 l 1908 990 l 1908 801 q 1806 673 1856 735 q 1707 548 1756 610 l 1390 150 l 1373 235 l 1581 235 q 1692 235 1631 235 q 1812 235 1753 235 q 1917 235 1872 235 l 1917 0 l 1048 0 m 1351 1068 q 1269 1205 1310 1137 q 1188 1339 1228 1273 l 1374 1342 q 1443 1255 1408 1299 q 1514 1167 1478 1212 l 1451 1167 q 1521 1254 1486 1211 q 1589 1339 1556 1297 l 1776 1339 q 1695 1205 1736 1273 q 1613 1068 1655 1137 l 1351 1068 z "},"Ð":{"ha":1016,"x_min":-21,"x_max":974,"o":"m -21 397 l -21 588 q 106 588 45 588 q 222 588 167 588 l 288 588 q 403 588 342 588 q 530 588 465 588 l 530 397 q 403 397 465 397 q 288 397 342 397 l 222 397 q 106 397 167 397 q -21 397 45 397 m 81 0 q 81 152 81 78 q 81 320 81 226 l 81 658 q 81 833 81 756 q 81 990 81 910 q 205 990 137 990 q 349 990 274 990 q 500 990 424 990 q 700 958 613 990 q 849 862 788 925 q 942 708 910 799 q 974 498 974 616 q 945 302 974 393 q 856 144 917 212 q 692 38 794 76 q 442 0 590 0 q 309 0 372 0 q 190 0 247 0 q 81 0 133 0 m 367 226 l 441 226 q 579 262 528 226 q 653 360 631 298 q 675 501 675 422 q 662 608 675 560 q 622 691 649 656 q 552 745 594 726 q 450 764 510 764 l 367 764 q 367 684 367 725 q 367 588 367 643 l 367 393 q 367 303 367 342 q 367 226 367 263 z "},"Ď":{"ha":1016,"x_min":81,"x_max":974,"o":"m 81 0 q 81 152 81 78 q 81 320 81 226 l 81 658 q 81 833 81 756 q 81 990 81 910 q 205 990 137 990 q 349 990 274 990 q 500 990 424 990 q 700 958 613 990 q 849 862 788 925 q 942 708 910 799 q 974 498 974 616 q 945 302 974 393 q 856 144 917 212 q 692 38 794 76 q 442 0 590 0 q 309 0 372 0 q 190 0 247 0 q 81 0 133 0 m 367 226 l 441 226 q 579 262 528 226 q 653 360 631 298 q 675 501 675 422 q 662 608 675 560 q 622 691 649 656 q 552 745 594 726 q 450 764 510 764 l 367 764 q 367 684 367 725 q 367 588 367 643 l 367 393 q 367 303 367 342 q 367 226 367 263 m 360 1068 q 278 1205 319 1137 q 197 1339 237 1273 l 382 1342 q 452 1255 417 1299 q 522 1167 487 1212 l 460 1167 q 529 1254 494 1211 q 597 1339 564 1297 l 785 1339 q 704 1205 744 1273 q 622 1068 663 1137 l 360 1068 z "},"Đ":{"ha":1016,"x_min":-21,"x_max":974,"o":"m -21 397 l -21 588 q 106 588 45 588 q 222 588 167 588 l 288 588 q 403 588 342 588 q 530 588 465 588 l 530 397 q 403 397 465 397 q 288 397 342 397 l 222 397 q 106 397 167 397 q -21 397 45 397 m 81 0 q 81 152 81 78 q 81 320 81 226 l 81 658 q 81 833 81 756 q 81 990 81 910 q 205 990 137 990 q 349 990 274 990 q 500 990 424 990 q 700 958 613 990 q 849 862 788 925 q 942 708 910 799 q 974 498 974 616 q 945 302 974 393 q 856 144 917 212 q 692 38 794 76 q 442 0 590 0 q 309 0 372 0 q 190 0 247 0 q 81 0 133 0 m 367 226 l 441 226 q 579 262 528 226 q 653 360 631 298 q 675 501 675 422 q 662 608 675 560 q 622 691 649 656 q 552 745 594 726 q 450 764 510 764 l 367 764 q 367 684 367 725 q 367 588 367 643 l 367 393 q 367 303 367 342 q 367 226 367 263 z "},"Ḍ":{"ha":1016,"x_min":81,"x_max":974,"o":"m 81 0 q 81 152 81 78 q 81 320 81 226 l 81 658 q 81 833 81 756 q 81 990 81 910 q 205 990 137 990 q 349 990 274 990 q 500 990 424 990 q 700 958 613 990 q 849 862 788 925 q 942 708 910 799 q 974 498 974 616 q 945 302 974 393 q 856 144 917 212 q 692 38 794 76 q 442 0 590 0 q 309 0 372 0 q 190 0 247 0 q 81 0 133 0 m 367 226 l 441 226 q 579 262 528 226 q 653 360 631 298 q 675 501 675 422 q 662 608 675 560 q 622 691 649 656 q 552 745 594 726 q 450 764 510 764 l 367 764 q 367 684 367 725 q 367 588 367 643 l 367 393 q 367 303 367 342 q 367 226 367 263 m 492 -336 q 382 -305 422 -336 q 342 -201 342 -273 q 382 -105 342 -139 q 493 -70 422 -70 q 603 -106 563 -70 q 643 -201 643 -142 q 603 -305 643 -273 q 492 -336 563 -336 z "},"Ḏ":{"ha":1016,"x_min":81,"x_max":974,"o":"m 81 0 q 81 152 81 78 q 81 320 81 226 l 81 658 q 81 833 81 756 q 81 990 81 910 q 205 990 137 990 q 349 990 274 990 q 500 990 424 990 q 700 958 613 990 q 849 862 788 925 q 942 708 910 799 q 974 498 974 616 q 945 302 974 393 q 856 144 917 212 q 692 38 794 76 q 442 0 590 0 q 309 0 372 0 q 190 0 247 0 q 81 0 133 0 m 367 226 l 441 226 q 579 262 528 226 q 653 360 631 298 q 675 501 675 422 q 662 608 675 560 q 622 691 649 656 q 552 745 594 726 q 450 764 510 764 l 367 764 q 367 684 367 725 q 367 588 367 643 l 367 393 q 367 303 367 342 q 367 226 367 263 m 244 -282 l 244 -93 q 361 -93 299 -93 q 492 -93 424 -93 q 622 -93 560 -93 q 740 -93 684 -93 l 740 -282 q 622 -282 684 -282 q 492 -282 560 -282 q 361 -282 424 -282 q 244 -282 299 -282 z "},"ǅ":{"ha":1747,"x_min":81,"x_max":1710,"o":"m 81 0 q 81 152 81 78 q 81 320 81 226 l 81 658 q 81 833 81 756 q 81 990 81 910 q 205 990 137 990 q 349 990 274 990 q 500 990 424 990 q 700 958 613 990 q 849 862 788 925 q 942 708 910 799 q 974 498 974 616 q 945 302 974 393 q 856 144 917 212 q 692 38 794 76 q 442 0 590 0 q 309 0 372 0 q 190 0 247 0 q 81 0 133 0 m 367 226 l 441 226 q 579 262 528 226 q 653 360 631 298 q 675 501 675 422 q 662 608 675 560 q 622 691 649 656 q 552 745 594 726 q 450 764 510 764 l 367 764 q 367 684 367 725 q 367 588 367 643 l 367 393 q 367 303 367 342 q 367 226 367 263 m 1054 0 l 1054 119 q 1147 240 1101 181 q 1235 353 1192 299 l 1403 572 l 1432 501 l 1309 501 q 1236 501 1278 501 q 1149 501 1194 501 q 1063 501 1103 501 l 1063 695 l 1690 695 l 1690 553 q 1640 488 1668 524 q 1581 413 1611 451 q 1522 338 1551 374 l 1363 133 l 1340 194 l 1474 194 q 1545 194 1504 194 q 1629 194 1586 194 q 1709 194 1672 194 l 1709 0 l 1054 0 m 1248 774 q 1166 924 1206 850 q 1085 1072 1126 998 l 1270 1074 q 1338 981 1304 1028 q 1407 886 1372 934 l 1350 886 q 1418 980 1385 934 q 1485 1072 1452 1026 l 1673 1072 q 1592 924 1633 998 q 1510 774 1551 850 l 1248 774 z "},"E":{"ha":831,"x_min":80,"x_max":769,"o":"m 80 0 q 80 152 80 78 q 80 320 80 226 l 80 659 q 80 833 80 756 q 80 990 80 910 l 762 990 l 762 762 q 631 762 701 762 q 467 762 561 762 l 242 762 l 360 944 q 360 787 360 864 q 360 613 360 710 l 360 367 q 360 199 360 273 q 360 46 360 124 l 260 228 l 486 228 q 635 228 565 228 q 769 228 705 228 l 769 0 l 80 0 m 294 394 l 294 601 l 469 601 q 621 601 558 601 q 743 601 684 601 l 743 394 q 618 394 681 394 q 469 394 555 394 l 294 394 z "},"É":{"ha":831,"x_min":80,"x_max":769,"o":"m 80 0 q 80 152 80 78 q 80 320 80 226 l 80 659 q 80 833 80 756 q 80 990 80 910 l 762 990 l 762 762 q 631 762 701 762 q 467 762 561 762 l 242 762 l 360 944 q 360 787 360 864 q 360 613 360 710 l 360 367 q 360 199 360 273 q 360 46 360 124 l 260 228 l 486 228 q 635 228 565 228 q 769 228 705 228 l 769 0 l 80 0 m 294 394 l 294 601 l 469 601 q 621 601 558 601 q 743 601 684 601 l 743 394 q 618 394 681 394 q 469 394 555 394 l 294 394 m 272 1069 q 355 1204 314 1137 q 435 1338 395 1271 l 699 1344 q 617 1250 658 1297 q 537 1159 576 1204 q 460 1072 498 1115 l 272 1069 z "},"Ĕ":{"ha":831,"x_min":80,"x_max":769,"o":"m 80 0 q 80 152 80 78 q 80 320 80 226 l 80 659 q 80 833 80 756 q 80 990 80 910 l 762 990 l 762 762 q 631 762 701 762 q 467 762 561 762 l 242 762 l 360 944 q 360 787 360 864 q 360 613 360 710 l 360 367 q 360 199 360 273 q 360 46 360 124 l 260 228 l 486 228 q 635 228 565 228 q 769 228 705 228 l 769 0 l 80 0 m 294 394 l 294 601 l 469 601 q 621 601 558 601 q 743 601 684 601 l 743 394 q 618 394 681 394 q 469 394 555 394 l 294 394 m 424 1052 q 217 1123 285 1052 q 148 1349 148 1194 l 322 1357 q 346 1257 322 1293 q 424 1221 370 1221 q 502 1256 478 1221 q 526 1349 526 1291 l 700 1349 q 670 1180 700 1246 q 578 1083 640 1115 q 424 1052 517 1052 z "},"Ě":{"ha":831,"x_min":80,"x_max":769,"o":"m 80 0 q 80 152 80 78 q 80 320 80 226 l 80 659 q 80 833 80 756 q 80 990 80 910 l 762 990 l 762 762 q 631 762 701 762 q 467 762 561 762 l 242 762 l 360 944 q 360 787 360 864 q 360 613 360 710 l 360 367 q 360 199 360 273 q 360 46 360 124 l 260 228 l 486 228 q 635 228 565 228 q 769 228 705 228 l 769 0 l 80 0 m 294 394 l 294 601 l 469 601 q 621 601 558 601 q 743 601 684 601 l 743 394 q 618 394 681 394 q 469 394 555 394 l 294 394 m 293 1068 q 211 1205 252 1137 q 130 1339 170 1273 l 315 1342 q 385 1255 350 1299 q 456 1167 420 1212 l 393 1167 q 463 1254 428 1211 q 531 1339 497 1297 l 718 1339 q 637 1205 678 1273 q 555 1068 597 1137 l 293 1068 z "},"Ḝ":{"ha":831,"x_min":80,"x_max":769,"o":"m 80 0 q 80 152 80 78 q 80 320 80 226 l 80 659 q 80 833 80 756 q 80 990 80 910 l 762 990 l 762 762 q 631 762 701 762 q 467 762 561 762 l 242 762 l 360 944 q 360 787 360 864 q 360 613 360 710 l 360 367 q 360 199 360 273 q 360 46 360 124 l 260 228 l 486 228 q 635 228 565 228 q 769 228 705 228 l 769 0 l 80 0 m 294 394 l 294 601 l 469 601 q 621 601 558 601 q 743 601 684 601 l 743 394 q 618 394 681 394 q 469 394 555 394 l 294 394 m 385 -312 q 345 -310 365 -312 q 310 -306 326 -309 q 284 -299 294 -303 l 284 -161 q 308 -166 292 -163 q 343 -169 324 -169 q 393 -159 376 -169 q 410 -128 410 -149 q 402 -106 410 -116 q 377 -87 394 -96 q 329 -69 360 -78 l 377 44 l 508 44 l 508 0 l 482 -62 q 555 -89 527 -72 q 594 -130 583 -106 q 606 -185 606 -153 q 585 -250 606 -221 q 516 -295 565 -278 q 385 -312 467 -312 m 424 1052 q 217 1123 285 1052 q 148 1349 148 1194 l 322 1357 q 346 1257 322 1293 q 424 1221 370 1221 q 502 1256 478 1221 q 526 1349 526 1291 l 700 1349 q 670 1180 700 1246 q 578 1083 640 1115 q 424 1052 517 1052 z "},"Ê":{"ha":831,"x_min":80,"x_max":769,"o":"m 80 0 q 80 152 80 78 q 80 320 80 226 l 80 659 q 80 833 80 756 q 80 990 80 910 l 762 990 l 762 762 q 631 762 701 762 q 467 762 561 762 l 242 762 l 360 944 q 360 787 360 864 q 360 613 360 710 l 360 367 q 360 199 360 273 q 360 46 360 124 l 260 228 l 486 228 q 635 228 565 228 q 769 228 705 228 l 769 0 l 80 0 m 294 394 l 294 601 l 469 601 q 621 601 558 601 q 743 601 684 601 l 743 394 q 618 394 681 394 q 469 394 555 394 l 294 394 m 533 1067 q 464 1155 499 1111 q 393 1242 429 1198 l 456 1242 q 386 1156 421 1199 q 318 1070 352 1113 l 131 1070 q 212 1205 171 1137 q 294 1341 253 1272 l 556 1341 q 638 1205 597 1272 q 719 1070 678 1137 l 533 1067 z "},"Ế":{"ha":831,"x_min":80,"x_max":976,"o":"m 80 0 q 80 152 80 78 q 80 320 80 226 l 80 659 q 80 833 80 756 q 80 990 80 910 l 762 990 l 762 762 q 631 762 701 762 q 467 762 561 762 l 242 762 l 360 944 q 360 787 360 864 q 360 613 360 710 l 360 367 q 360 199 360 273 q 360 46 360 124 l 260 228 l 486 228 q 635 228 565 228 q 769 228 705 228 l 769 0 l 80 0 m 294 394 l 294 601 l 469 601 q 621 601 558 601 q 743 601 684 601 l 743 394 q 618 394 681 394 q 469 394 555 394 l 294 394 m 610 1274 q 680 1405 645 1340 q 749 1533 715 1469 l 976 1538 q 907 1449 941 1493 q 840 1361 873 1404 q 775 1276 808 1317 l 610 1274 m 148 1070 q 224 1200 185 1134 q 303 1331 263 1265 l 527 1331 q 457 1242 492 1286 q 390 1155 423 1198 q 323 1070 356 1113 l 148 1070 m 528 1067 q 461 1154 495 1111 q 393 1242 427 1197 q 322 1331 358 1286 l 548 1331 q 625 1200 587 1265 q 701 1070 664 1134 l 528 1067 z "},"Ệ":{"ha":831,"x_min":80,"x_max":769,"o":"m 80 0 q 80 152 80 78 q 80 320 80 226 l 80 659 q 80 833 80 756 q 80 990 80 910 l 762 990 l 762 762 q 631 762 701 762 q 467 762 561 762 l 242 762 l 360 944 q 360 787 360 864 q 360 613 360 710 l 360 367 q 360 199 360 273 q 360 46 360 124 l 260 228 l 486 228 q 635 228 565 228 q 769 228 705 228 l 769 0 l 80 0 m 294 394 l 294 601 l 469 601 q 621 601 558 601 q 743 601 684 601 l 743 394 q 618 394 681 394 q 469 394 555 394 l 294 394 m 425 -336 q 315 -305 356 -336 q 275 -201 275 -273 q 315 -105 275 -139 q 426 -70 356 -70 q 536 -106 496 -70 q 576 -201 576 -142 q 536 -305 576 -273 q 425 -336 496 -336 m 533 1067 q 464 1155 499 1111 q 393 1242 429 1198 l 456 1242 q 386 1156 421 1199 q 318 1070 352 1113 l 131 1070 q 212 1205 171 1137 q 294 1341 253 1272 l 556 1341 q 638 1205 597 1272 q 719 1070 678 1137 l 533 1067 z "},"Ề":{"ha":831,"x_min":80,"x_max":826,"o":"m 80 0 q 80 152 80 78 q 80 320 80 226 l 80 659 q 80 833 80 756 q 80 990 80 910 l 762 990 l 762 762 q 631 762 701 762 q 467 762 561 762 l 242 762 l 360 944 q 360 787 360 864 q 360 613 360 710 l 360 367 q 360 199 360 273 q 360 46 360 124 l 260 228 l 486 228 q 635 228 565 228 q 769 228 705 228 l 769 0 l 80 0 m 294 394 l 294 601 l 469 601 q 621 601 558 601 q 743 601 684 601 l 743 394 q 618 394 681 394 q 469 394 555 394 l 294 394 m 662 1275 q 597 1358 630 1316 q 530 1444 564 1401 q 461 1533 496 1488 l 688 1538 q 756 1408 722 1473 q 826 1276 791 1342 l 662 1275 m 148 1070 q 224 1200 185 1134 q 303 1331 263 1265 l 527 1331 q 457 1242 492 1286 q 390 1155 423 1198 q 323 1070 356 1113 l 148 1070 m 528 1067 q 461 1154 495 1111 q 393 1242 427 1197 q 322 1331 358 1286 l 548 1331 q 625 1200 587 1265 q 701 1070 664 1134 l 528 1067 z "},"Ể":{"ha":831,"x_min":80,"x_max":906,"o":"m 80 0 q 80 152 80 78 q 80 320 80 226 l 80 659 q 80 833 80 756 q 80 990 80 910 l 762 990 l 762 762 q 631 762 701 762 q 467 762 561 762 l 242 762 l 360 944 q 360 787 360 864 q 360 613 360 710 l 360 367 q 360 199 360 273 q 360 46 360 124 l 260 228 l 486 228 q 635 228 565 228 q 769 228 705 228 l 769 0 l 80 0 m 294 394 l 294 601 l 469 601 q 621 601 558 601 q 743 601 684 601 l 743 394 q 618 394 681 394 q 469 394 555 394 l 294 394 m 148 1070 q 224 1200 185 1134 q 303 1331 263 1265 l 527 1331 q 457 1242 492 1286 q 390 1155 423 1198 q 323 1070 356 1113 l 148 1070 m 528 1067 q 461 1154 495 1111 q 393 1242 427 1197 q 322 1331 358 1286 l 548 1331 q 625 1200 587 1265 q 701 1070 664 1134 l 528 1067 m 621 1265 l 621 1332 q 698 1357 665 1338 q 731 1399 731 1375 q 717 1426 731 1417 q 678 1434 702 1434 q 633 1429 656 1434 q 588 1416 610 1424 q 541 1399 565 1408 l 531 1526 q 563 1537 544 1531 q 605 1548 581 1542 q 657 1556 628 1553 q 717 1560 685 1560 q 808 1549 765 1560 q 878 1509 851 1538 q 906 1433 906 1481 q 885 1361 906 1391 q 829 1312 865 1331 q 747 1285 793 1293 l 747 1265 l 621 1265 z "},"Ễ":{"ha":831,"x_min":80,"x_max":769,"o":"m 80 0 q 80 152 80 78 q 80 320 80 226 l 80 659 q 80 833 80 756 q 80 990 80 910 l 762 990 l 762 762 q 631 762 701 762 q 467 762 561 762 l 242 762 l 360 944 q 360 787 360 864 q 360 613 360 710 l 360 367 q 360 199 360 273 q 360 46 360 124 l 260 228 l 486 228 q 635 228 565 228 q 769 228 705 228 l 769 0 l 80 0 m 294 394 l 294 601 l 469 601 q 621 601 558 601 q 743 601 684 601 l 743 394 q 618 394 681 394 q 469 394 555 394 l 294 394 m 148 1070 q 225 1200 185 1134 q 303 1331 264 1265 l 527 1331 q 458 1242 492 1286 q 390 1155 423 1198 q 323 1070 356 1113 l 148 1070 m 528 1067 q 461 1154 496 1111 q 392 1242 427 1197 q 322 1331 358 1286 l 548 1331 q 625 1200 587 1265 q 701 1070 664 1134 l 528 1067 m 542 1355 q 469 1369 501 1355 q 414 1400 438 1383 q 372 1432 390 1418 q 337 1446 353 1446 q 299 1424 311 1446 q 281 1380 286 1403 l 162 1380 q 204 1545 162 1488 q 316 1603 246 1603 q 386 1590 356 1603 q 439 1558 416 1576 q 481 1526 463 1540 q 517 1513 500 1513 q 553 1534 542 1513 q 568 1578 565 1556 l 688 1578 q 648 1413 688 1471 q 542 1355 608 1355 z "},"Ȅ":{"ha":831,"x_min":-5,"x_max":769,"o":"m 80 0 q 80 152 80 78 q 80 320 80 226 l 80 659 q 80 833 80 756 q 80 990 80 910 l 762 990 l 762 762 q 631 762 701 762 q 467 762 561 762 l 242 762 l 360 944 q 360 787 360 864 q 360 613 360 710 l 360 367 q 360 199 360 273 q 360 46 360 124 l 260 228 l 486 228 q 635 228 565 228 q 769 228 705 228 l 769 0 l 80 0 m 294 394 l 294 601 l 469 601 q 621 601 558 601 q 743 601 684 601 l 743 394 q 618 394 681 394 q 469 394 555 394 l 294 394 m 216 1069 q 144 1156 181 1112 q 70 1246 108 1201 q -5 1338 33 1292 l 235 1344 q 311 1207 274 1275 q 388 1072 349 1140 l 216 1069 m 526 1069 q 466 1156 497 1112 q 404 1246 435 1201 q 340 1338 373 1292 l 573 1344 q 632 1208 603 1275 q 692 1072 662 1141 l 526 1069 z "},"Ë":{"ha":831,"x_min":80,"x_max":769,"o":"m 80 0 q 80 152 80 78 q 80 320 80 226 l 80 659 q 80 833 80 756 q 80 990 80 910 l 762 990 l 762 762 q 631 762 701 762 q 467 762 561 762 l 242 762 l 360 944 q 360 787 360 864 q 360 613 360 710 l 360 367 q 360 199 360 273 q 360 46 360 124 l 260 228 l 486 228 q 635 228 565 228 q 769 228 705 228 l 769 0 l 80 0 m 294 394 l 294 601 l 469 601 q 621 601 558 601 q 743 601 684 601 l 743 394 q 618 394 681 394 q 469 394 555 394 l 294 394 m 589 1063 q 494 1094 528 1063 q 460 1191 460 1126 q 495 1282 460 1247 q 590 1316 529 1316 q 684 1280 650 1316 q 718 1191 718 1244 q 684 1094 718 1126 q 589 1063 650 1063 m 261 1063 q 167 1094 201 1063 q 133 1191 133 1126 q 167 1282 133 1247 q 263 1316 201 1316 q 356 1280 322 1316 q 390 1191 390 1244 q 356 1094 390 1126 q 261 1063 322 1063 z "},"Ė":{"ha":831,"x_min":80,"x_max":769,"o":"m 80 0 q 80 152 80 78 q 80 320 80 226 l 80 659 q 80 833 80 756 q 80 990 80 910 l 762 990 l 762 762 q 631 762 701 762 q 467 762 561 762 l 242 762 l 360 944 q 360 787 360 864 q 360 613 360 710 l 360 367 q 360 199 360 273 q 360 46 360 124 l 260 228 l 486 228 q 635 228 565 228 q 769 228 705 228 l 769 0 l 80 0 m 294 394 l 294 601 l 469 601 q 621 601 558 601 q 743 601 684 601 l 743 394 q 618 394 681 394 q 469 394 555 394 l 294 394 m 424 1063 q 315 1094 356 1063 q 274 1197 274 1126 q 315 1294 274 1260 q 426 1328 356 1328 q 536 1293 496 1328 q 576 1197 576 1258 q 535 1094 576 1126 q 424 1063 495 1063 z "},"Ẹ":{"ha":831,"x_min":80,"x_max":769,"o":"m 80 0 q 80 152 80 78 q 80 320 80 226 l 80 659 q 80 833 80 756 q 80 990 80 910 l 762 990 l 762 762 q 631 762 701 762 q 467 762 561 762 l 242 762 l 360 944 q 360 787 360 864 q 360 613 360 710 l 360 367 q 360 199 360 273 q 360 46 360 124 l 260 228 l 486 228 q 635 228 565 228 q 769 228 705 228 l 769 0 l 80 0 m 294 394 l 294 601 l 469 601 q 621 601 558 601 q 743 601 684 601 l 743 394 q 618 394 681 394 q 469 394 555 394 l 294 394 m 425 -336 q 315 -305 356 -336 q 275 -201 275 -273 q 315 -105 275 -139 q 426 -70 356 -70 q 536 -106 496 -70 q 576 -201 576 -142 q 536 -305 576 -273 q 425 -336 496 -336 z "},"È":{"ha":831,"x_min":80,"x_max":769,"o":"m 80 0 q 80 152 80 78 q 80 320 80 226 l 80 659 q 80 833 80 756 q 80 990 80 910 l 762 990 l 762 762 q 631 762 701 762 q 467 762 561 762 l 242 762 l 360 944 q 360 787 360 864 q 360 613 360 710 l 360 367 q 360 199 360 273 q 360 46 360 124 l 260 228 l 486 228 q 635 228 565 228 q 769 228 705 228 l 769 0 l 80 0 m 294 394 l 294 601 l 469 601 q 621 601 558 601 q 743 601 684 601 l 743 394 q 618 394 681 394 q 469 394 555 394 l 294 394 m 390 1069 q 313 1157 352 1113 q 233 1246 273 1201 q 151 1338 193 1292 l 414 1344 q 496 1207 455 1275 q 578 1072 537 1140 l 390 1069 z "},"Ẻ":{"ha":831,"x_min":80,"x_max":769,"o":"m 80 0 q 80 152 80 78 q 80 320 80 226 l 80 659 q 80 833 80 756 q 80 990 80 910 l 762 990 l 762 762 q 631 762 701 762 q 467 762 561 762 l 242 762 l 360 944 q 360 787 360 864 q 360 613 360 710 l 360 367 q 360 199 360 273 q 360 46 360 124 l 260 228 l 486 228 q 635 228 565 228 q 769 228 705 228 l 769 0 l 80 0 m 294 394 l 294 601 l 469 601 q 621 601 558 601 q 743 601 684 601 l 743 394 q 618 394 681 394 q 469 394 555 394 l 294 394 m 328 1070 l 328 1145 q 414 1165 376 1147 q 452 1210 452 1183 q 436 1239 452 1230 q 394 1248 420 1248 q 342 1243 368 1248 q 291 1229 317 1238 q 238 1209 265 1220 l 226 1354 q 262 1367 241 1360 q 311 1379 283 1374 q 370 1389 338 1385 q 438 1392 402 1392 q 541 1380 492 1392 q 620 1335 590 1367 q 651 1249 651 1304 q 629 1168 651 1201 q 566 1116 606 1135 q 472 1093 525 1097 l 472 1070 l 328 1070 z "},"Ȇ":{"ha":831,"x_min":80,"x_max":769,"o":"m 80 0 q 80 152 80 78 q 80 320 80 226 l 80 659 q 80 833 80 756 q 80 990 80 910 l 762 990 l 762 762 q 631 762 701 762 q 467 762 561 762 l 242 762 l 360 944 q 360 787 360 864 q 360 613 360 710 l 360 367 q 360 199 360 273 q 360 46 360 124 l 260 228 l 486 228 q 635 228 565 228 q 769 228 705 228 l 769 0 l 80 0 m 294 394 l 294 601 l 469 601 q 621 601 558 601 q 743 601 684 601 l 743 394 q 618 394 681 394 q 469 394 555 394 l 294 394 m 526 1058 q 502 1158 526 1122 q 425 1194 478 1194 q 346 1159 370 1194 q 322 1065 322 1124 l 148 1065 q 178 1234 148 1169 q 270 1331 208 1300 q 425 1363 331 1363 q 631 1291 563 1363 q 700 1065 700 1220 l 526 1058 z "},"Ē":{"ha":831,"x_min":80,"x_max":769,"o":"m 80 0 q 80 152 80 78 q 80 320 80 226 l 80 659 q 80 833 80 756 q 80 990 80 910 l 762 990 l 762 762 q 631 762 701 762 q 467 762 561 762 l 242 762 l 360 944 q 360 787 360 864 q 360 613 360 710 l 360 367 q 360 199 360 273 q 360 46 360 124 l 260 228 l 486 228 q 635 228 565 228 q 769 228 705 228 l 769 0 l 80 0 m 294 394 l 294 601 l 469 601 q 621 601 558 601 q 743 601 684 601 l 743 394 q 618 394 681 394 q 469 394 555 394 l 294 394 m 177 1097 l 177 1285 q 295 1285 233 1285 q 425 1285 357 1285 q 555 1285 493 1285 q 673 1285 617 1285 l 673 1097 q 555 1097 617 1097 q 425 1097 493 1097 q 295 1097 357 1097 q 177 1097 233 1097 z "},"Ḗ":{"ha":831,"x_min":80,"x_max":769,"o":"m 80 0 q 80 152 80 78 q 80 320 80 226 l 80 659 q 80 833 80 756 q 80 990 80 910 l 762 990 l 762 762 q 631 762 701 762 q 467 762 561 762 l 242 762 l 360 944 q 360 787 360 864 q 360 613 360 710 l 360 367 q 360 199 360 273 q 360 46 360 124 l 260 228 l 486 228 q 635 228 565 228 q 769 228 705 228 l 769 0 l 80 0 m 294 394 l 294 601 l 469 601 q 621 601 558 601 q 743 601 684 601 l 743 394 q 618 394 681 394 q 469 394 555 394 l 294 394 m 177 1097 l 177 1285 q 295 1285 233 1285 q 425 1285 357 1285 q 555 1285 493 1285 q 673 1285 617 1285 l 673 1097 q 555 1097 617 1097 q 425 1097 493 1097 q 295 1097 357 1097 q 177 1097 233 1097 m 272 1354 q 355 1489 314 1422 q 435 1624 395 1556 l 699 1629 q 617 1536 658 1582 q 537 1445 576 1490 q 460 1357 498 1400 l 272 1354 z "},"Ḕ":{"ha":831,"x_min":80,"x_max":769,"o":"m 80 0 q 80 152 80 78 q 80 320 80 226 l 80 659 q 80 833 80 756 q 80 990 80 910 l 762 990 l 762 762 q 631 762 701 762 q 467 762 561 762 l 242 762 l 360 944 q 360 787 360 864 q 360 613 360 710 l 360 367 q 360 199 360 273 q 360 46 360 124 l 260 228 l 486 228 q 635 228 565 228 q 769 228 705 228 l 769 0 l 80 0 m 294 394 l 294 601 l 469 601 q 621 601 558 601 q 743 601 684 601 l 743 394 q 618 394 681 394 q 469 394 555 394 l 294 394 m 177 1097 l 177 1285 q 295 1285 233 1285 q 425 1285 357 1285 q 555 1285 493 1285 q 673 1285 617 1285 l 673 1097 q 555 1097 617 1097 q 425 1097 493 1097 q 295 1097 357 1097 q 177 1097 233 1097 m 390 1354 q 313 1442 352 1398 q 233 1532 273 1486 q 151 1624 193 1577 l 414 1629 q 496 1493 455 1560 q 578 1357 537 1425 l 390 1354 z "},"Ę":{"ha":831,"x_min":80,"x_max":774,"o":"m 80 0 q 80 152 80 78 q 80 320 80 226 l 80 659 q 80 833 80 756 q 80 990 80 910 l 762 990 l 762 762 q 631 762 701 762 q 467 762 561 762 l 242 762 l 360 944 q 360 787 360 864 q 360 613 360 710 l 360 367 q 360 199 360 273 q 360 46 360 124 l 260 228 l 486 228 q 635 228 565 228 q 769 228 705 228 l 769 0 l 80 0 m 294 394 l 294 601 l 469 601 q 621 601 558 601 q 743 601 684 601 l 743 394 q 618 394 681 394 q 469 394 555 394 l 294 394 m 674 -310 q 554 -292 599 -310 q 488 -245 508 -275 q 467 -177 467 -215 q 483 -107 467 -138 q 527 -52 500 -76 q 585 -14 554 -29 l 585 35 l 717 51 l 769 0 q 685 -48 717 -21 q 653 -108 653 -75 q 670 -144 653 -132 q 719 -156 688 -156 q 752 -153 738 -156 q 774 -147 766 -149 l 774 -296 q 732 -306 758 -302 q 674 -310 705 -310 z "},"Ẽ":{"ha":831,"x_min":80,"x_max":769,"o":"m 80 0 q 80 152 80 78 q 80 320 80 226 l 80 659 q 80 833 80 756 q 80 990 80 910 l 762 990 l 762 762 q 631 762 701 762 q 467 762 561 762 l 242 762 l 360 944 q 360 787 360 864 q 360 613 360 710 l 360 367 q 360 199 360 273 q 360 46 360 124 l 260 228 l 486 228 q 635 228 565 228 q 769 228 705 228 l 769 0 l 80 0 m 294 394 l 294 601 l 469 601 q 621 601 558 601 q 743 601 684 601 l 743 394 q 618 394 681 394 q 469 394 555 394 l 294 394 m 551 1053 q 473 1069 507 1053 q 414 1104 440 1084 q 368 1140 388 1124 q 332 1155 349 1155 q 290 1131 304 1155 q 272 1081 276 1106 l 142 1081 q 187 1268 142 1203 q 308 1333 233 1333 q 384 1318 351 1333 q 441 1283 416 1303 q 485 1248 465 1263 q 524 1233 506 1233 q 563 1257 551 1233 q 578 1306 574 1281 l 708 1306 q 665 1119 708 1185 q 551 1053 622 1053 z "},"F":{"ha":804,"x_min":81,"x_max":753,"o":"m 81 0 q 81 152 81 78 q 81 320 81 226 l 81 658 q 81 833 81 756 q 81 990 81 910 l 753 990 l 753 753 q 623 753 693 753 q 459 753 553 753 l 247 753 l 360 944 q 360 787 360 864 q 360 613 360 710 l 360 320 q 360 152 360 226 q 360 0 360 78 l 81 0 m 288 367 l 288 593 l 460 593 q 612 593 549 593 q 734 593 675 593 l 734 367 q 609 367 672 367 q 460 367 546 367 l 288 367 z "},"G":{"ha":1010,"x_min":42,"x_max":938,"o":"m 581 -19 q 354 18 453 -19 q 185 124 254 56 q 79 286 115 192 q 42 494 42 381 q 105 763 42 647 q 285 946 167 880 q 572 1012 403 1012 q 674 1006 624 1012 q 769 989 724 999 q 853 965 814 978 q 923 938 892 951 l 903 674 q 789 730 844 708 q 685 761 734 751 q 596 771 637 771 q 496 754 543 771 q 414 702 449 737 q 359 615 378 667 q 339 493 339 563 q 355 383 339 435 q 405 292 372 331 q 488 230 438 252 q 607 207 539 207 q 691 211 652 207 q 764 224 729 215 q 834 247 799 233 q 903 281 868 261 l 938 30 q 876 12 915 20 q 790 -4 838 3 q 688 -15 742 -11 q 581 -19 635 -19 m 670 24 q 670 164 670 103 q 670 285 670 225 q 670 410 670 356 q 670 521 670 465 l 938 521 q 938 410 938 465 q 938 285 938 356 q 938 165 938 225 q 938 30 938 106 l 670 24 z "},"Ğ":{"ha":1010,"x_min":42,"x_max":938,"o":"m 581 -19 q 354 18 453 -19 q 185 124 254 56 q 79 286 115 192 q 42 494 42 381 q 105 763 42 647 q 285 946 167 880 q 572 1012 403 1012 q 674 1006 624 1012 q 769 989 724 999 q 853 965 814 978 q 923 938 892 951 l 903 674 q 789 730 844 708 q 685 761 734 751 q 596 771 637 771 q 496 754 543 771 q 414 702 449 737 q 359 615 378 667 q 339 493 339 563 q 355 383 339 435 q 405 292 372 331 q 488 230 438 252 q 607 207 539 207 q 691 211 652 207 q 764 224 729 215 q 834 247 799 233 q 903 281 868 261 l 938 30 q 876 12 915 20 q 790 -4 838 3 q 688 -15 742 -11 q 581 -19 635 -19 m 670 24 q 670 164 670 103 q 670 285 670 225 q 670 410 670 356 q 670 521 670 465 l 938 521 q 938 410 938 465 q 938 285 938 356 q 938 165 938 225 q 938 30 938 106 l 670 24 m 547 1052 q 340 1123 408 1052 q 271 1349 271 1194 l 445 1357 q 469 1257 445 1293 q 547 1221 493 1221 q 625 1256 601 1221 q 649 1349 649 1291 l 823 1349 q 793 1180 823 1246 q 701 1083 763 1115 q 547 1052 640 1052 z "},"Ǧ":{"ha":1010,"x_min":42,"x_max":938,"o":"m 581 -19 q 354 18 453 -19 q 185 124 254 56 q 79 286 115 192 q 42 494 42 381 q 105 763 42 647 q 285 946 167 880 q 572 1012 403 1012 q 674 1006 624 1012 q 769 989 724 999 q 853 965 814 978 q 923 938 892 951 l 903 674 q 789 730 844 708 q 685 761 734 751 q 596 771 637 771 q 496 754 543 771 q 414 702 449 737 q 359 615 378 667 q 339 493 339 563 q 355 383 339 435 q 405 292 372 331 q 488 230 438 252 q 607 207 539 207 q 691 211 652 207 q 764 224 729 215 q 834 247 799 233 q 903 281 868 261 l 938 30 q 876 12 915 20 q 790 -4 838 3 q 688 -15 742 -11 q 581 -19 635 -19 m 670 24 q 670 164 670 103 q 670 285 670 225 q 670 410 670 356 q 670 521 670 465 l 938 521 q 938 410 938 465 q 938 285 938 356 q 938 165 938 225 q 938 30 938 106 l 670 24 m 416 1068 q 334 1205 375 1137 q 253 1339 293 1273 l 438 1342 q 508 1255 473 1299 q 578 1167 543 1212 l 516 1167 q 585 1254 551 1211 q 653 1339 620 1297 l 841 1339 q 760 1205 801 1273 q 678 1068 719 1137 l 416 1068 z "},"Ĝ":{"ha":1010,"x_min":42,"x_max":938,"o":"m 581 -19 q 354 18 453 -19 q 185 124 254 56 q 79 286 115 192 q 42 494 42 381 q 105 763 42 647 q 285 946 167 880 q 572 1012 403 1012 q 674 1006 624 1012 q 769 989 724 999 q 853 965 814 978 q 923 938 892 951 l 903 674 q 789 730 844 708 q 685 761 734 751 q 596 771 637 771 q 496 754 543 771 q 414 702 449 737 q 359 615 378 667 q 339 493 339 563 q 355 383 339 435 q 405 292 372 331 q 488 230 438 252 q 607 207 539 207 q 691 211 652 207 q 764 224 729 215 q 834 247 799 233 q 903 281 868 261 l 938 30 q 876 12 915 20 q 790 -4 838 3 q 688 -15 742 -11 q 581 -19 635 -19 m 670 24 q 670 164 670 103 q 670 285 670 225 q 670 410 670 356 q 670 521 670 465 l 938 521 q 938 410 938 465 q 938 285 938 356 q 938 165 938 225 q 938 30 938 106 l 670 24 m 656 1067 q 587 1155 622 1111 q 516 1242 552 1198 l 578 1242 q 509 1156 544 1199 q 441 1070 475 1113 l 253 1070 q 335 1205 294 1137 q 417 1341 376 1272 l 678 1341 q 760 1205 719 1272 q 842 1070 801 1137 l 656 1067 z "},"Ģ":{"ha":1010,"x_min":42,"x_max":938,"o":"m 581 -19 q 354 18 453 -19 q 185 124 254 56 q 79 286 115 192 q 42 494 42 381 q 105 763 42 647 q 285 946 167 880 q 572 1012 403 1012 q 674 1006 624 1012 q 769 989 724 999 q 853 965 814 978 q 923 938 892 951 l 903 674 q 789 730 844 708 q 685 761 734 751 q 596 771 637 771 q 496 754 543 771 q 414 702 449 737 q 359 615 378 667 q 339 493 339 563 q 355 383 339 435 q 405 292 372 331 q 488 230 438 252 q 607 207 539 207 q 691 211 652 207 q 764 224 729 215 q 834 247 799 233 q 903 281 868 261 l 938 30 q 876 12 915 20 q 790 -4 838 3 q 688 -15 742 -11 q 581 -19 635 -19 m 670 24 q 670 164 670 103 q 670 285 670 225 q 670 410 670 356 q 670 521 670 465 l 938 521 q 938 410 938 465 q 938 285 938 356 q 938 165 938 225 q 938 30 938 106 l 670 24 m 408 -404 q 436 -315 430 -360 q 442 -219 442 -269 q 442 -149 442 -184 q 442 -81 442 -115 l 556 -70 q 651 -102 619 -74 q 684 -176 684 -131 q 664 -266 684 -224 q 605 -343 643 -308 q 511 -401 566 -377 l 408 -404 z "},"Ġ":{"ha":1010,"x_min":42,"x_max":938,"o":"m 581 -19 q 354 18 453 -19 q 185 124 254 56 q 79 286 115 192 q 42 494 42 381 q 105 763 42 647 q 285 946 167 880 q 572 1012 403 1012 q 674 1006 624 1012 q 769 989 724 999 q 853 965 814 978 q 923 938 892 951 l 903 674 q 789 730 844 708 q 685 761 734 751 q 596 771 637 771 q 496 754 543 771 q 414 702 449 737 q 359 615 378 667 q 339 493 339 563 q 355 383 339 435 q 405 292 372 331 q 488 230 438 252 q 607 207 539 207 q 691 211 652 207 q 764 224 729 215 q 834 247 799 233 q 903 281 868 261 l 938 30 q 876 12 915 20 q 790 -4 838 3 q 688 -15 742 -11 q 581 -19 635 -19 m 670 24 q 670 164 670 103 q 670 285 670 225 q 670 410 670 356 q 670 521 670 465 l 938 521 q 938 410 938 465 q 938 285 938 356 q 938 165 938 225 q 938 30 938 106 l 670 24 m 547 1063 q 437 1094 478 1063 q 397 1197 397 1126 q 437 1294 397 1260 q 548 1328 478 1328 q 658 1293 618 1328 q 698 1197 698 1258 q 658 1094 698 1126 q 547 1063 617 1063 z "},"Ḡ":{"ha":1010,"x_min":42,"x_max":938,"o":"m 581 -19 q 354 18 453 -19 q 185 124 254 56 q 79 286 115 192 q 42 494 42 381 q 105 763 42 647 q 285 946 167 880 q 572 1012 403 1012 q 674 1006 624 1012 q 769 989 724 999 q 853 965 814 978 q 923 938 892 951 l 903 674 q 789 730 844 708 q 685 761 734 751 q 596 771 637 771 q 496 754 543 771 q 414 702 449 737 q 359 615 378 667 q 339 493 339 563 q 355 383 339 435 q 405 292 372 331 q 488 230 438 252 q 607 207 539 207 q 691 211 652 207 q 764 224 729 215 q 834 247 799 233 q 903 281 868 261 l 938 30 q 876 12 915 20 q 790 -4 838 3 q 688 -15 742 -11 q 581 -19 635 -19 m 670 24 q 670 164 670 103 q 670 285 670 225 q 670 410 670 356 q 670 521 670 465 l 938 521 q 938 410 938 465 q 938 285 938 356 q 938 165 938 225 q 938 30 938 106 l 670 24 m 300 1097 l 300 1285 q 418 1285 356 1285 q 548 1285 480 1285 q 678 1285 616 1285 q 796 1285 740 1285 l 796 1097 q 678 1097 740 1097 q 548 1097 616 1097 q 418 1097 480 1097 q 300 1097 356 1097 z "},"H":{"ha":1042,"x_min":81,"x_max":963,"o":"m 676 0 q 676 152 676 78 q 676 320 676 226 l 676 658 q 676 833 676 756 q 676 990 676 910 l 963 990 q 963 833 963 910 q 963 658 963 756 l 963 320 q 963 152 963 226 q 963 0 963 78 l 676 0 m 81 0 q 81 152 81 78 q 81 320 81 226 l 81 658 q 81 833 81 756 q 81 990 81 910 l 367 990 q 367 833 367 910 q 367 658 367 756 l 367 320 q 367 152 367 226 q 367 0 367 78 l 81 0 m 294 379 l 294 616 l 753 616 l 753 379 l 294 379 z "},"Ħ":{"ha":1042,"x_min":-19,"x_max":1063,"o":"m 676 0 q 676 152 676 78 q 676 320 676 226 l 676 658 q 676 833 676 756 q 676 990 676 910 l 963 990 q 963 885 963 936 q 963 778 963 833 q 963 658 963 724 l 963 320 q 963 152 963 226 q 963 0 963 78 l 676 0 m 81 0 q 81 152 81 78 q 81 320 81 226 l 81 658 q 81 778 81 724 q 81 885 81 833 q 81 990 81 936 l 367 990 q 367 833 367 910 q 367 658 367 756 l 367 320 q 367 152 367 226 q 367 0 367 78 l 81 0 m 294 351 l 294 576 l 753 576 l 753 351 l 294 351 m -19 694 l -19 874 q 130 874 58 874 q 266 874 203 874 l 778 874 q 914 874 842 874 q 1063 874 986 874 l 1063 694 q 914 694 986 694 q 778 694 842 694 l 266 694 q 130 694 203 694 q -19 694 58 694 z "},"Ḫ":{"ha":1042,"x_min":81,"x_max":963,"o":"m 676 0 q 676 152 676 78 q 676 320 676 226 l 676 658 q 676 833 676 756 q 676 990 676 910 l 963 990 q 963 833 963 910 q 963 658 963 756 l 963 320 q 963 152 963 226 q 963 0 963 78 l 676 0 m 81 0 q 81 152 81 78 q 81 320 81 226 l 81 658 q 81 833 81 756 q 81 990 81 910 l 367 990 q 367 833 367 910 q 367 658 367 756 l 367 320 q 367 152 367 226 q 367 0 367 78 l 81 0 m 294 379 l 294 616 l 753 616 l 753 379 l 294 379 m 521 -363 q 314 -292 383 -363 q 245 -67 245 -221 l 419 -58 q 443 -158 419 -122 q 521 -194 467 -194 q 600 -159 576 -194 q 624 -67 624 -124 l 798 -67 q 767 -235 798 -169 q 675 -332 737 -301 q 521 -363 614 -363 z "},"Ĥ":{"ha":1042,"x_min":81,"x_max":963,"o":"m 676 0 q 676 152 676 78 q 676 320 676 226 l 676 658 q 676 833 676 756 q 676 990 676 910 l 963 990 q 963 833 963 910 q 963 658 963 756 l 963 320 q 963 152 963 226 q 963 0 963 78 l 676 0 m 81 0 q 81 152 81 78 q 81 320 81 226 l 81 658 q 81 833 81 756 q 81 990 81 910 l 367 990 q 367 833 367 910 q 367 658 367 756 l 367 320 q 367 152 367 226 q 367 0 367 78 l 81 0 m 294 379 l 294 616 l 753 616 l 753 379 l 294 379 m 631 1067 q 561 1155 596 1111 q 490 1242 526 1198 l 553 1242 q 484 1156 518 1199 q 415 1070 449 1113 l 228 1070 q 309 1205 268 1137 q 391 1341 350 1272 l 653 1341 q 735 1205 694 1272 q 816 1070 776 1137 l 631 1067 z "},"Ḥ":{"ha":1042,"x_min":81,"x_max":963,"o":"m 676 0 q 676 152 676 78 q 676 320 676 226 l 676 658 q 676 833 676 756 q 676 990 676 910 l 963 990 q 963 833 963 910 q 963 658 963 756 l 963 320 q 963 152 963 226 q 963 0 963 78 l 676 0 m 81 0 q 81 152 81 78 q 81 320 81 226 l 81 658 q 81 833 81 756 q 81 990 81 910 l 367 990 q 367 833 367 910 q 367 658 367 756 l 367 320 q 367 152 367 226 q 367 0 367 78 l 81 0 m 294 379 l 294 616 l 753 616 l 753 379 l 294 379 m 522 -336 q 413 -305 453 -336 q 372 -201 372 -273 q 413 -105 372 -139 q 524 -70 453 -70 q 633 -106 593 -70 q 674 -201 674 -142 q 633 -305 674 -273 q 522 -336 593 -336 z "},"I":{"ha":465,"x_min":86,"x_max":378,"o":"m 86 0 q 86 152 86 78 q 86 320 86 226 l 86 658 q 86 833 86 756 q 86 990 86 910 l 378 990 q 378 833 378 910 q 378 658 378 756 l 378 320 q 378 152 378 226 q 378 0 378 78 l 86 0 z "},"Í":{"ha":465,"x_min":74,"x_max":501,"o":"m 86 0 q 86 152 86 78 q 86 320 86 226 l 86 658 q 86 833 86 756 q 86 990 86 910 l 378 990 q 378 833 378 910 q 378 658 378 756 l 378 320 q 378 152 378 226 q 378 0 378 78 l 86 0 m 74 1069 q 157 1204 116 1137 q 238 1338 197 1271 l 501 1344 q 419 1250 460 1297 q 339 1159 378 1204 q 262 1072 300 1115 l 74 1069 z "},"Ĭ":{"ha":465,"x_min":-50,"x_max":502,"o":"m 86 0 q 86 152 86 78 q 86 320 86 226 l 86 658 q 86 833 86 756 q 86 990 86 910 l 378 990 q 378 833 378 910 q 378 658 378 756 l 378 320 q 378 152 378 226 q 378 0 378 78 l 86 0 m 226 1052 q 19 1123 88 1052 q -50 1349 -50 1194 l 124 1357 q 148 1257 124 1293 q 226 1221 172 1221 q 304 1256 280 1221 q 328 1349 328 1291 l 502 1349 q 472 1180 502 1246 q 380 1083 442 1115 q 226 1052 319 1052 z "},"Î":{"ha":465,"x_min":-67,"x_max":521,"o":"m 86 0 q 86 152 86 78 q 86 320 86 226 l 86 658 q 86 833 86 756 q 86 990 86 910 l 378 990 q 378 833 378 910 q 378 658 378 756 l 378 320 q 378 152 378 226 q 378 0 378 78 l 86 0 m 335 1067 q 266 1155 301 1111 q 195 1242 231 1198 l 258 1242 q 189 1156 223 1199 q 120 1070 154 1113 l -67 1070 q 14 1205 -27 1137 q 96 1341 55 1272 l 358 1341 q 440 1205 399 1272 q 521 1070 481 1137 l 335 1067 z "},"Ȉ":{"ha":465,"x_min":-203,"x_max":494,"o":"m 86 0 q 86 152 86 78 q 86 320 86 226 l 86 658 q 86 833 86 756 q 86 990 86 910 l 378 990 q 378 833 378 910 q 378 658 378 756 l 378 320 q 378 152 378 226 q 378 0 378 78 l 86 0 m 18 1069 q -54 1156 -17 1112 q -127 1246 -90 1201 q -203 1338 -165 1292 l 37 1344 q 114 1207 76 1275 q 190 1072 151 1140 l 18 1069 m 328 1069 q 268 1156 299 1112 q 206 1246 237 1201 q 142 1338 175 1292 l 375 1344 q 434 1208 405 1275 q 494 1072 464 1141 l 328 1069 z "},"Ï":{"ha":465,"x_min":-65,"x_max":520,"o":"m 86 0 q 86 152 86 78 q 86 320 86 226 l 86 658 q 86 833 86 756 q 86 990 86 910 l 378 990 q 378 833 378 910 q 378 658 378 756 l 378 320 q 378 152 378 226 q 378 0 378 78 l 86 0 m 391 1063 q 297 1094 331 1063 q 263 1191 263 1126 q 297 1282 263 1247 q 392 1316 331 1316 q 486 1280 452 1316 q 520 1191 520 1244 q 486 1094 520 1126 q 391 1063 452 1063 m 63 1063 q -31 1094 3 1063 q -65 1191 -65 1126 q -31 1282 -65 1247 q 65 1316 3 1316 q 158 1280 124 1316 q 192 1191 192 1244 q 158 1094 192 1126 q 63 1063 124 1063 z "},"Ḯ":{"ha":465,"x_min":-65,"x_max":520,"o":"m 86 0 q 86 152 86 78 q 86 320 86 226 l 86 658 q 86 833 86 756 q 86 990 86 910 l 378 990 q 378 833 378 910 q 378 658 378 756 l 378 320 q 378 152 378 226 q 378 0 378 78 l 86 0 m 391 1063 q 297 1094 331 1063 q 263 1191 263 1126 q 297 1282 263 1247 q 392 1316 331 1316 q 486 1280 452 1316 q 520 1191 520 1244 q 486 1094 520 1126 q 391 1063 452 1063 m 63 1063 q -31 1094 3 1063 q -65 1191 -65 1126 q -31 1282 -65 1247 q 65 1316 3 1316 q 158 1280 124 1316 q 192 1191 192 1244 q 158 1094 192 1126 q 63 1063 124 1063 m 73 1348 q 155 1483 115 1416 q 236 1617 196 1550 l 500 1623 q 418 1530 458 1576 q 338 1439 377 1483 q 260 1351 299 1394 l 73 1348 z "},"İ":{"ha":465,"x_min":76,"x_max":378,"o":"m 86 0 q 86 152 86 78 q 86 320 86 226 l 86 658 q 86 833 86 756 q 86 990 86 910 l 378 990 q 378 833 378 910 q 378 658 378 756 l 378 320 q 378 152 378 226 q 378 0 378 78 l 86 0 m 226 1063 q 116 1094 157 1063 q 76 1197 76 1126 q 116 1294 76 1260 q 227 1328 157 1328 q 337 1293 297 1328 q 377 1197 377 1258 q 337 1094 377 1126 q 226 1063 297 1063 z "},"Ị":{"ha":465,"x_min":77,"x_max":378,"o":"m 86 0 q 86 152 86 78 q 86 320 86 226 l 86 658 q 86 833 86 756 q 86 990 86 910 l 378 990 q 378 833 378 910 q 378 658 378 756 l 378 320 q 378 152 378 226 q 378 0 378 78 l 86 0 m 227 -336 q 117 -305 158 -336 q 77 -201 77 -273 q 117 -105 77 -139 q 228 -70 158 -70 q 338 -106 298 -70 q 378 -201 378 -142 q 338 -305 378 -273 q 227 -336 298 -336 z "},"Ì":{"ha":465,"x_min":-47,"x_max":380,"o":"m 86 0 q 86 152 86 78 q 86 320 86 226 l 86 658 q 86 833 86 756 q 86 990 86 910 l 378 990 q 378 833 378 910 q 378 658 378 756 l 378 320 q 378 152 378 226 q 378 0 378 78 l 86 0 m 192 1069 q 115 1157 154 1113 q 35 1246 75 1201 q -47 1338 -5 1292 l 216 1344 q 298 1207 257 1275 q 380 1072 339 1140 l 192 1069 z "},"Ỉ":{"ha":465,"x_min":28,"x_max":453,"o":"m 86 0 q 86 152 86 78 q 86 320 86 226 l 86 658 q 86 833 86 756 q 86 990 86 910 l 378 990 q 378 833 378 910 q 378 658 378 756 l 378 320 q 378 152 378 226 q 378 0 378 78 l 86 0 m 130 1070 l 130 1145 q 216 1165 178 1147 q 254 1210 254 1183 q 238 1239 254 1230 q 196 1248 222 1248 q 144 1243 170 1248 q 93 1229 119 1238 q 40 1209 67 1220 l 28 1354 q 64 1367 43 1360 q 113 1379 85 1374 q 172 1389 140 1385 q 240 1392 204 1392 q 343 1380 294 1392 q 423 1335 392 1367 q 453 1249 453 1304 q 431 1168 453 1201 q 368 1116 408 1135 q 274 1093 327 1097 l 274 1070 l 130 1070 z "},"Ȋ":{"ha":465,"x_min":-50,"x_max":502,"o":"m 86 0 q 86 152 86 78 q 86 320 86 226 l 86 658 q 86 833 86 756 q 86 990 86 910 l 378 990 q 378 833 378 910 q 378 658 378 756 l 378 320 q 378 152 378 226 q 378 0 378 78 l 86 0 m 328 1058 q 305 1158 328 1122 q 227 1194 281 1194 q 148 1159 172 1194 q 124 1065 124 1124 l -50 1065 q -20 1234 -50 1169 q 72 1331 10 1300 q 227 1363 133 1363 q 433 1291 365 1363 q 502 1065 502 1220 l 328 1058 z "},"Ī":{"ha":465,"x_min":-21,"x_max":475,"o":"m 86 0 q 86 152 86 78 q 86 320 86 226 l 86 658 q 86 833 86 756 q 86 990 86 910 l 378 990 q 378 833 378 910 q 378 658 378 756 l 378 320 q 378 152 378 226 q 378 0 378 78 l 86 0 m -21 1097 l -21 1285 q 97 1285 35 1285 q 227 1285 159 1285 q 357 1285 295 1285 q 475 1285 419 1285 l 475 1097 q 357 1097 419 1097 q 227 1097 295 1097 q 97 1097 159 1097 q -21 1097 35 1097 z "},"Į":{"ha":465,"x_min":76,"x_max":383,"o":"m 86 0 q 86 152 86 78 q 86 320 86 226 l 86 658 q 86 833 86 756 q 86 990 86 910 l 378 990 q 378 833 378 910 q 378 658 378 756 l 378 320 q 378 152 378 226 q 378 0 378 78 l 86 0 m 283 -310 q 163 -292 208 -310 q 97 -245 117 -275 q 76 -177 76 -215 q 92 -107 76 -138 q 136 -52 109 -76 q 194 -14 163 -29 l 194 35 l 326 51 l 378 0 q 294 -48 326 -21 q 262 -108 262 -75 q 279 -144 262 -132 q 328 -156 297 -156 q 361 -153 347 -156 q 383 -147 375 -149 l 383 -296 q 341 -306 367 -302 q 283 -310 314 -310 z "},"Ĩ":{"ha":465,"x_min":-56,"x_max":510,"o":"m 86 0 q 86 152 86 78 q 86 320 86 226 l 86 658 q 86 833 86 756 q 86 990 86 910 l 378 990 q 378 833 378 910 q 378 658 378 756 l 378 320 q 378 152 378 226 q 378 0 378 78 l 86 0 m 353 1053 q 275 1069 309 1053 q 216 1104 242 1084 q 170 1140 190 1124 q 134 1155 151 1155 q 92 1131 106 1155 q 74 1081 78 1106 l -56 1081 q -11 1268 -56 1203 q 110 1333 35 1333 q 186 1318 153 1333 q 243 1283 218 1303 q 288 1248 267 1263 q 326 1233 308 1233 q 365 1257 353 1233 q 381 1306 376 1281 l 510 1306 q 467 1119 510 1185 q 353 1053 424 1053 z "},"J":{"ha":465,"x_min":-6,"x_max":379,"o":"m -6 -213 q 50 -110 28 -163 q 82 0 72 -57 q 92 118 92 56 l 92 476 l 92 658 q 92 833 92 756 q 92 990 92 910 l 379 990 q 379 833 379 910 q 379 658 379 756 l 379 485 q 379 289 379 385 q 379 103 379 192 q 370 -3 379 44 q 345 -90 362 -51 q 306 -158 328 -128 q 257 -213 284 -189 l -6 -213 z "},"Ĵ":{"ha":465,"x_min":-62,"x_max":526,"o":"m -6 -213 q 50 -110 28 -163 q 82 0 72 -57 q 92 118 92 56 l 92 476 l 92 658 q 92 833 92 756 q 92 990 92 910 l 379 990 q 379 833 379 910 q 379 658 379 756 l 379 485 q 379 289 379 385 q 379 103 379 192 q 370 -3 379 44 q 345 -90 362 -51 q 306 -158 328 -128 q 257 -213 284 -189 l -6 -213 m 341 1067 q 272 1155 306 1111 q 201 1242 237 1198 l 263 1242 q 194 1156 228 1199 q 126 1070 160 1113 l -62 1070 q 19 1205 -22 1137 q 101 1341 60 1272 l 363 1341 q 445 1205 404 1272 q 526 1070 486 1137 l 341 1067 z "},"K":{"ha":992,"x_min":81,"x_max":973,"o":"m 631 0 q 566 118 597 63 q 506 228 535 174 l 408 405 l 346 405 l 346 627 l 403 627 l 494 770 q 559 872 527 821 q 634 990 592 922 l 959 990 q 847 836 902 913 q 735 683 792 760 l 594 486 l 588 613 l 745 362 q 824 238 782 305 q 905 109 865 172 q 973 0 944 47 l 631 0 m 81 0 q 81 152 81 78 q 81 320 81 226 l 81 658 q 81 833 81 756 q 81 990 81 910 l 366 990 q 366 833 366 910 q 366 658 366 756 l 366 320 q 366 152 366 226 q 366 0 366 78 l 81 0 z "},"Ķ":{"ha":992,"x_min":81,"x_max":973,"o":"m 631 0 q 566 118 597 63 q 506 228 535 174 l 408 405 l 346 405 l 346 627 l 403 627 l 494 770 q 559 872 527 821 q 634 990 592 922 l 959 990 q 847 836 902 913 q 735 683 792 760 l 594 486 l 588 613 l 745 362 q 824 238 782 305 q 905 109 865 172 q 973 0 944 47 l 631 0 m 81 0 q 81 152 81 78 q 81 320 81 226 l 81 658 q 81 833 81 756 q 81 990 81 910 l 366 990 q 366 833 366 910 q 366 658 366 756 l 366 320 q 366 152 366 226 q 366 0 366 78 l 81 0 m 365 -404 q 394 -315 388 -360 q 400 -219 400 -269 q 400 -149 400 -184 q 400 -81 400 -115 l 513 -70 q 609 -102 576 -74 q 642 -176 642 -131 q 621 -266 642 -224 q 562 -343 601 -308 q 469 -401 524 -377 l 365 -404 z "},"L":{"ha":813,"x_min":81,"x_max":775,"o":"m 81 0 q 81 152 81 78 q 81 320 81 226 l 81 658 q 81 833 81 756 q 81 990 81 910 l 367 990 q 367 833 367 910 q 367 658 367 756 l 367 367 q 367 199 367 273 q 367 47 367 125 l 270 248 l 471 248 q 590 248 538 248 q 685 248 641 248 q 775 248 729 248 l 775 0 l 81 0 z "},"Ǉ":{"ha":1278,"x_min":81,"x_max":1192,"o":"m 81 0 q 81 152 81 78 q 81 320 81 226 l 81 658 q 81 833 81 756 q 81 990 81 910 l 367 990 q 367 833 367 910 q 367 658 367 756 l 367 367 q 367 199 367 273 q 367 47 367 125 l 270 248 l 471 248 q 590 248 538 248 q 685 248 641 248 q 775 248 729 248 l 775 0 l 81 0 m 806 -213 q 863 -110 841 -163 q 894 0 884 -57 q 905 118 905 56 l 905 476 l 905 658 q 905 833 905 756 q 905 990 905 910 l 1192 990 q 1192 833 1192 910 q 1192 658 1192 756 l 1192 485 q 1192 289 1192 385 q 1192 103 1192 192 q 1183 -3 1192 44 q 1158 -90 1174 -51 q 1119 -158 1141 -128 q 1069 -213 1097 -189 l 806 -213 z "},"Ĺ":{"ha":813,"x_min":81,"x_max":775,"o":"m 81 0 q 81 152 81 78 q 81 320 81 226 l 81 658 q 81 833 81 756 q 81 990 81 910 l 367 990 q 367 833 367 910 q 367 658 367 756 l 367 367 q 367 199 367 273 q 367 47 367 125 l 270 248 l 471 248 q 590 248 538 248 q 685 248 641 248 q 775 248 729 248 l 775 0 l 81 0 m 185 1069 q 267 1204 226 1137 q 348 1338 308 1271 l 612 1344 q 530 1250 570 1297 q 450 1159 489 1204 q 372 1072 410 1115 l 185 1069 z "},"Ľ":{"ha":813,"x_min":81,"x_max":775,"o":"m 81 0 q 81 152 81 78 q 81 320 81 226 l 81 658 q 81 833 81 756 q 81 990 81 910 l 367 990 q 367 833 367 910 q 367 658 367 756 l 367 367 q 367 199 367 273 q 367 47 367 125 l 270 248 l 471 248 q 590 248 538 248 q 685 248 641 248 q 775 248 729 248 l 775 0 l 81 0 m 474 759 q 491 824 484 790 q 500 890 497 857 q 503 953 503 922 q 503 1025 503 990 q 503 1097 503 1061 l 615 1107 q 682 1076 654 1103 q 710 1003 710 1049 q 698 931 710 966 q 667 865 686 896 q 624 807 647 833 q 578 761 601 781 l 474 759 z "},"Ļ":{"ha":813,"x_min":81,"x_max":775,"o":"m 81 0 q 81 152 81 78 q 81 320 81 226 l 81 658 q 81 833 81 756 q 81 990 81 910 l 367 990 q 367 833 367 910 q 367 658 367 756 l 367 367 q 367 199 367 273 q 367 47 367 125 l 270 248 l 471 248 q 590 248 538 248 q 685 248 641 248 q 775 248 729 248 l 775 0 l 81 0 m 279 -404 q 308 -315 301 -360 q 314 -219 314 -269 q 314 -149 314 -184 q 314 -81 314 -115 l 427 -70 q 523 -102 490 -74 q 556 -176 556 -131 q 535 -266 556 -224 q 476 -343 515 -308 q 383 -401 438 -377 l 279 -404 z "},"Ŀ":{"ha":813,"x_min":81,"x_max":783,"o":"m 81 0 q 81 152 81 78 q 81 320 81 226 l 81 658 q 81 833 81 756 q 81 990 81 910 l 367 990 q 367 833 367 910 q 367 658 367 756 l 367 367 q 367 199 367 273 q 367 47 367 125 l 270 248 l 471 248 q 590 248 538 248 q 685 248 641 248 q 775 248 729 248 l 775 0 l 81 0 m 631 378 q 522 409 563 378 q 481 513 481 441 q 522 609 481 575 q 633 644 563 644 q 743 608 703 644 q 783 513 783 572 q 742 409 783 441 q 631 378 702 378 z "},"Ḷ":{"ha":813,"x_min":81,"x_max":775,"o":"m 81 0 q 81 152 81 78 q 81 320 81 226 l 81 658 q 81 833 81 756 q 81 990 81 910 l 367 990 q 367 833 367 910 q 367 658 367 756 l 367 367 q 367 199 367 273 q 367 47 367 125 l 270 248 l 471 248 q 590 248 538 248 q 685 248 641 248 q 775 248 729 248 l 775 0 l 81 0 m 419 -336 q 310 -305 350 -336 q 269 -201 269 -273 q 310 -105 269 -139 q 421 -70 350 -70 q 531 -106 490 -70 q 571 -201 571 -142 q 531 -305 571 -273 q 419 -336 490 -336 z "},"ǈ":{"ha":1215,"x_min":81,"x_max":1167,"o":"m 81 0 q 81 152 81 78 q 81 320 81 226 l 81 658 q 81 833 81 756 q 81 990 81 910 l 367 990 q 367 833 367 910 q 367 658 367 756 l 367 367 q 367 199 367 273 q 367 47 367 125 l 270 248 l 471 248 q 590 248 538 248 q 685 248 641 248 q 775 248 729 248 l 775 0 l 81 0 m 790 -274 q 845 -176 824 -229 q 875 -64 866 -123 q 885 58 885 -5 l 885 298 l 885 367 q 885 496 885 440 q 885 599 885 551 q 885 695 885 647 l 1144 702 q 1144 604 1144 653 q 1144 499 1144 556 q 1144 367 1144 442 q 1144 249 1144 304 q 1144 141 1144 194 q 1144 31 1144 88 q 1137 -63 1144 -19 q 1117 -145 1131 -108 q 1083 -213 1104 -183 q 1034 -267 1063 -244 l 790 -274 m 1016 773 q 907 804 947 773 q 866 908 866 835 q 907 1005 866 970 q 1017 1039 947 1039 q 1127 1003 1088 1039 q 1167 908 1167 967 q 1127 804 1167 835 q 1016 773 1087 773 z "},"Ḻ":{"ha":813,"x_min":81,"x_max":775,"o":"m 81 0 q 81 152 81 78 q 81 320 81 226 l 81 658 q 81 833 81 756 q 81 990 81 910 l 367 990 q 367 833 367 910 q 367 658 367 756 l 367 367 q 367 199 367 273 q 367 47 367 125 l 270 248 l 471 248 q 590 248 538 248 q 685 248 641 248 q 775 248 729 248 l 775 0 l 81 0 m 172 -282 l 172 -93 q 289 -93 227 -93 q 419 -93 351 -93 q 550 -93 488 -93 q 667 -93 612 -93 l 667 -282 q 550 -282 612 -282 q 419 -282 488 -282 q 289 -282 351 -282 q 172 -282 227 -282 z "},"Ł":{"ha":846,"x_min":-24,"x_max":809,"o":"m 115 0 q 115 152 115 78 q 115 320 115 226 l 115 658 q 115 833 115 756 q 115 990 115 910 l 401 990 q 401 833 401 910 q 401 658 401 756 l 401 367 q 401 199 401 273 q 401 47 401 125 l 304 248 l 505 248 q 624 248 572 248 q 719 248 675 248 q 809 248 763 248 l 809 0 l 115 0 m 31 329 l -24 511 q 120 553 51 533 q 250 592 189 574 l 323 614 q 454 652 385 632 q 597 694 524 673 l 650 513 q 509 471 578 492 q 377 432 440 451 l 303 410 q 174 371 242 392 q 31 329 105 351 z "},"M":{"ha":1343,"x_min":57,"x_max":1286,"o":"m 57 0 q 76 153 67 76 q 97 321 85 231 l 139 656 q 160 826 150 745 q 181 990 169 907 l 469 990 q 522 851 497 917 q 571 721 547 785 l 668 464 l 686 464 l 777 720 q 823 849 801 785 q 873 990 846 913 l 1158 990 q 1179 827 1169 908 q 1201 655 1190 747 l 1245 319 q 1266 153 1256 229 q 1286 0 1276 77 l 1014 0 q 993 168 1003 89 q 975 318 983 248 l 950 518 l 931 518 l 867 303 q 820 147 844 224 q 776 0 797 69 l 588 0 q 553 97 572 46 q 517 200 535 148 q 480 303 499 253 l 403 518 l 385 518 l 360 320 q 342 169 352 249 q 322 0 333 88 l 57 0 z "},"Ṃ":{"ha":1343,"x_min":57,"x_max":1286,"o":"m 57 0 q 76 153 67 76 q 97 321 85 231 l 139 656 q 160 826 150 745 q 181 990 169 907 l 469 990 q 522 851 497 917 q 571 721 547 785 l 668 464 l 686 464 l 777 720 q 823 849 801 785 q 873 990 846 913 l 1158 990 q 1179 827 1169 908 q 1201 655 1190 747 l 1245 319 q 1266 153 1256 229 q 1286 0 1276 77 l 1014 0 q 993 168 1003 89 q 975 318 983 248 l 950 518 l 931 518 l 867 303 q 820 147 844 224 q 776 0 797 69 l 588 0 q 553 97 572 46 q 517 200 535 148 q 480 303 499 253 l 403 518 l 385 518 l 360 320 q 342 169 352 249 q 322 0 333 88 l 57 0 m 672 -336 q 562 -305 602 -336 q 522 -201 522 -273 q 562 -105 522 -139 q 673 -70 602 -70 q 783 -106 742 -70 q 823 -201 823 -142 q 783 -305 823 -273 q 672 -336 742 -336 z "},"N":{"ha":1039,"x_min":81,"x_max":958,"o":"m 81 0 q 81 152 81 78 q 81 320 81 226 l 81 658 q 81 833 81 756 q 81 990 81 910 l 328 990 q 438 827 387 902 q 540 674 488 751 l 671 479 l 691 479 l 691 658 q 691 833 691 756 q 691 990 691 910 l 958 990 q 958 833 958 910 q 958 658 958 756 l 958 320 q 958 152 958 226 q 958 0 958 78 l 714 0 q 614 148 665 72 q 501 315 562 224 l 367 512 l 348 512 l 348 320 q 348 152 348 226 q 348 0 348 78 l 81 0 z "},"Ǌ":{"ha":1504,"x_min":81,"x_max":1418,"o":"m 81 0 q 81 152 81 78 q 81 320 81 226 l 81 658 q 81 833 81 756 q 81 990 81 910 l 328 990 q 438 827 387 902 q 540 674 488 751 l 671 479 l 691 479 l 691 658 q 691 833 691 756 q 691 990 691 910 l 958 990 q 958 833 958 910 q 958 658 958 756 l 958 320 q 958 152 958 226 q 958 0 958 78 l 714 0 q 614 148 665 72 q 501 315 562 224 l 367 512 l 348 512 l 348 320 q 348 152 348 226 q 348 0 348 78 l 81 0 m 1033 -213 q 1089 -110 1067 -163 q 1121 0 1110 -57 q 1131 118 1131 56 l 1131 476 l 1131 658 q 1131 833 1131 756 q 1131 990 1131 910 l 1418 990 q 1418 833 1418 910 q 1418 658 1418 756 l 1418 485 q 1418 289 1418 385 q 1418 103 1418 192 q 1409 -3 1418 44 q 1384 -90 1401 -51 q 1345 -158 1367 -128 q 1296 -213 1323 -189 l 1033 -213 z "},"Ń":{"ha":1039,"x_min":81,"x_max":958,"o":"m 81 0 q 81 152 81 78 q 81 320 81 226 l 81 658 q 81 833 81 756 q 81 990 81 910 l 328 990 q 438 827 387 902 q 540 674 488 751 l 671 479 l 691 479 l 691 658 q 691 833 691 756 q 691 990 691 910 l 958 990 q 958 833 958 910 q 958 658 958 756 l 958 320 q 958 152 958 226 q 958 0 958 78 l 714 0 q 614 148 665 72 q 501 315 562 224 l 367 512 l 348 512 l 348 320 q 348 152 348 226 q 348 0 348 78 l 81 0 m 368 1069 q 450 1204 410 1137 q 531 1338 491 1271 l 795 1344 q 713 1250 753 1297 q 633 1159 672 1204 q 556 1072 594 1115 l 368 1069 z "},"Ň":{"ha":1039,"x_min":81,"x_max":958,"o":"m 81 0 q 81 152 81 78 q 81 320 81 226 l 81 658 q 81 833 81 756 q 81 990 81 910 l 328 990 q 438 827 387 902 q 540 674 488 751 l 671 479 l 691 479 l 691 658 q 691 833 691 756 q 691 990 691 910 l 958 990 q 958 833 958 910 q 958 658 958 756 l 958 320 q 958 152 958 226 q 958 0 958 78 l 714 0 q 614 148 665 72 q 501 315 562 224 l 367 512 l 348 512 l 348 320 q 348 152 348 226 q 348 0 348 78 l 81 0 m 389 1068 q 307 1205 348 1137 q 226 1339 266 1273 l 411 1342 q 481 1255 446 1299 q 551 1167 516 1212 l 489 1167 q 558 1254 524 1211 q 626 1339 593 1297 l 814 1339 q 733 1205 774 1273 q 651 1068 692 1137 l 389 1068 z "},"Ņ":{"ha":1039,"x_min":81,"x_max":958,"o":"m 81 0 q 81 152 81 78 q 81 320 81 226 l 81 658 q 81 833 81 756 q 81 990 81 910 l 328 990 q 438 827 387 902 q 540 674 488 751 l 671 479 l 691 479 l 691 658 q 691 833 691 756 q 691 990 691 910 l 958 990 q 958 833 958 910 q 958 658 958 756 l 958 320 q 958 152 958 226 q 958 0 958 78 l 714 0 q 614 148 665 72 q 501 315 562 224 l 367 512 l 348 512 l 348 320 q 348 152 348 226 q 348 0 348 78 l 81 0 m 381 -404 q 409 -315 403 -360 q 415 -219 415 -269 q 415 -149 415 -184 q 415 -81 415 -115 l 528 -70 q 624 -102 592 -74 q 657 -176 657 -131 q 636 -266 657 -224 q 577 -343 616 -308 q 484 -401 539 -377 l 381 -404 z "},"Ṅ":{"ha":1039,"x_min":81,"x_max":958,"o":"m 81 0 q 81 152 81 78 q 81 320 81 226 l 81 658 q 81 833 81 756 q 81 990 81 910 l 328 990 q 438 827 387 902 q 540 674 488 751 l 671 479 l 691 479 l 691 658 q 691 833 691 756 q 691 990 691 910 l 958 990 q 958 833 958 910 q 958 658 958 756 l 958 320 q 958 152 958 226 q 958 0 958 78 l 714 0 q 614 148 665 72 q 501 315 562 224 l 367 512 l 348 512 l 348 320 q 348 152 348 226 q 348 0 348 78 l 81 0 m 519 1063 q 410 1094 451 1063 q 369 1197 369 1126 q 410 1294 369 1260 q 521 1328 451 1328 q 631 1293 591 1328 q 671 1197 671 1258 q 631 1094 671 1126 q 519 1063 590 1063 z "},"Ṇ":{"ha":1039,"x_min":81,"x_max":958,"o":"m 81 0 q 81 152 81 78 q 81 320 81 226 l 81 658 q 81 833 81 756 q 81 990 81 910 l 328 990 q 438 827 387 902 q 540 674 488 751 l 671 479 l 691 479 l 691 658 q 691 833 691 756 q 691 990 691 910 l 958 990 q 958 833 958 910 q 958 658 958 756 l 958 320 q 958 152 958 226 q 958 0 958 78 l 714 0 q 614 148 665 72 q 501 315 562 224 l 367 512 l 348 512 l 348 320 q 348 152 348 226 q 348 0 348 78 l 81 0 m 521 -336 q 411 -305 451 -336 q 371 -201 371 -273 q 411 -105 371 -139 q 522 -70 451 -70 q 632 -106 592 -70 q 672 -201 672 -142 q 632 -305 672 -273 q 521 -336 592 -336 z "},"Ŋ":{"ha":1039,"x_min":81,"x_max":958,"o":"m 573 -267 q 630 -164 608 -217 q 661 -54 651 -110 q 672 65 672 3 l 672 131 l 763 0 l 714 0 q 614 149 665 73 q 501 314 563 224 l 367 512 l 348 512 l 348 320 q 348 152 348 226 q 348 0 348 78 l 81 0 q 81 152 81 78 q 81 320 81 226 l 81 658 q 81 833 81 756 q 81 990 81 910 l 328 990 q 438 827 388 902 q 540 674 488 751 l 671 479 l 691 479 l 691 658 q 691 833 691 756 q 691 990 691 910 l 958 990 q 958 833 958 910 q 958 658 958 756 l 958 431 q 958 238 958 332 q 958 55 958 144 q 950 -53 958 -4 q 924 -141 941 -102 q 885 -211 908 -180 q 836 -267 863 -242 l 573 -267 z "},"ǋ":{"ha":1442,"x_min":81,"x_max":1394,"o":"m 81 0 q 81 152 81 78 q 81 320 81 226 l 81 658 q 81 833 81 756 q 81 990 81 910 l 328 990 q 438 827 387 902 q 540 674 488 751 l 671 479 l 691 479 l 691 658 q 691 833 691 756 q 691 990 691 910 l 958 990 q 958 833 958 910 q 958 658 958 756 l 958 320 q 958 152 958 226 q 958 0 958 78 l 714 0 q 614 148 665 72 q 501 315 562 224 l 367 512 l 348 512 l 348 320 q 348 152 348 226 q 348 0 348 78 l 81 0 m 1016 -274 q 1071 -176 1050 -229 q 1102 -64 1092 -123 q 1111 58 1111 -5 l 1111 298 l 1111 367 q 1111 496 1111 440 q 1111 599 1111 551 q 1111 695 1111 647 l 1370 702 q 1370 604 1370 653 q 1370 499 1370 556 q 1370 367 1370 442 q 1370 249 1370 304 q 1370 141 1370 194 q 1370 31 1370 88 q 1364 -63 1370 -19 q 1344 -145 1357 -108 q 1310 -213 1331 -183 q 1260 -267 1289 -244 l 1016 -274 m 1242 773 q 1133 804 1174 773 q 1092 908 1092 835 q 1133 1005 1092 970 q 1244 1039 1174 1039 q 1354 1003 1314 1039 q 1394 908 1394 967 q 1353 804 1394 835 q 1242 773 1313 773 z "},"Ṉ":{"ha":1039,"x_min":81,"x_max":958,"o":"m 81 0 q 81 152 81 78 q 81 320 81 226 l 81 658 q 81 833 81 756 q 81 990 81 910 l 328 990 q 438 827 387 902 q 540 674 488 751 l 671 479 l 691 479 l 691 658 q 691 833 691 756 q 691 990 691 910 l 958 990 q 958 833 958 910 q 958 658 958 756 l 958 320 q 958 152 958 226 q 958 0 958 78 l 714 0 q 614 148 665 72 q 501 315 562 224 l 367 512 l 348 512 l 348 320 q 348 152 348 226 q 348 0 348 78 l 81 0 m 273 -282 l 273 -93 q 391 -93 328 -93 q 521 -93 453 -93 q 651 -93 589 -93 q 769 -93 713 -93 l 769 -282 q 651 -282 713 -282 q 521 -282 589 -282 q 391 -282 453 -282 q 273 -282 328 -282 z "},"Ñ":{"ha":1039,"x_min":81,"x_max":958,"o":"m 81 0 q 81 152 81 78 q 81 320 81 226 l 81 658 q 81 833 81 756 q 81 990 81 910 l 328 990 q 438 827 387 902 q 540 674 488 751 l 671 479 l 691 479 l 691 658 q 691 833 691 756 q 691 990 691 910 l 958 990 q 958 833 958 910 q 958 658 958 756 l 958 320 q 958 152 958 226 q 958 0 958 78 l 714 0 q 614 148 665 72 q 501 315 562 224 l 367 512 l 348 512 l 348 320 q 348 152 348 226 q 348 0 348 78 l 81 0 m 647 1053 q 569 1069 603 1053 q 510 1104 535 1084 q 464 1140 484 1124 q 428 1155 444 1155 q 386 1131 400 1155 q 367 1081 372 1106 l 238 1081 q 283 1268 238 1203 q 403 1333 328 1333 q 480 1318 447 1333 q 536 1283 512 1303 q 581 1248 561 1263 q 620 1233 601 1233 q 658 1257 647 1233 q 674 1306 670 1281 l 804 1306 q 761 1119 804 1185 q 647 1053 718 1053 z "},"O":{"ha":1128,"x_min":42,"x_max":1086,"o":"m 569 -20 q 331 21 431 -20 q 167 135 231 63 q 73 300 103 208 q 42 494 42 392 q 99 756 42 638 q 270 942 156 873 q 562 1012 385 1012 q 794 972 696 1012 q 958 860 893 931 q 1054 696 1022 790 q 1086 495 1086 602 q 1028 230 1086 347 q 854 47 969 114 q 569 -20 739 -20 m 565 213 q 661 235 620 213 q 731 296 702 257 q 773 386 759 335 q 788 495 788 438 q 772 607 788 555 q 727 697 756 658 q 658 757 699 735 q 565 778 617 778 q 470 757 512 778 q 400 696 428 735 q 356 605 372 657 q 341 495 341 553 q 356 386 341 438 q 398 296 370 335 q 468 235 426 257 q 565 213 510 213 z "},"Ó":{"ha":1128,"x_min":42,"x_max":1086,"o":"m 569 -20 q 331 21 431 -20 q 167 135 231 63 q 73 300 103 208 q 42 494 42 392 q 99 756 42 638 q 270 942 156 873 q 562 1012 385 1012 q 794 972 696 1012 q 958 860 893 931 q 1054 696 1022 790 q 1086 495 1086 602 q 1028 230 1086 347 q 854 47 969 114 q 569 -20 739 -20 m 565 213 q 661 235 620 213 q 731 296 702 257 q 773 386 759 335 q 788 495 788 438 q 772 607 788 555 q 727 697 756 658 q 658 757 699 735 q 565 778 617 778 q 470 757 512 778 q 400 696 428 735 q 356 605 372 657 q 341 495 341 553 q 356 386 341 438 q 398 296 370 335 q 468 235 426 257 q 565 213 510 213 m 412 1069 q 494 1204 453 1137 q 575 1338 535 1271 l 839 1344 q 757 1250 797 1297 q 677 1159 716 1204 q 599 1072 638 1115 l 412 1069 z "},"Ŏ":{"ha":1128,"x_min":42,"x_max":1086,"o":"m 569 -20 q 331 21 431 -20 q 167 135 231 63 q 73 300 103 208 q 42 494 42 392 q 99 756 42 638 q 270 942 156 873 q 562 1012 385 1012 q 794 972 696 1012 q 958 860 893 931 q 1054 696 1022 790 q 1086 495 1086 602 q 1028 230 1086 347 q 854 47 969 114 q 569 -20 739 -20 m 565 213 q 661 235 620 213 q 731 296 702 257 q 773 386 759 335 q 788 495 788 438 q 772 607 788 555 q 727 697 756 658 q 658 757 699 735 q 565 778 617 778 q 470 757 512 778 q 400 696 428 735 q 356 605 372 657 q 341 495 341 553 q 356 386 341 438 q 398 296 370 335 q 468 235 426 257 q 565 213 510 213 m 563 1052 q 356 1123 425 1052 q 288 1349 288 1194 l 462 1357 q 486 1257 462 1293 q 563 1221 510 1221 q 642 1256 617 1221 q 666 1349 666 1291 l 840 1349 q 809 1180 840 1246 q 718 1083 779 1115 q 563 1052 656 1052 z "},"Ô":{"ha":1128,"x_min":42,"x_max":1086,"o":"m 569 -20 q 331 21 431 -20 q 167 135 231 63 q 73 300 103 208 q 42 494 42 392 q 99 756 42 638 q 270 942 156 873 q 562 1012 385 1012 q 794 972 696 1012 q 958 860 893 931 q 1054 696 1022 790 q 1086 495 1086 602 q 1028 230 1086 347 q 854 47 969 114 q 569 -20 739 -20 m 565 213 q 661 235 620 213 q 731 296 702 257 q 773 386 759 335 q 788 495 788 438 q 772 607 788 555 q 727 697 756 658 q 658 757 699 735 q 565 778 617 778 q 470 757 512 778 q 400 696 428 735 q 356 605 372 657 q 341 495 341 553 q 356 386 341 438 q 398 296 370 335 q 468 235 426 257 q 565 213 510 213 m 673 1067 q 603 1155 638 1111 q 533 1242 569 1198 l 595 1242 q 526 1156 560 1199 q 458 1070 492 1113 l 270 1070 q 351 1205 310 1137 q 433 1341 392 1272 l 695 1341 q 777 1205 736 1272 q 858 1070 818 1137 l 673 1067 z "},"Ố":{"ha":1128,"x_min":42,"x_max":1115,"o":"m 569 -20 q 331 21 431 -20 q 167 135 231 63 q 73 300 103 208 q 42 494 42 392 q 99 756 42 638 q 270 942 156 873 q 562 1012 385 1012 q 794 972 696 1012 q 958 860 893 931 q 1054 696 1022 790 q 1086 495 1086 602 q 1028 230 1086 347 q 854 47 969 114 q 569 -20 739 -20 m 565 213 q 661 235 620 213 q 731 296 702 257 q 773 386 759 335 q 788 495 788 438 q 772 607 788 555 q 727 697 756 658 q 658 757 699 735 q 565 778 617 778 q 470 757 512 778 q 400 696 428 735 q 356 605 372 657 q 341 495 341 553 q 356 386 341 438 q 398 296 370 335 q 468 235 426 257 q 565 213 510 213 m 750 1274 q 819 1405 785 1340 q 888 1533 854 1469 l 1115 1538 q 1047 1449 1081 1493 q 980 1361 1013 1404 q 915 1276 947 1317 l 750 1274 m 288 1070 q 364 1200 325 1134 q 442 1331 403 1265 l 667 1331 q 597 1242 631 1286 q 529 1155 563 1198 q 463 1070 496 1113 l 288 1070 m 668 1067 q 601 1154 635 1111 q 532 1242 567 1197 q 462 1331 498 1286 l 688 1331 q 765 1200 726 1265 q 841 1070 803 1134 l 668 1067 z "},"Ộ":{"ha":1128,"x_min":42,"x_max":1086,"o":"m 569 -20 q 331 21 431 -20 q 167 135 231 63 q 73 300 103 208 q 42 494 42 392 q 99 756 42 638 q 270 942 156 873 q 562 1012 385 1012 q 794 972 696 1012 q 958 860 893 931 q 1054 696 1022 790 q 1086 495 1086 602 q 1028 230 1086 347 q 854 47 969 114 q 569 -20 739 -20 m 565 213 q 661 235 620 213 q 731 296 702 257 q 773 386 759 335 q 788 495 788 438 q 772 607 788 555 q 727 697 756 658 q 658 757 699 735 q 565 778 617 778 q 470 757 512 778 q 400 696 428 735 q 356 605 372 657 q 341 495 341 553 q 356 386 341 438 q 398 296 370 335 q 468 235 426 257 q 565 213 510 213 m 565 -336 q 455 -305 495 -336 q 415 -201 415 -273 q 455 -105 415 -139 q 566 -70 495 -70 q 676 -106 635 -70 q 716 -201 716 -142 q 676 -305 716 -273 q 565 -336 635 -336 m 673 1067 q 603 1155 638 1111 q 533 1242 569 1198 l 595 1242 q 526 1156 560 1199 q 458 1070 492 1113 l 270 1070 q 351 1205 310 1137 q 433 1341 392 1272 l 695 1341 q 777 1205 736 1272 q 858 1070 818 1137 l 673 1067 z "},"Ồ":{"ha":1128,"x_min":42,"x_max":1086,"o":"m 569 -20 q 331 21 431 -20 q 167 135 231 63 q 73 300 103 208 q 42 494 42 392 q 99 756 42 638 q 270 942 156 873 q 562 1012 385 1012 q 794 972 696 1012 q 958 860 893 931 q 1054 696 1022 790 q 1086 495 1086 602 q 1028 230 1086 347 q 854 47 969 114 q 569 -20 739 -20 m 565 213 q 661 235 620 213 q 731 296 702 257 q 773 386 759 335 q 788 495 788 438 q 772 607 788 555 q 727 697 756 658 q 658 757 699 735 q 565 778 617 778 q 470 757 512 778 q 400 696 428 735 q 356 605 372 657 q 341 495 341 553 q 356 386 341 438 q 398 296 370 335 q 468 235 426 257 q 565 213 510 213 m 801 1275 q 736 1358 769 1316 q 669 1444 703 1401 q 601 1533 635 1488 l 827 1538 q 896 1408 861 1473 q 966 1276 931 1342 l 801 1275 m 288 1070 q 364 1200 325 1134 q 442 1331 403 1265 l 667 1331 q 597 1242 631 1286 q 529 1155 563 1198 q 463 1070 496 1113 l 288 1070 m 668 1067 q 601 1154 635 1111 q 532 1242 567 1197 q 462 1331 498 1286 l 688 1331 q 765 1200 726 1265 q 841 1070 803 1134 l 668 1067 z "},"Ổ":{"ha":1128,"x_min":42,"x_max":1086,"o":"m 569 -20 q 331 21 431 -20 q 167 135 231 63 q 73 300 103 208 q 42 494 42 392 q 99 756 42 638 q 270 942 156 873 q 562 1012 385 1012 q 794 972 696 1012 q 958 860 893 931 q 1054 696 1022 790 q 1086 495 1086 602 q 1028 230 1086 347 q 854 47 969 114 q 569 -20 739 -20 m 565 213 q 661 235 620 213 q 731 296 702 257 q 773 386 759 335 q 788 495 788 438 q 772 607 788 555 q 727 697 756 658 q 658 757 699 735 q 565 778 617 778 q 470 757 512 778 q 400 696 428 735 q 356 605 372 657 q 341 495 341 553 q 356 386 341 438 q 398 296 370 335 q 468 235 426 257 q 565 213 510 213 m 288 1070 q 364 1200 325 1134 q 442 1331 403 1265 l 667 1331 q 597 1242 631 1286 q 529 1155 563 1198 q 463 1070 496 1113 l 288 1070 m 668 1067 q 601 1154 635 1111 q 532 1242 567 1197 q 462 1331 498 1286 l 688 1331 q 765 1200 726 1265 q 841 1070 803 1134 l 668 1067 m 760 1265 l 760 1332 q 838 1357 804 1338 q 871 1399 871 1375 q 856 1426 871 1417 q 818 1434 842 1434 q 773 1429 796 1434 q 727 1416 750 1424 q 681 1399 704 1408 l 670 1526 q 702 1537 683 1531 q 744 1548 721 1542 q 797 1556 768 1553 q 857 1560 825 1560 q 948 1549 904 1560 q 1018 1509 991 1538 q 1045 1433 1045 1481 q 1025 1361 1045 1391 q 969 1312 1005 1331 q 886 1285 933 1293 l 886 1265 l 760 1265 z "},"Ỗ":{"ha":1128,"x_min":42,"x_max":1086,"o":"m 569 -20 q 331 21 431 -20 q 167 135 231 63 q 73 300 103 208 q 42 494 42 392 q 99 756 42 638 q 270 942 156 873 q 562 1012 385 1012 q 794 972 696 1012 q 958 860 893 931 q 1054 696 1022 790 q 1086 495 1086 602 q 1028 230 1086 347 q 854 47 969 114 q 569 -20 739 -20 m 565 213 q 661 235 620 213 q 731 296 702 257 q 773 386 759 335 q 788 495 788 438 q 772 607 788 555 q 727 697 756 658 q 658 757 699 735 q 565 778 617 778 q 470 757 512 778 q 400 696 428 735 q 356 605 372 657 q 341 495 341 553 q 356 386 341 438 q 398 296 370 335 q 468 235 426 257 q 565 213 510 213 m 288 1070 q 364 1200 325 1134 q 442 1331 403 1265 l 667 1331 q 597 1242 632 1286 q 529 1155 563 1198 q 463 1070 496 1113 l 288 1070 m 668 1067 q 601 1154 635 1111 q 532 1242 567 1197 q 462 1331 497 1286 l 688 1331 q 765 1200 726 1265 q 841 1070 803 1134 l 668 1067 m 681 1355 q 609 1369 640 1355 q 553 1400 577 1383 q 511 1432 530 1418 q 476 1446 493 1446 q 438 1424 451 1446 q 421 1380 426 1403 l 301 1380 q 343 1545 301 1488 q 456 1603 385 1603 q 526 1590 496 1603 q 579 1558 556 1576 q 621 1526 602 1540 q 656 1513 640 1513 q 693 1534 681 1513 q 708 1578 704 1556 l 827 1578 q 787 1413 827 1471 q 681 1355 747 1355 z "},"Ȍ":{"ha":1128,"x_min":42,"x_max":1086,"o":"m 569 -20 q 331 21 431 -20 q 167 135 231 63 q 73 300 103 208 q 42 494 42 392 q 99 756 42 638 q 270 942 156 873 q 562 1012 385 1012 q 794 972 696 1012 q 958 860 893 931 q 1054 696 1022 790 q 1086 495 1086 602 q 1028 230 1086 347 q 854 47 969 114 q 569 -20 739 -20 m 565 213 q 661 235 620 213 q 731 296 702 257 q 773 386 759 335 q 788 495 788 438 q 772 607 788 555 q 727 697 756 658 q 658 757 699 735 q 565 778 617 778 q 470 757 512 778 q 400 696 428 735 q 356 605 372 657 q 341 495 341 553 q 356 386 341 438 q 398 296 370 335 q 468 235 426 257 q 565 213 510 213 m 356 1069 q 284 1156 320 1112 q 210 1246 247 1201 q 135 1338 173 1292 l 374 1344 q 451 1207 413 1275 q 527 1072 489 1140 l 356 1069 m 665 1069 q 605 1156 636 1112 q 543 1246 574 1201 q 480 1338 513 1292 l 713 1344 q 772 1208 742 1275 q 832 1072 801 1141 l 665 1069 z "},"Ö":{"ha":1128,"x_min":42,"x_max":1086,"o":"m 569 -20 q 331 21 431 -20 q 167 135 231 63 q 73 300 103 208 q 42 494 42 392 q 99 756 42 638 q 270 942 156 873 q 562 1012 385 1012 q 794 972 696 1012 q 958 860 893 931 q 1054 696 1022 790 q 1086 495 1086 602 q 1028 230 1086 347 q 854 47 969 114 q 569 -20 739 -20 m 565 213 q 661 235 620 213 q 731 296 702 257 q 773 386 759 335 q 788 495 788 438 q 772 607 788 555 q 727 697 756 658 q 658 757 699 735 q 565 778 617 778 q 470 757 512 778 q 400 696 428 735 q 356 605 372 657 q 341 495 341 553 q 356 386 341 438 q 398 296 370 335 q 468 235 426 257 q 565 213 510 213 m 728 1063 q 634 1094 668 1063 q 600 1191 600 1126 q 634 1282 600 1247 q 730 1316 669 1316 q 824 1280 790 1316 q 858 1191 858 1244 q 824 1094 858 1126 q 728 1063 790 1063 m 401 1063 q 307 1094 340 1063 q 273 1191 273 1126 q 307 1282 273 1247 q 402 1316 341 1316 q 496 1280 462 1316 q 530 1191 530 1244 q 496 1094 530 1126 q 401 1063 462 1063 z "},"Ȫ":{"ha":1128,"x_min":42,"x_max":1086,"o":"m 569 -20 q 331 21 431 -20 q 167 135 231 63 q 73 300 103 208 q 42 494 42 392 q 99 756 42 638 q 270 942 156 873 q 562 1012 385 1012 q 794 972 696 1012 q 958 860 893 931 q 1054 696 1022 790 q 1086 495 1086 602 q 1028 230 1086 347 q 854 47 969 114 q 569 -20 739 -20 m 565 213 q 661 235 620 213 q 731 296 702 257 q 773 386 759 335 q 788 495 788 438 q 772 607 788 555 q 727 697 756 658 q 658 757 699 735 q 565 778 617 778 q 470 757 512 778 q 400 696 428 735 q 356 605 372 657 q 341 495 341 553 q 356 386 341 438 q 398 296 370 335 q 468 235 426 257 q 565 213 510 213 m 728 1063 q 634 1094 668 1063 q 600 1191 600 1126 q 634 1282 600 1247 q 730 1316 669 1316 q 824 1280 790 1316 q 858 1191 858 1244 q 824 1094 858 1126 q 728 1063 790 1063 m 401 1063 q 307 1094 340 1063 q 273 1191 273 1126 q 307 1282 273 1247 q 402 1316 341 1316 q 496 1280 462 1316 q 530 1191 530 1244 q 496 1094 530 1126 q 401 1063 462 1063 m 315 1376 l 315 1565 q 433 1565 371 1565 q 563 1565 495 1565 q 693 1565 631 1565 q 811 1565 756 1565 l 811 1376 q 693 1376 756 1376 q 563 1376 631 1376 q 433 1376 495 1376 q 315 1376 371 1376 z "},"Ȱ":{"ha":1128,"x_min":42,"x_max":1086,"o":"m 569 -20 q 331 21 431 -20 q 167 135 231 63 q 73 300 103 208 q 42 494 42 392 q 99 756 42 638 q 270 942 156 873 q 562 1012 385 1012 q 794 972 696 1012 q 958 860 893 931 q 1054 696 1022 790 q 1086 495 1086 602 q 1028 230 1086 347 q 854 47 969 114 q 569 -20 739 -20 m 565 213 q 661 235 620 213 q 731 296 702 257 q 773 386 759 335 q 788 495 788 438 q 772 607 788 555 q 727 697 756 658 q 658 757 699 735 q 565 778 617 778 q 470 757 512 778 q 400 696 428 735 q 356 605 372 657 q 341 495 341 553 q 356 386 341 438 q 398 296 370 335 q 468 235 426 257 q 565 213 510 213 m 563 1063 q 454 1094 494 1063 q 413 1197 413 1126 q 454 1294 413 1260 q 565 1328 494 1328 q 675 1293 635 1328 q 715 1197 715 1258 q 674 1094 715 1126 q 563 1063 634 1063 m 317 1388 l 317 1577 q 435 1577 373 1577 q 565 1577 497 1577 q 695 1577 633 1577 q 813 1577 758 1577 l 813 1388 q 695 1388 758 1388 q 565 1388 633 1388 q 435 1388 497 1388 q 317 1388 373 1388 z "},"Ọ":{"ha":1128,"x_min":42,"x_max":1086,"o":"m 569 -20 q 331 21 431 -20 q 167 135 231 63 q 73 300 103 208 q 42 494 42 392 q 99 756 42 638 q 270 942 156 873 q 562 1012 385 1012 q 794 972 696 1012 q 958 860 893 931 q 1054 696 1022 790 q 1086 495 1086 602 q 1028 230 1086 347 q 854 47 969 114 q 569 -20 739 -20 m 565 213 q 661 235 620 213 q 731 296 702 257 q 773 386 759 335 q 788 495 788 438 q 772 607 788 555 q 727 697 756 658 q 658 757 699 735 q 565 778 617 778 q 470 757 512 778 q 400 696 428 735 q 356 605 372 657 q 341 495 341 553 q 356 386 341 438 q 398 296 370 335 q 468 235 426 257 q 565 213 510 213 m 565 -336 q 455 -305 495 -336 q 415 -201 415 -273 q 455 -105 415 -139 q 566 -70 495 -70 q 676 -106 635 -70 q 716 -201 716 -142 q 676 -305 716 -273 q 565 -336 635 -336 z "},"Ò":{"ha":1128,"x_min":42,"x_max":1086,"o":"m 569 -20 q 331 21 431 -20 q 167 135 231 63 q 73 300 103 208 q 42 494 42 392 q 99 756 42 638 q 270 942 156 873 q 562 1012 385 1012 q 794 972 696 1012 q 958 860 893 931 q 1054 696 1022 790 q 1086 495 1086 602 q 1028 230 1086 347 q 854 47 969 114 q 569 -20 739 -20 m 565 213 q 661 235 620 213 q 731 296 702 257 q 773 386 759 335 q 788 495 788 438 q 772 607 788 555 q 727 697 756 658 q 658 757 699 735 q 565 778 617 778 q 470 757 512 778 q 400 696 428 735 q 356 605 372 657 q 341 495 341 553 q 356 386 341 438 q 398 296 370 335 q 468 235 426 257 q 565 213 510 213 m 530 1069 q 452 1157 492 1113 q 373 1246 413 1201 q 290 1338 333 1292 l 553 1344 q 635 1207 594 1275 q 717 1072 676 1140 l 530 1069 z "},"Ỏ":{"ha":1128,"x_min":42,"x_max":1086,"o":"m 569 -20 q 331 21 431 -20 q 167 135 231 63 q 73 300 103 208 q 42 494 42 392 q 99 756 42 638 q 270 942 156 873 q 562 1012 385 1012 q 794 972 696 1012 q 958 860 893 931 q 1054 696 1022 790 q 1086 495 1086 602 q 1028 230 1086 347 q 854 47 969 114 q 569 -20 739 -20 m 565 213 q 661 235 620 213 q 731 296 702 257 q 773 386 759 335 q 788 495 788 438 q 772 607 788 555 q 727 697 756 658 q 658 757 699 735 q 565 778 617 778 q 470 757 512 778 q 400 696 428 735 q 356 605 372 657 q 341 495 341 553 q 356 386 341 438 q 398 296 370 335 q 468 235 426 257 q 565 213 510 213 m 467 1070 l 467 1145 q 554 1165 516 1147 q 592 1210 592 1183 q 576 1239 592 1230 q 533 1248 560 1248 q 482 1243 508 1248 q 430 1229 456 1238 q 377 1209 404 1220 l 366 1354 q 402 1367 381 1360 q 450 1379 423 1374 q 510 1389 478 1385 q 578 1392 542 1392 q 680 1380 631 1392 q 760 1335 729 1367 q 791 1249 791 1304 q 768 1168 791 1201 q 705 1116 746 1135 q 611 1093 665 1097 l 611 1070 l 467 1070 z "},"Ơ":{"ha":1216,"x_min":42,"x_max":1209,"o":"m 569 -20 q 331 21 431 -20 q 167 135 231 63 q 73 300 103 208 q 42 494 42 392 q 99 756 42 638 q 270 942 156 873 q 562 1012 385 1012 q 794 972 696 1012 q 958 860 893 931 q 1054 696 1022 790 q 1086 495 1086 602 q 1028 230 1086 347 q 854 47 969 114 q 569 -20 739 -20 m 565 213 q 661 235 620 213 q 731 296 702 257 q 773 386 759 335 q 788 495 788 438 q 772 607 788 555 q 727 697 756 658 q 658 757 699 735 q 565 778 617 778 q 470 757 512 778 q 400 696 428 735 q 356 605 372 657 q 341 495 341 553 q 356 386 341 438 q 398 296 370 335 q 468 235 426 257 q 565 213 510 213 m 869 738 l 842 865 q 948 880 913 865 q 997 922 984 894 q 1009 989 1009 950 q 1003 1072 1009 1035 q 991 1142 998 1108 l 1167 1152 q 1188 1115 1178 1135 q 1203 1065 1197 1094 q 1209 989 1209 1035 q 1174 858 1209 915 q 1064 770 1139 802 q 869 738 988 738 z "},"Ớ":{"ha":1216,"x_min":42,"x_max":1209,"o":"m 569 -20 q 331 21 431 -20 q 167 135 231 63 q 73 300 103 208 q 42 494 42 392 q 99 756 42 638 q 270 942 156 873 q 562 1012 385 1012 q 794 972 696 1012 q 958 860 893 931 q 1054 696 1022 790 q 1086 495 1086 602 q 1028 230 1086 347 q 854 47 969 114 q 569 -20 739 -20 m 565 213 q 661 235 620 213 q 731 296 702 257 q 773 386 759 335 q 788 495 788 438 q 772 607 788 555 q 727 697 756 658 q 658 757 699 735 q 565 778 617 778 q 470 757 512 778 q 400 696 428 735 q 356 605 372 657 q 341 495 341 553 q 356 386 341 438 q 398 296 370 335 q 468 235 426 257 q 565 213 510 213 m 869 738 l 842 865 q 948 880 913 865 q 997 922 984 894 q 1009 989 1009 950 q 1003 1072 1009 1035 q 991 1142 998 1108 l 1167 1152 q 1188 1115 1178 1135 q 1203 1065 1197 1094 q 1209 989 1209 1035 q 1174 858 1209 915 q 1064 770 1139 802 q 869 738 988 738 m 412 1069 q 494 1204 453 1137 q 575 1338 535 1271 l 839 1344 q 757 1250 797 1297 q 677 1159 716 1204 q 599 1072 638 1115 l 412 1069 z "},"Ợ":{"ha":1216,"x_min":42,"x_max":1209,"o":"m 569 -20 q 331 21 431 -20 q 167 135 231 63 q 73 300 103 208 q 42 494 42 392 q 99 756 42 638 q 270 942 156 873 q 562 1012 385 1012 q 794 972 696 1012 q 958 860 893 931 q 1054 696 1022 790 q 1086 495 1086 602 q 1028 230 1086 347 q 854 47 969 114 q 569 -20 739 -20 m 565 213 q 661 235 620 213 q 731 296 702 257 q 773 386 759 335 q 788 495 788 438 q 772 607 788 555 q 727 697 756 658 q 658 757 699 735 q 565 778 617 778 q 470 757 512 778 q 400 696 428 735 q 356 605 372 657 q 341 495 341 553 q 356 386 341 438 q 398 296 370 335 q 468 235 426 257 q 565 213 510 213 m 869 738 l 842 865 q 948 880 913 865 q 997 922 984 894 q 1009 989 1009 950 q 1003 1072 1009 1035 q 991 1142 998 1108 l 1167 1152 q 1188 1115 1178 1135 q 1203 1065 1197 1094 q 1209 989 1209 1035 q 1174 858 1209 915 q 1064 770 1139 802 q 869 738 988 738 m 565 -336 q 455 -305 495 -336 q 415 -201 415 -273 q 455 -105 415 -139 q 566 -70 495 -70 q 676 -106 635 -70 q 716 -201 716 -142 q 676 -305 716 -273 q 565 -336 635 -336 z "},"Ờ":{"ha":1216,"x_min":42,"x_max":1209,"o":"m 569 -20 q 331 21 431 -20 q 167 135 231 63 q 73 300 103 208 q 42 494 42 392 q 99 756 42 638 q 270 942 156 873 q 562 1012 385 1012 q 794 972 696 1012 q 958 860 893 931 q 1054 696 1022 790 q 1086 495 1086 602 q 1028 230 1086 347 q 854 47 969 114 q 569 -20 739 -20 m 565 213 q 661 235 620 213 q 731 296 702 257 q 773 386 759 335 q 788 495 788 438 q 772 607 788 555 q 727 697 756 658 q 658 757 699 735 q 565 778 617 778 q 470 757 512 778 q 400 696 428 735 q 356 605 372 657 q 341 495 341 553 q 356 386 341 438 q 398 296 370 335 q 468 235 426 257 q 565 213 510 213 m 869 738 l 842 865 q 948 880 913 865 q 997 922 984 894 q 1009 989 1009 950 q 1003 1072 1009 1035 q 991 1142 998 1108 l 1167 1152 q 1188 1115 1178 1135 q 1203 1065 1197 1094 q 1209 989 1209 1035 q 1174 858 1209 915 q 1064 770 1139 802 q 869 738 988 738 m 530 1069 q 452 1157 492 1113 q 373 1246 413 1201 q 290 1338 333 1292 l 553 1344 q 635 1207 594 1275 q 717 1072 676 1140 l 530 1069 z "},"Ở":{"ha":1216,"x_min":42,"x_max":1209,"o":"m 569 -20 q 331 21 431 -20 q 167 135 231 63 q 73 300 103 208 q 42 494 42 392 q 99 756 42 638 q 270 942 156 873 q 562 1012 385 1012 q 794 972 696 1012 q 958 860 893 931 q 1054 696 1022 790 q 1086 495 1086 602 q 1028 230 1086 347 q 854 47 969 114 q 569 -20 739 -20 m 565 213 q 661 235 620 213 q 731 296 702 257 q 773 386 759 335 q 788 495 788 438 q 772 607 788 555 q 727 697 756 658 q 658 757 699 735 q 565 778 617 778 q 470 757 512 778 q 400 696 428 735 q 356 605 372 657 q 341 495 341 553 q 356 386 341 438 q 398 296 370 335 q 468 235 426 257 q 565 213 510 213 m 869 738 l 842 865 q 948 880 913 865 q 997 922 984 894 q 1009 989 1009 950 q 1003 1072 1009 1035 q 991 1142 998 1108 l 1167 1152 q 1188 1115 1178 1135 q 1203 1065 1197 1094 q 1209 989 1209 1035 q 1174 858 1209 915 q 1064 770 1139 802 q 869 738 988 738 m 467 1070 l 467 1145 q 554 1165 516 1147 q 592 1210 592 1183 q 576 1239 592 1230 q 533 1248 560 1248 q 482 1243 508 1248 q 430 1229 456 1238 q 377 1209 404 1220 l 366 1354 q 402 1367 381 1360 q 450 1379 423 1374 q 510 1389 478 1385 q 578 1392 542 1392 q 680 1380 631 1392 q 760 1335 729 1367 q 791 1249 791 1304 q 768 1168 791 1201 q 705 1116 746 1135 q 611 1093 665 1097 l 611 1070 l 467 1070 z "},"Ỡ":{"ha":1216,"x_min":42,"x_max":1209,"o":"m 569 -20 q 331 21 431 -20 q 167 135 231 63 q 73 300 103 208 q 42 494 42 392 q 99 756 42 638 q 270 942 156 873 q 562 1012 385 1012 q 794 972 696 1012 q 958 860 893 931 q 1054 696 1022 790 q 1086 495 1086 602 q 1028 230 1086 347 q 854 47 969 114 q 569 -20 739 -20 m 565 213 q 661 235 620 213 q 731 296 702 257 q 773 386 759 335 q 788 495 788 438 q 772 607 788 555 q 727 697 756 658 q 658 757 699 735 q 565 778 617 778 q 470 757 512 778 q 400 696 428 735 q 356 605 372 657 q 341 495 341 553 q 356 386 341 438 q 398 296 370 335 q 468 235 426 257 q 565 213 510 213 m 869 738 l 842 865 q 948 880 913 865 q 997 922 984 894 q 1009 989 1009 950 q 1003 1072 1009 1035 q 991 1142 998 1108 l 1167 1152 q 1188 1115 1178 1135 q 1203 1065 1197 1094 q 1209 989 1209 1035 q 1174 858 1209 915 q 1064 770 1139 802 q 869 738 988 738 m 691 1053 q 613 1069 647 1053 q 553 1104 579 1084 q 508 1140 528 1124 q 472 1155 488 1155 q 430 1131 444 1155 q 411 1081 416 1106 l 281 1081 q 327 1268 281 1203 q 447 1333 372 1333 q 523 1318 491 1333 q 580 1283 556 1303 q 625 1248 605 1263 q 664 1233 645 1233 q 702 1257 690 1233 q 718 1306 714 1281 l 848 1306 q 805 1119 848 1185 q 691 1053 762 1053 z "},"Ő":{"ha":1128,"x_min":42,"x_max":1086,"o":"m 569 -20 q 331 21 431 -20 q 167 135 231 63 q 73 300 103 208 q 42 494 42 392 q 99 756 42 638 q 270 942 156 873 q 562 1012 385 1012 q 794 972 696 1012 q 958 860 893 931 q 1054 696 1022 790 q 1086 495 1086 602 q 1028 230 1086 347 q 854 47 969 114 q 569 -20 739 -20 m 565 213 q 661 235 620 213 q 731 296 702 257 q 773 386 759 335 q 788 495 788 438 q 772 607 788 555 q 727 697 756 658 q 658 757 699 735 q 565 778 617 778 q 470 757 512 778 q 400 696 428 735 q 356 605 372 657 q 341 495 341 553 q 356 386 341 438 q 398 296 370 335 q 468 235 426 257 q 565 213 510 213 m 599 1069 q 677 1203 638 1136 q 755 1338 716 1271 l 1003 1344 q 925 1250 964 1297 q 849 1159 887 1204 q 776 1072 812 1115 l 599 1069 m 296 1069 q 357 1204 326 1137 q 417 1338 387 1271 l 655 1344 q 589 1250 622 1297 q 525 1159 557 1204 q 464 1072 494 1115 l 296 1069 z "},"Ȏ":{"ha":1128,"x_min":42,"x_max":1086,"o":"m 569 -20 q 331 21 431 -20 q 167 135 231 63 q 73 300 103 208 q 42 494 42 392 q 99 756 42 638 q 270 942 156 873 q 562 1012 385 1012 q 794 972 696 1012 q 958 860 893 931 q 1054 696 1022 790 q 1086 495 1086 602 q 1028 230 1086 347 q 854 47 969 114 q 569 -20 739 -20 m 565 213 q 661 235 620 213 q 731 296 702 257 q 773 386 759 335 q 788 495 788 438 q 772 607 788 555 q 727 697 756 658 q 658 757 699 735 q 565 778 617 778 q 470 757 512 778 q 400 696 428 735 q 356 605 372 657 q 341 495 341 553 q 356 386 341 438 q 398 296 370 335 q 468 235 426 257 q 565 213 510 213 m 666 1058 q 642 1158 666 1122 q 565 1194 618 1194 q 486 1159 510 1194 q 462 1065 462 1124 l 288 1065 q 318 1234 288 1169 q 409 1331 348 1300 q 565 1363 471 1363 q 771 1291 702 1363 q 840 1065 840 1220 l 666 1058 z "},"Ō":{"ha":1128,"x_min":42,"x_max":1086,"o":"m 569 -20 q 331 21 431 -20 q 167 135 231 63 q 73 300 103 208 q 42 494 42 392 q 99 756 42 638 q 270 942 156 873 q 562 1012 385 1012 q 794 972 696 1012 q 958 860 893 931 q 1054 696 1022 790 q 1086 495 1086 602 q 1028 230 1086 347 q 854 47 969 114 q 569 -20 739 -20 m 565 213 q 661 235 620 213 q 731 296 702 257 q 773 386 759 335 q 788 495 788 438 q 772 607 788 555 q 727 697 756 658 q 658 757 699 735 q 565 778 617 778 q 470 757 512 778 q 400 696 428 735 q 356 605 372 657 q 341 495 341 553 q 356 386 341 438 q 398 296 370 335 q 468 235 426 257 q 565 213 510 213 m 317 1097 l 317 1285 q 434 1285 372 1285 q 565 1285 497 1285 q 695 1285 633 1285 q 813 1285 757 1285 l 813 1097 q 695 1097 757 1097 q 565 1097 633 1097 q 434 1097 497 1097 q 317 1097 372 1097 z "},"Ṓ":{"ha":1128,"x_min":42,"x_max":1086,"o":"m 569 -20 q 331 21 431 -20 q 167 135 231 63 q 73 300 103 208 q 42 494 42 392 q 99 756 42 638 q 270 942 156 873 q 562 1012 385 1012 q 794 972 696 1012 q 958 860 893 931 q 1054 696 1022 790 q 1086 495 1086 602 q 1028 230 1086 347 q 854 47 969 114 q 569 -20 739 -20 m 565 213 q 661 235 620 213 q 731 296 702 257 q 773 386 759 335 q 788 495 788 438 q 772 607 788 555 q 727 697 756 658 q 658 757 699 735 q 565 778 617 778 q 470 757 512 778 q 400 696 428 735 q 356 605 372 657 q 341 495 341 553 q 356 386 341 438 q 398 296 370 335 q 468 235 426 257 q 565 213 510 213 m 317 1097 l 317 1285 q 434 1285 372 1285 q 565 1285 497 1285 q 695 1285 633 1285 q 813 1285 757 1285 l 813 1097 q 695 1097 757 1097 q 565 1097 633 1097 q 434 1097 497 1097 q 317 1097 372 1097 m 412 1354 q 494 1489 453 1422 q 575 1624 535 1556 l 839 1629 q 757 1536 797 1582 q 677 1445 716 1490 q 599 1357 638 1400 l 412 1354 z "},"Ṑ":{"ha":1128,"x_min":42,"x_max":1086,"o":"m 569 -20 q 331 21 431 -20 q 167 135 231 63 q 73 300 103 208 q 42 494 42 392 q 99 756 42 638 q 270 942 156 873 q 562 1012 385 1012 q 794 972 696 1012 q 958 860 893 931 q 1054 696 1022 790 q 1086 495 1086 602 q 1028 230 1086 347 q 854 47 969 114 q 569 -20 739 -20 m 565 213 q 661 235 620 213 q 731 296 702 257 q 773 386 759 335 q 788 495 788 438 q 772 607 788 555 q 727 697 756 658 q 658 757 699 735 q 565 778 617 778 q 470 757 512 778 q 400 696 428 735 q 356 605 372 657 q 341 495 341 553 q 356 386 341 438 q 398 296 370 335 q 468 235 426 257 q 565 213 510 213 m 317 1097 l 317 1285 q 434 1285 372 1285 q 565 1285 497 1285 q 695 1285 633 1285 q 813 1285 757 1285 l 813 1097 q 695 1097 757 1097 q 565 1097 633 1097 q 434 1097 497 1097 q 317 1097 372 1097 m 530 1354 q 452 1442 492 1398 q 373 1532 413 1486 q 290 1624 333 1577 l 553 1629 q 635 1493 594 1560 q 717 1357 676 1425 l 530 1354 z "},"Ǫ":{"ha":1128,"x_min":42,"x_max":1086,"o":"m 569 -20 q 331 21 431 -20 q 167 135 231 63 q 73 300 103 208 q 42 494 42 392 q 99 756 42 638 q 270 942 156 873 q 562 1012 385 1012 q 794 972 696 1012 q 958 860 893 931 q 1054 696 1022 790 q 1086 495 1086 602 q 1028 230 1086 347 q 854 47 969 114 q 569 -20 739 -20 m 565 213 q 661 235 620 213 q 731 296 702 257 q 773 386 759 335 q 788 495 788 438 q 772 607 788 555 q 727 697 756 658 q 658 757 699 735 q 565 778 617 778 q 470 757 512 778 q 400 696 428 735 q 356 605 372 657 q 341 495 341 553 q 356 386 341 438 q 398 296 370 335 q 468 235 426 257 q 565 213 510 213 m 633 -310 q 513 -292 558 -310 q 447 -245 467 -275 q 426 -177 426 -215 q 442 -107 426 -138 q 486 -52 459 -76 q 544 -14 513 -29 l 544 35 l 676 51 l 728 0 q 644 -48 676 -21 q 612 -108 612 -75 q 629 -144 612 -132 q 678 -156 647 -156 q 711 -153 697 -156 q 733 -147 725 -149 l 733 -296 q 691 -306 717 -302 q 633 -310 664 -310 z "},"Ø":{"ha":1128,"x_min":42,"x_max":1086,"o":"m 569 -20 q 331 21 431 -20 q 167 135 231 63 q 73 300 103 208 q 42 494 42 392 q 99 756 42 638 q 270 942 156 873 q 562 1012 385 1012 q 794 972 696 1012 q 958 860 893 931 q 1054 696 1022 790 q 1086 495 1086 602 q 1028 230 1086 347 q 854 47 969 114 q 569 -20 739 -20 m 565 213 q 661 235 620 213 q 731 296 702 257 q 773 386 759 335 q 788 495 788 438 q 772 607 788 555 q 727 697 756 658 q 658 757 699 735 q 565 778 617 778 q 470 757 512 778 q 400 696 428 735 q 356 605 372 657 q 341 495 341 553 q 356 386 341 438 q 398 296 370 335 q 468 235 426 257 q 565 213 510 213 m 209 -114 l 84 -9 q 221 170 157 86 q 359 351 285 254 l 631 707 q 774 893 708 806 q 910 1070 840 979 l 1040 973 q 903 794 969 881 q 762 609 838 708 l 485 248 q 344 63 410 149 q 209 -114 278 -24 z "},"Ǿ":{"ha":1128,"x_min":42,"x_max":1086,"o":"m 569 -20 q 331 21 431 -20 q 167 135 231 63 q 73 300 103 208 q 42 494 42 392 q 99 756 42 638 q 270 942 156 873 q 562 1012 385 1012 q 794 972 696 1012 q 958 860 893 931 q 1054 696 1022 790 q 1086 495 1086 602 q 1028 230 1086 347 q 854 47 969 114 q 569 -20 739 -20 m 565 213 q 661 235 620 213 q 731 296 702 257 q 773 386 759 335 q 788 495 788 438 q 772 607 788 555 q 727 697 756 658 q 658 757 699 735 q 565 778 617 778 q 470 757 512 778 q 400 696 428 735 q 356 605 372 657 q 341 495 341 553 q 356 386 341 438 q 398 296 370 335 q 468 235 426 257 q 565 213 510 213 m 209 -114 l 84 -9 q 221 170 157 86 q 359 351 285 254 l 631 707 q 774 893 708 806 q 910 1070 840 979 l 1040 973 q 903 794 969 881 q 762 609 838 708 l 485 248 q 344 63 410 149 q 209 -114 278 -24 m 412 1069 q 494 1204 453 1137 q 575 1338 535 1271 l 839 1344 q 757 1250 797 1297 q 677 1159 716 1204 q 599 1072 638 1115 l 412 1069 z "},"Õ":{"ha":1128,"x_min":42,"x_max":1086,"o":"m 569 -20 q 331 21 431 -20 q 167 135 231 63 q 73 300 103 208 q 42 494 42 392 q 99 756 42 638 q 270 942 156 873 q 562 1012 385 1012 q 794 972 696 1012 q 958 860 893 931 q 1054 696 1022 790 q 1086 495 1086 602 q 1028 230 1086 347 q 854 47 969 114 q 569 -20 739 -20 m 565 213 q 661 235 620 213 q 731 296 702 257 q 773 386 759 335 q 788 495 788 438 q 772 607 788 555 q 727 697 756 658 q 658 757 699 735 q 565 778 617 778 q 470 757 512 778 q 400 696 428 735 q 356 605 372 657 q 341 495 341 553 q 356 386 341 438 q 398 296 370 335 q 468 235 426 257 q 565 213 510 213 m 691 1053 q 613 1069 647 1053 q 553 1104 579 1084 q 508 1140 528 1124 q 472 1155 488 1155 q 430 1131 444 1155 q 411 1081 416 1106 l 281 1081 q 327 1268 281 1203 q 447 1333 372 1333 q 523 1318 491 1333 q 580 1283 556 1303 q 625 1248 605 1263 q 664 1233 645 1233 q 702 1257 690 1233 q 718 1306 714 1281 l 848 1306 q 805 1119 848 1185 q 691 1053 762 1053 z "},"Ṍ":{"ha":1128,"x_min":42,"x_max":1086,"o":"m 569 -20 q 331 21 431 -20 q 167 135 231 63 q 73 300 103 208 q 42 494 42 392 q 99 756 42 638 q 270 942 156 873 q 562 1012 385 1012 q 794 972 696 1012 q 958 860 893 931 q 1054 696 1022 790 q 1086 495 1086 602 q 1028 230 1086 347 q 854 47 969 114 q 569 -20 739 -20 m 565 213 q 661 235 620 213 q 731 296 702 257 q 773 386 759 335 q 788 495 788 438 q 772 607 788 555 q 727 697 756 658 q 658 757 699 735 q 565 778 617 778 q 470 757 512 778 q 400 696 428 735 q 356 605 372 657 q 341 495 341 553 q 356 386 341 438 q 398 296 370 335 q 468 235 426 257 q 565 213 510 213 m 691 1053 q 613 1069 647 1053 q 553 1104 579 1084 q 508 1140 528 1124 q 472 1155 488 1155 q 430 1131 444 1155 q 411 1081 416 1106 l 281 1081 q 327 1268 281 1203 q 447 1333 372 1333 q 523 1318 491 1333 q 580 1283 556 1303 q 625 1248 605 1263 q 664 1233 645 1233 q 702 1257 690 1233 q 718 1306 714 1281 l 848 1306 q 805 1119 848 1185 q 691 1053 762 1053 m 412 1390 q 494 1525 453 1458 q 575 1660 535 1592 l 839 1665 q 757 1572 797 1618 q 677 1481 716 1526 q 599 1393 638 1436 l 412 1390 z "},"Ṏ":{"ha":1128,"x_min":42,"x_max":1086,"o":"m 569 -20 q 331 21 431 -20 q 167 135 231 63 q 73 300 103 208 q 42 494 42 392 q 99 756 42 638 q 270 942 156 873 q 562 1012 385 1012 q 794 972 696 1012 q 958 860 893 931 q 1054 696 1022 790 q 1086 495 1086 602 q 1028 230 1086 347 q 854 47 969 114 q 569 -20 739 -20 m 565 213 q 661 235 620 213 q 731 296 702 257 q 773 386 759 335 q 788 495 788 438 q 772 607 788 555 q 727 697 756 658 q 658 757 699 735 q 565 778 617 778 q 470 757 512 778 q 400 696 428 735 q 356 605 372 657 q 341 495 341 553 q 356 386 341 438 q 398 296 370 335 q 468 235 426 257 q 565 213 510 213 m 691 1053 q 613 1069 647 1053 q 553 1104 579 1084 q 508 1140 528 1124 q 472 1155 488 1155 q 430 1131 444 1155 q 411 1081 416 1106 l 281 1081 q 327 1268 281 1203 q 447 1333 372 1333 q 523 1318 491 1333 q 580 1283 556 1303 q 625 1248 605 1263 q 664 1233 645 1233 q 702 1257 690 1233 q 718 1306 714 1281 l 848 1306 q 805 1119 848 1185 q 691 1053 762 1053 m 728 1384 q 634 1416 668 1384 q 600 1513 600 1448 q 634 1603 600 1569 q 730 1638 669 1638 q 824 1601 790 1638 q 858 1513 858 1565 q 824 1416 858 1448 q 728 1384 790 1384 m 401 1384 q 307 1416 340 1384 q 273 1513 273 1448 q 307 1603 273 1569 q 402 1638 341 1638 q 496 1601 462 1638 q 530 1513 530 1565 q 496 1416 530 1448 q 401 1384 462 1384 z "},"Ȭ":{"ha":1128,"x_min":42,"x_max":1086,"o":"m 569 -20 q 331 21 431 -20 q 167 135 231 63 q 73 300 103 208 q 42 494 42 392 q 99 756 42 638 q 270 942 156 873 q 562 1012 385 1012 q 794 972 696 1012 q 958 860 893 931 q 1054 696 1022 790 q 1086 495 1086 602 q 1028 230 1086 347 q 854 47 969 114 q 569 -20 739 -20 m 565 213 q 661 235 620 213 q 731 296 702 257 q 773 386 759 335 q 788 495 788 438 q 772 607 788 555 q 727 697 756 658 q 658 757 699 735 q 565 778 617 778 q 470 757 512 778 q 400 696 428 735 q 356 605 372 657 q 341 495 341 553 q 356 386 341 438 q 398 296 370 335 q 468 235 426 257 q 565 213 510 213 m 691 1053 q 613 1069 647 1053 q 553 1104 579 1084 q 508 1140 528 1124 q 472 1155 488 1155 q 430 1131 444 1155 q 411 1081 416 1106 l 281 1081 q 327 1268 281 1203 q 447 1333 372 1333 q 523 1318 491 1333 q 580 1283 556 1303 q 625 1248 605 1263 q 664 1233 645 1233 q 702 1257 690 1233 q 718 1306 714 1281 l 848 1306 q 805 1119 848 1185 q 691 1053 762 1053 m 317 1418 l 317 1607 q 434 1607 372 1607 q 565 1607 497 1607 q 695 1607 633 1607 q 813 1607 757 1607 l 813 1418 q 695 1418 757 1418 q 565 1418 633 1418 q 434 1418 497 1418 q 317 1418 372 1418 z "},"Œ":{"ha":1476,"x_min":42,"x_max":1414,"o":"m 574 -20 q 352 16 451 -20 q 185 119 254 52 q 79 281 116 187 q 42 493 42 376 q 102 759 42 642 q 276 944 161 876 q 556 1012 391 1012 q 681 1002 619 1012 q 797 975 742 992 q 892 938 851 958 l 871 674 q 719 749 790 727 q 590 771 649 771 q 463 740 519 771 q 374 647 406 709 q 341 494 341 585 q 358 387 341 438 q 408 297 374 336 q 493 235 442 257 q 613 213 544 213 q 741 232 676 213 q 873 301 806 251 l 888 40 q 796 6 847 19 q 688 -14 744 -8 q 574 -20 631 -20 m 725 0 q 725 152 725 78 q 725 320 725 226 l 725 659 q 725 833 725 756 q 725 990 725 910 l 1406 990 l 1406 762 q 1276 762 1345 762 q 1112 762 1206 762 l 886 762 l 1005 944 q 1005 787 1005 864 q 1005 613 1005 710 l 1005 367 q 1005 199 1005 273 q 1005 46 1005 124 l 904 228 l 1131 228 q 1280 228 1210 228 q 1414 228 1349 228 l 1414 0 l 725 0 m 939 394 l 939 601 l 1114 601 q 1266 601 1202 601 q 1388 601 1329 601 l 1388 394 q 1263 394 1326 394 q 1114 394 1199 394 l 939 394 z "},"P":{"ha":919,"x_min":80,"x_max":883,"o":"m 80 0 q 80 152 80 78 q 80 320 80 226 l 80 659 q 80 833 80 756 q 80 990 80 910 q 251 990 142 990 q 503 990 360 990 q 712 961 627 990 q 840 859 797 931 q 883 663 883 788 q 848 484 883 560 q 735 364 812 407 q 535 321 658 321 q 463 321 501 321 q 389 321 425 321 q 327 321 353 321 l 327 528 l 466 528 q 538 541 510 528 q 579 583 566 555 q 592 653 592 610 q 584 709 592 687 q 560 745 575 732 q 525 765 544 759 q 483 771 505 771 l 226 771 l 362 944 q 362 787 362 864 q 362 613 362 710 l 362 320 q 362 152 362 226 q 362 0 362 78 l 80 0 z "},"Þ":{"ha":919,"x_min":80,"x_max":883,"o":"m 80 0 q 80 152 80 78 q 80 320 80 226 l 80 659 q 80 833 80 756 q 80 990 80 910 l 362 990 q 362 833 362 910 q 362 659 362 756 l 362 320 q 362 152 362 226 q 362 0 362 78 l 80 0 m 535 182 q 464 182 501 182 q 390 182 426 182 q 327 182 353 182 l 327 389 l 466 389 q 538 402 510 389 q 579 444 566 416 q 592 515 592 472 q 584 570 592 548 q 560 607 575 593 q 525 626 544 620 q 483 632 505 632 l 327 632 l 327 851 q 410 851 368 851 q 503 851 451 851 q 712 822 627 851 q 840 720 797 792 q 883 523 883 649 q 848 344 883 421 q 735 225 812 267 q 535 182 658 182 z "},"Q":{"ha":1128,"x_min":42,"x_max":1086,"o":"m 810 -246 q 727 -168 768 -206 q 649 -95 687 -131 l 548 -1 l 702 152 l 856 27 q 956 -53 907 -13 q 1059 -137 1005 -92 l 810 -246 m 569 -20 q 331 21 431 -20 q 167 135 231 63 q 73 300 103 208 q 42 494 42 392 q 99 756 42 638 q 270 942 156 873 q 562 1012 385 1012 q 794 972 696 1012 q 958 860 893 931 q 1054 696 1022 790 q 1086 495 1086 602 q 1028 230 1086 347 q 854 47 969 114 q 569 -20 739 -20 m 565 213 q 661 235 620 213 q 731 296 702 257 q 773 386 759 335 q 788 495 788 438 q 772 607 788 555 q 727 697 756 658 q 658 757 699 735 q 565 778 617 778 q 470 757 512 778 q 400 696 428 735 q 356 605 372 657 q 341 495 341 553 q 356 386 341 438 q 398 296 370 335 q 468 235 426 257 q 565 213 510 213 z "},"R":{"ha":977,"x_min":80,"x_max":960,"o":"m 80 0 q 80 152 80 78 q 80 320 80 226 l 80 659 q 80 833 80 756 q 80 990 80 910 q 195 990 128 990 q 337 990 262 990 q 485 990 413 990 q 699 964 611 990 q 834 873 788 938 q 881 694 881 808 q 845 539 881 606 q 736 435 810 472 q 544 397 662 397 l 659 492 l 782 291 q 843 192 810 244 q 906 89 875 139 q 960 0 936 38 l 637 0 q 577 106 606 56 q 520 206 548 157 l 372 472 l 541 357 l 309 357 l 309 541 l 462 541 q 527 551 499 541 q 570 587 555 561 q 585 660 585 613 q 576 714 585 692 q 553 748 568 735 q 518 767 538 761 q 477 772 499 772 l 156 772 l 361 944 q 361 786 361 863 q 361 613 361 709 l 361 320 q 361 152 361 226 q 361 0 361 78 l 80 0 z "},"Ŕ":{"ha":977,"x_min":80,"x_max":960,"o":"m 80 0 q 80 152 80 78 q 80 320 80 226 l 80 659 q 80 833 80 756 q 80 990 80 910 q 195 990 128 990 q 337 990 262 990 q 485 990 413 990 q 699 964 611 990 q 834 873 788 938 q 881 694 881 808 q 845 539 881 606 q 736 435 810 472 q 544 397 662 397 l 659 492 l 782 291 q 843 192 810 244 q 906 89 875 139 q 960 0 936 38 l 637 0 q 577 106 606 56 q 520 206 548 157 l 372 472 l 541 357 l 309 357 l 309 541 l 462 541 q 527 551 499 541 q 570 587 555 561 q 585 660 585 613 q 576 714 585 692 q 553 748 568 735 q 518 767 538 761 q 477 772 499 772 l 156 772 l 361 944 q 361 786 361 863 q 361 613 361 709 l 361 320 q 361 152 361 226 q 361 0 361 78 l 80 0 m 307 1069 q 389 1204 349 1137 q 470 1338 430 1271 l 734 1344 q 652 1250 692 1297 q 572 1159 611 1204 q 494 1072 533 1115 l 307 1069 z "},"Ř":{"ha":977,"x_min":80,"x_max":960,"o":"m 80 0 q 80 152 80 78 q 80 320 80 226 l 80 659 q 80 833 80 756 q 80 990 80 910 q 195 990 128 990 q 337 990 262 990 q 485 990 413 990 q 699 964 611 990 q 834 873 788 938 q 881 694 881 808 q 845 539 881 606 q 736 435 810 472 q 544 397 662 397 l 659 492 l 782 291 q 843 192 810 244 q 906 89 875 139 q 960 0 936 38 l 637 0 q 577 106 606 56 q 520 206 548 157 l 372 472 l 541 357 l 309 357 l 309 541 l 462 541 q 527 551 499 541 q 570 587 555 561 q 585 660 585 613 q 576 714 585 692 q 553 748 568 735 q 518 767 538 761 q 477 772 499 772 l 156 772 l 361 944 q 361 786 361 863 q 361 613 361 709 l 361 320 q 361 152 361 226 q 361 0 361 78 l 80 0 m 328 1068 q 246 1205 287 1137 q 165 1339 205 1273 l 350 1342 q 420 1255 385 1299 q 490 1167 455 1212 l 428 1167 q 497 1254 463 1211 q 565 1339 532 1297 l 753 1339 q 672 1205 713 1273 q 590 1068 631 1137 l 328 1068 z "},"Ŗ":{"ha":977,"x_min":80,"x_max":960,"o":"m 80 0 q 80 152 80 78 q 80 320 80 226 l 80 659 q 80 833 80 756 q 80 990 80 910 q 195 990 128 990 q 337 990 262 990 q 485 990 413 990 q 699 964 611 990 q 834 873 788 938 q 881 694 881 808 q 845 539 881 606 q 736 435 810 472 q 544 397 662 397 l 659 492 l 782 291 q 843 192 810 244 q 906 89 875 139 q 960 0 936 38 l 637 0 q 577 106 606 56 q 520 206 548 157 l 372 472 l 541 357 l 309 357 l 309 541 l 462 541 q 527 551 499 541 q 570 587 555 561 q 585 660 585 613 q 576 714 585 692 q 553 748 568 735 q 518 767 538 761 q 477 772 499 772 l 156 772 l 361 944 q 361 786 361 863 q 361 613 361 709 l 361 320 q 361 152 361 226 q 361 0 361 78 l 80 0 m 347 -404 q 376 -315 369 -360 q 382 -219 382 -269 q 382 -149 382 -184 q 382 -81 382 -115 l 495 -70 q 591 -102 558 -74 q 624 -176 624 -131 q 603 -266 624 -224 q 544 -343 583 -308 q 451 -401 506 -377 l 347 -404 z "},"Ȑ":{"ha":977,"x_min":30,"x_max":960,"o":"m 80 0 q 80 152 80 78 q 80 320 80 226 l 80 659 q 80 833 80 756 q 80 990 80 910 q 195 990 128 990 q 337 990 262 990 q 485 990 413 990 q 699 964 611 990 q 834 873 788 938 q 881 694 881 808 q 845 539 881 606 q 736 435 810 472 q 544 397 662 397 l 659 492 l 782 291 q 843 192 810 244 q 906 89 875 139 q 960 0 936 38 l 637 0 q 577 106 606 56 q 520 206 548 157 l 372 472 l 541 357 l 309 357 l 309 541 l 462 541 q 527 551 499 541 q 570 587 555 561 q 585 660 585 613 q 576 714 585 692 q 553 748 568 735 q 518 767 538 761 q 477 772 499 772 l 156 772 l 361 944 q 361 786 361 863 q 361 613 361 709 l 361 320 q 361 152 361 226 q 361 0 361 78 l 80 0 m 251 1069 q 179 1156 215 1112 q 105 1246 142 1201 q 30 1338 68 1292 l 269 1344 q 346 1207 308 1275 q 422 1072 384 1140 l 251 1069 m 560 1069 q 500 1156 531 1112 q 439 1246 469 1201 q 375 1338 408 1292 l 608 1344 q 667 1208 638 1275 q 727 1072 697 1141 l 560 1069 z "},"Ṛ":{"ha":977,"x_min":80,"x_max":960,"o":"m 80 0 q 80 152 80 78 q 80 320 80 226 l 80 659 q 80 833 80 756 q 80 990 80 910 q 195 990 128 990 q 337 990 262 990 q 485 990 413 990 q 699 964 611 990 q 834 873 788 938 q 881 694 881 808 q 845 539 881 606 q 736 435 810 472 q 544 397 662 397 l 659 492 l 782 291 q 843 192 810 244 q 906 89 875 139 q 960 0 936 38 l 637 0 q 577 106 606 56 q 520 206 548 157 l 372 472 l 541 357 l 309 357 l 309 541 l 462 541 q 527 551 499 541 q 570 587 555 561 q 585 660 585 613 q 576 714 585 692 q 553 748 568 735 q 518 767 538 761 q 477 772 499 772 l 156 772 l 361 944 q 361 786 361 863 q 361 613 361 709 l 361 320 q 361 152 361 226 q 361 0 361 78 l 80 0 m 488 -336 q 378 -305 418 -336 q 338 -201 338 -273 q 378 -105 338 -139 q 489 -70 418 -70 q 599 -106 558 -70 q 639 -201 639 -142 q 599 -305 639 -273 q 488 -336 558 -336 z "},"Ȓ":{"ha":977,"x_min":80,"x_max":960,"o":"m 80 0 q 80 152 80 78 q 80 320 80 226 l 80 659 q 80 833 80 756 q 80 990 80 910 q 195 990 128 990 q 337 990 262 990 q 485 990 413 990 q 699 964 611 990 q 834 873 788 938 q 881 694 881 808 q 845 539 881 606 q 736 435 810 472 q 544 397 662 397 l 659 492 l 782 291 q 843 192 810 244 q 906 89 875 139 q 960 0 936 38 l 637 0 q 577 106 606 56 q 520 206 548 157 l 372 472 l 541 357 l 309 357 l 309 541 l 462 541 q 527 551 499 541 q 570 587 555 561 q 585 660 585 613 q 576 714 585 692 q 553 748 568 735 q 518 767 538 761 q 477 772 499 772 l 156 772 l 361 944 q 361 786 361 863 q 361 613 361 709 l 361 320 q 361 152 361 226 q 361 0 361 78 l 80 0 m 561 1058 q 537 1158 561 1122 q 460 1194 513 1194 q 381 1159 405 1194 q 357 1065 357 1124 l 183 1065 q 213 1234 183 1169 q 305 1331 243 1300 q 460 1363 366 1363 q 666 1291 597 1363 q 735 1065 735 1220 l 561 1058 z "},"Ṟ":{"ha":977,"x_min":80,"x_max":960,"o":"m 80 0 q 80 152 80 78 q 80 320 80 226 l 80 659 q 80 833 80 756 q 80 990 80 910 q 195 990 128 990 q 337 990 262 990 q 485 990 413 990 q 699 964 611 990 q 834 873 788 938 q 881 694 881 808 q 845 539 881 606 q 736 435 810 472 q 544 397 662 397 l 659 492 l 782 291 q 843 192 810 244 q 906 89 875 139 q 960 0 936 38 l 637 0 q 577 106 606 56 q 520 206 548 157 l 372 472 l 541 357 l 309 357 l 309 541 l 462 541 q 527 551 499 541 q 570 587 555 561 q 585 660 585 613 q 576 714 585 692 q 553 748 568 735 q 518 767 538 761 q 477 772 499 772 l 156 772 l 361 944 q 361 786 361 863 q 361 613 361 709 l 361 320 q 361 152 361 226 q 361 0 361 78 l 80 0 m 240 -282 l 240 -93 q 357 -93 295 -93 q 488 -93 419 -93 q 618 -93 556 -93 q 735 -93 680 -93 l 735 -282 q 618 -282 680 -282 q 488 -282 556 -282 q 357 -282 419 -282 q 240 -282 295 -282 z "},"S":{"ha":845,"x_min":45,"x_max":811,"o":"m 410 -20 q 282 -10 349 -20 q 158 15 216 -1 q 63 48 99 31 l 82 289 q 184 244 131 263 q 290 215 238 225 q 387 205 342 205 q 454 214 426 205 q 496 241 481 223 q 510 288 510 260 q 488 340 510 319 q 423 375 465 360 q 324 406 381 390 q 174 465 236 430 q 78 557 112 501 q 45 703 45 614 q 84 865 45 796 q 203 973 123 935 q 408 1012 283 1012 q 503 1006 455 1012 q 598 991 552 1001 q 685 970 644 982 q 756 944 726 958 l 736 700 q 642 745 690 727 q 548 773 594 764 q 467 782 503 782 q 405 774 431 782 q 363 748 378 765 q 347 703 347 731 q 363 658 347 676 q 413 626 379 640 q 497 597 446 613 q 685 525 616 564 q 782 431 753 487 q 811 292 811 376 q 770 125 811 195 q 640 17 728 55 q 410 -20 551 -20 z "},"Ś":{"ha":845,"x_min":45,"x_max":811,"o":"m 410 -20 q 282 -10 349 -20 q 158 15 216 -1 q 63 48 99 31 l 82 289 q 184 244 131 263 q 290 215 238 225 q 387 205 342 205 q 454 214 426 205 q 496 241 481 223 q 510 288 510 260 q 488 340 510 319 q 423 375 465 360 q 324 406 381 390 q 174 465 236 430 q 78 557 112 501 q 45 703 45 614 q 84 865 45 796 q 203 973 123 935 q 408 1012 283 1012 q 503 1006 455 1012 q 598 991 552 1001 q 685 970 644 982 q 756 944 726 958 l 736 700 q 642 745 690 727 q 548 773 594 764 q 467 782 503 782 q 405 774 431 782 q 363 748 378 765 q 347 703 347 731 q 363 658 347 676 q 413 626 379 640 q 497 597 446 613 q 685 525 616 564 q 782 431 753 487 q 811 292 811 376 q 770 125 811 195 q 640 17 728 55 q 410 -20 551 -20 m 271 1069 q 353 1204 313 1137 q 434 1338 394 1271 l 698 1344 q 616 1250 656 1297 q 536 1159 575 1204 q 458 1072 497 1115 l 271 1069 z "},"Ṥ":{"ha":845,"x_min":45,"x_max":811,"o":"m 410 -20 q 282 -10 349 -20 q 158 15 216 -1 q 63 48 99 31 l 82 289 q 184 244 131 263 q 290 215 238 225 q 387 205 342 205 q 454 214 426 205 q 496 241 481 223 q 510 288 510 260 q 488 340 510 319 q 423 375 465 360 q 324 406 381 390 q 174 465 236 430 q 78 557 112 501 q 45 703 45 614 q 84 865 45 796 q 203 973 123 935 q 408 1012 283 1012 q 503 1006 455 1012 q 598 991 552 1001 q 685 970 644 982 q 756 944 726 958 l 736 700 q 642 745 690 727 q 548 773 594 764 q 467 782 503 782 q 405 774 431 782 q 363 748 378 765 q 347 703 347 731 q 363 658 347 676 q 413 626 379 640 q 497 597 446 613 q 685 525 616 564 q 782 431 753 487 q 811 292 811 376 q 770 125 811 195 q 640 17 728 55 q 410 -20 551 -20 m 271 1069 q 353 1204 313 1137 q 434 1338 394 1271 l 698 1344 q 616 1250 656 1297 q 536 1159 575 1204 q 458 1072 497 1115 l 271 1069 m 422 1389 q 313 1420 353 1389 q 272 1524 272 1452 q 313 1621 272 1587 q 424 1655 353 1655 q 534 1619 494 1655 q 574 1524 574 1584 q 533 1420 574 1452 q 422 1389 493 1389 z "},"Š":{"ha":845,"x_min":45,"x_max":811,"o":"m 410 -20 q 282 -10 349 -20 q 158 15 216 -1 q 63 48 99 31 l 82 289 q 184 244 131 263 q 290 215 238 225 q 387 205 342 205 q 454 214 426 205 q 496 241 481 223 q 510 288 510 260 q 488 340 510 319 q 423 375 465 360 q 324 406 381 390 q 174 465 236 430 q 78 557 112 501 q 45 703 45 614 q 84 865 45 796 q 203 973 123 935 q 408 1012 283 1012 q 503 1006 455 1012 q 598 991 552 1001 q 685 970 644 982 q 756 944 726 958 l 736 700 q 642 745 690 727 q 548 773 594 764 q 467 782 503 782 q 405 774 431 782 q 363 748 378 765 q 347 703 347 731 q 363 658 347 676 q 413 626 379 640 q 497 597 446 613 q 685 525 616 564 q 782 431 753 487 q 811 292 811 376 q 770 125 811 195 q 640 17 728 55 q 410 -20 551 -20 m 292 1068 q 210 1205 251 1137 q 128 1339 169 1273 l 314 1342 q 384 1255 349 1299 q 454 1167 419 1212 l 392 1167 q 461 1254 426 1211 q 529 1339 496 1297 l 717 1339 q 636 1205 676 1273 q 553 1068 595 1137 l 292 1068 z "},"Ṧ":{"ha":845,"x_min":45,"x_max":811,"o":"m 410 -20 q 282 -10 349 -20 q 158 15 216 -1 q 63 48 99 31 l 82 289 q 184 244 131 263 q 290 215 238 225 q 387 205 342 205 q 454 214 426 205 q 496 241 481 223 q 510 288 510 260 q 488 340 510 319 q 423 375 465 360 q 324 406 381 390 q 174 465 236 430 q 78 557 112 501 q 45 703 45 614 q 84 865 45 796 q 203 973 123 935 q 408 1012 283 1012 q 503 1006 455 1012 q 598 991 552 1001 q 685 970 644 982 q 756 944 726 958 l 736 700 q 642 745 690 727 q 548 773 594 764 q 467 782 503 782 q 405 774 431 782 q 363 748 378 765 q 347 703 347 731 q 363 658 347 676 q 413 626 379 640 q 497 597 446 613 q 685 525 616 564 q 782 431 753 487 q 811 292 811 376 q 770 125 811 195 q 640 17 728 55 q 410 -20 551 -20 m 292 1068 q 210 1205 251 1137 q 128 1339 169 1273 l 314 1342 q 384 1255 349 1299 q 454 1167 419 1212 l 392 1167 q 461 1254 426 1211 q 529 1339 496 1297 l 717 1339 q 636 1205 676 1273 q 553 1068 595 1137 l 292 1068 m 422 1386 q 313 1418 353 1386 q 272 1521 272 1449 q 313 1618 272 1584 q 424 1652 353 1652 q 534 1617 494 1652 q 574 1521 574 1581 q 533 1418 574 1449 q 422 1386 493 1386 z "},"Ş":{"ha":845,"x_min":45,"x_max":811,"o":"m 410 -20 q 282 -10 349 -20 q 158 15 216 -1 q 63 48 99 31 l 82 289 q 184 244 131 263 q 290 215 238 225 q 387 205 342 205 q 454 214 426 205 q 496 241 481 223 q 510 288 510 260 q 488 340 510 319 q 423 375 465 360 q 324 406 381 390 q 174 465 236 430 q 78 557 112 501 q 45 703 45 614 q 84 865 45 796 q 203 973 123 935 q 408 1012 283 1012 q 503 1006 455 1012 q 598 991 552 1001 q 685 970 644 982 q 756 944 726 958 l 736 700 q 642 745 690 727 q 548 773 594 764 q 467 782 503 782 q 405 774 431 782 q 363 748 378 765 q 347 703 347 731 q 363 658 347 676 q 413 626 379 640 q 497 597 446 613 q 685 525 616 564 q 782 431 753 487 q 811 292 811 376 q 770 125 811 195 q 640 17 728 55 q 410 -20 551 -20 m 383 -312 q 344 -310 363 -312 q 309 -306 325 -309 q 283 -299 293 -303 l 283 -161 q 307 -166 291 -163 q 342 -169 323 -169 q 392 -159 375 -169 q 408 -128 408 -149 q 401 -106 408 -116 q 376 -87 393 -96 q 328 -69 358 -78 l 376 44 l 507 44 l 507 0 l 481 -62 q 553 -89 526 -72 q 593 -130 581 -106 q 605 -185 605 -153 q 584 -250 605 -221 q 515 -295 563 -278 q 383 -312 466 -312 z "},"Ŝ":{"ha":845,"x_min":45,"x_max":811,"o":"m 410 -20 q 282 -10 349 -20 q 158 15 216 -1 q 63 48 99 31 l 82 289 q 184 244 131 263 q 290 215 238 225 q 387 205 342 205 q 454 214 426 205 q 496 241 481 223 q 510 288 510 260 q 488 340 510 319 q 423 375 465 360 q 324 406 381 390 q 174 465 236 430 q 78 557 112 501 q 45 703 45 614 q 84 865 45 796 q 203 973 123 935 q 408 1012 283 1012 q 503 1006 455 1012 q 598 991 552 1001 q 685 970 644 982 q 756 944 726 958 l 736 700 q 642 745 690 727 q 548 773 594 764 q 467 782 503 782 q 405 774 431 782 q 363 748 378 765 q 347 703 347 731 q 363 658 347 676 q 413 626 379 640 q 497 597 446 613 q 685 525 616 564 q 782 431 753 487 q 811 292 811 376 q 770 125 811 195 q 640 17 728 55 q 410 -20 551 -20 m 532 1067 q 463 1155 497 1111 q 392 1242 428 1198 l 454 1242 q 385 1156 419 1199 q 317 1070 351 1113 l 129 1070 q 210 1205 169 1137 q 292 1341 251 1272 l 554 1341 q 636 1205 595 1272 q 717 1070 677 1137 l 532 1067 z "},"Ș":{"ha":845,"x_min":45,"x_max":811,"o":"m 410 -20 q 282 -10 349 -20 q 158 15 216 -1 q 63 48 99 31 l 82 289 q 184 244 131 263 q 290 215 238 225 q 387 205 342 205 q 454 214 426 205 q 496 241 481 223 q 510 288 510 260 q 488 340 510 319 q 423 375 465 360 q 324 406 381 390 q 174 465 236 430 q 78 557 112 501 q 45 703 45 614 q 84 865 45 796 q 203 973 123 935 q 408 1012 283 1012 q 503 1006 455 1012 q 598 991 552 1001 q 685 970 644 982 q 756 944 726 958 l 736 700 q 642 745 690 727 q 548 773 594 764 q 467 782 503 782 q 405 774 431 782 q 363 748 378 765 q 347 703 347 731 q 363 658 347 676 q 413 626 379 640 q 497 597 446 613 q 685 525 616 564 q 782 431 753 487 q 811 292 811 376 q 770 125 811 195 q 640 17 728 55 q 410 -20 551 -20 m 283 -404 q 312 -315 306 -360 q 318 -219 318 -269 q 318 -149 318 -184 q 318 -81 318 -115 l 431 -70 q 527 -102 494 -74 q 560 -176 560 -131 q 539 -266 560 -224 q 480 -343 519 -308 q 387 -401 442 -377 l 283 -404 z "},"Ṡ":{"ha":845,"x_min":45,"x_max":811,"o":"m 410 -20 q 282 -10 349 -20 q 158 15 216 -1 q 63 48 99 31 l 82 289 q 184 244 131 263 q 290 215 238 225 q 387 205 342 205 q 454 214 426 205 q 496 241 481 223 q 510 288 510 260 q 488 340 510 319 q 423 375 465 360 q 324 406 381 390 q 174 465 236 430 q 78 557 112 501 q 45 703 45 614 q 84 865 45 796 q 203 973 123 935 q 408 1012 283 1012 q 503 1006 455 1012 q 598 991 552 1001 q 685 970 644 982 q 756 944 726 958 l 736 700 q 642 745 690 727 q 548 773 594 764 q 467 782 503 782 q 405 774 431 782 q 363 748 378 765 q 347 703 347 731 q 363 658 347 676 q 413 626 379 640 q 497 597 446 613 q 685 525 616 564 q 782 431 753 487 q 811 292 811 376 q 770 125 811 195 q 640 17 728 55 q 410 -20 551 -20 m 423 1063 q 314 1094 354 1063 q 273 1197 273 1126 q 314 1294 273 1260 q 424 1328 354 1328 q 534 1293 494 1328 q 574 1197 574 1258 q 534 1094 574 1126 q 423 1063 494 1063 z "},"Ṣ":{"ha":845,"x_min":45,"x_max":811,"o":"m 410 -20 q 282 -10 349 -20 q 158 15 216 -1 q 63 48 99 31 l 82 289 q 184 244 131 263 q 290 215 238 225 q 387 205 342 205 q 454 214 426 205 q 496 241 481 223 q 510 288 510 260 q 488 340 510 319 q 423 375 465 360 q 324 406 381 390 q 174 465 236 430 q 78 557 112 501 q 45 703 45 614 q 84 865 45 796 q 203 973 123 935 q 408 1012 283 1012 q 503 1006 455 1012 q 598 991 552 1001 q 685 970 644 982 q 756 944 726 958 l 736 700 q 642 745 690 727 q 548 773 594 764 q 467 782 503 782 q 405 774 431 782 q 363 748 378 765 q 347 703 347 731 q 363 658 347 676 q 413 626 379 640 q 497 597 446 613 q 685 525 616 564 q 782 431 753 487 q 811 292 811 376 q 770 125 811 195 q 640 17 728 55 q 410 -20 551 -20 m 424 -336 q 314 -305 354 -336 q 274 -201 274 -273 q 314 -105 274 -139 q 425 -70 354 -70 q 535 -106 494 -70 q 575 -201 575 -142 q 535 -305 575 -273 q 424 -336 494 -336 z "},"Ṩ":{"ha":845,"x_min":45,"x_max":811,"o":"m 410 -20 q 282 -10 349 -20 q 158 15 216 -1 q 63 48 99 31 l 82 289 q 184 244 131 263 q 290 215 238 225 q 387 205 342 205 q 454 214 426 205 q 496 241 481 223 q 510 288 510 260 q 488 340 510 319 q 423 375 465 360 q 324 406 381 390 q 174 465 236 430 q 78 557 112 501 q 45 703 45 614 q 84 865 45 796 q 203 973 123 935 q 408 1012 283 1012 q 503 1006 455 1012 q 598 991 552 1001 q 685 970 644 982 q 756 944 726 958 l 736 700 q 642 745 690 727 q 548 773 594 764 q 467 782 503 782 q 405 774 431 782 q 363 748 378 765 q 347 703 347 731 q 363 658 347 676 q 413 626 379 640 q 497 597 446 613 q 685 525 616 564 q 782 431 753 487 q 811 292 811 376 q 770 125 811 195 q 640 17 728 55 q 410 -20 551 -20 m 424 -336 q 314 -305 354 -336 q 274 -201 274 -273 q 314 -105 274 -139 q 425 -70 354 -70 q 535 -106 494 -70 q 575 -201 575 -142 q 535 -305 575 -273 q 424 -336 494 -336 m 423 1063 q 314 1094 354 1063 q 273 1197 273 1126 q 314 1294 273 1260 q 424 1328 354 1328 q 534 1293 494 1328 q 574 1197 574 1258 q 534 1094 574 1126 q 423 1063 494 1063 z "},"ẞ":{"ha":1020,"x_min":74,"x_max":983,"o":"m 591 -9 q 548 -7 575 -9 q 495 -2 522 -5 q 453 4 468 1 l 453 219 q 492 213 468 216 q 538 209 515 209 q 620 220 588 209 q 667 253 652 231 q 682 308 682 276 q 635 385 682 356 q 495 428 588 415 l 495 582 q 555 634 524 608 q 613 685 585 660 l 728 786 l 729 690 q 675 737 708 717 q 602 768 642 757 q 518 778 562 778 q 428 759 463 778 q 376 701 393 740 q 360 601 360 662 l 360 320 q 360 152 360 226 q 360 0 360 78 l 74 0 q 74 152 74 78 q 74 320 74 226 q 74 469 74 394 q 74 617 74 543 q 118 832 74 744 q 256 966 162 920 q 502 1012 351 1012 q 630 1002 568 1012 q 747 978 692 993 q 847 943 802 963 q 922 905 891 924 l 901 683 q 828 632 865 658 q 754 581 791 607 l 626 492 l 624 598 q 832 539 753 578 q 947 438 910 500 q 983 288 983 376 q 946 132 983 199 q 824 28 910 65 q 591 -9 738 -9 z "},"Ə":{"ha":1078,"x_min":42,"x_max":1036,"o":"m 535 -20 q 309 20 403 -20 q 157 132 215 61 q 70 293 98 203 q 42 483 42 384 l 51 592 l 799 592 l 799 397 l 283 397 l 321 440 q 332 358 320 398 q 368 285 343 318 q 435 232 394 251 q 534 213 476 213 q 629 231 589 213 q 695 285 669 250 q 735 368 722 320 q 749 472 749 415 l 749 571 q 726 659 747 621 q 668 725 706 698 q 581 765 631 751 q 469 778 530 778 q 385 773 426 778 q 304 755 344 767 q 227 727 265 744 q 153 692 189 711 l 133 938 q 203 965 165 951 q 290 989 242 978 q 391 1006 337 999 q 508 1012 446 1012 q 734 977 635 1012 q 899 875 832 942 q 1001 713 967 808 q 1036 495 1036 617 q 980 225 1036 341 q 812 44 924 109 q 535 -20 700 -20 z "},"T":{"ha":901,"x_min":32,"x_max":869,"o":"m 308 0 q 308 152 308 78 q 308 320 308 226 l 308 613 q 308 787 308 710 q 308 944 308 864 l 415 742 l 276 742 q 142 742 200 742 q 32 742 84 742 l 32 990 l 869 990 l 869 742 q 759 742 817 742 q 625 742 701 742 l 486 742 l 593 944 q 593 787 593 864 q 593 613 593 710 l 593 320 q 593 152 593 226 q 593 0 593 78 l 308 0 z "},"Ŧ":{"ha":901,"x_min":32,"x_max":869,"o":"m 153 332 l 153 522 q 290 522 224 522 q 416 522 356 522 l 486 522 q 613 522 547 522 q 749 522 679 522 l 749 332 q 613 332 679 332 q 486 332 547 332 l 416 332 q 290 332 356 332 q 153 332 224 332 m 308 0 q 308 152 308 78 q 308 320 308 226 l 308 613 q 308 787 308 710 q 308 944 308 864 l 415 742 l 276 742 q 142 742 200 742 q 32 742 84 742 l 32 990 l 869 990 l 869 742 q 759 742 817 742 q 625 742 701 742 l 486 742 l 593 944 q 593 787 593 864 q 593 613 593 710 l 593 320 q 593 152 593 226 q 593 0 593 78 l 308 0 z "},"Ť":{"ha":901,"x_min":32,"x_max":869,"o":"m 308 0 q 308 152 308 78 q 308 320 308 226 l 308 613 q 308 787 308 710 q 308 944 308 864 l 415 742 l 276 742 q 142 742 200 742 q 32 742 84 742 l 32 990 l 869 990 l 869 742 q 759 742 817 742 q 625 742 701 742 l 486 742 l 593 944 q 593 787 593 864 q 593 613 593 710 l 593 320 q 593 152 593 226 q 593 0 593 78 l 308 0 m 319 1068 q 237 1205 278 1137 q 156 1339 196 1273 l 341 1342 q 411 1255 376 1299 q 481 1167 446 1212 l 419 1167 q 488 1254 453 1211 q 556 1339 523 1297 l 744 1339 q 663 1205 703 1273 q 581 1068 622 1137 l 319 1068 z "},"Ţ":{"ha":901,"x_min":32,"x_max":869,"o":"m 308 0 q 308 152 308 78 q 308 320 308 226 l 308 613 q 308 787 308 710 q 308 944 308 864 l 415 742 l 276 742 q 142 742 200 742 q 32 742 84 742 l 32 990 l 869 990 l 869 742 q 759 742 817 742 q 625 742 701 742 l 486 742 l 593 944 q 593 787 593 864 q 593 613 593 710 l 593 320 q 593 152 593 226 q 593 0 593 78 l 308 0 m 410 -312 q 371 -310 390 -312 q 336 -306 352 -309 q 310 -299 320 -303 l 310 -161 q 334 -166 318 -163 q 369 -169 350 -169 q 419 -159 402 -169 q 435 -128 435 -149 q 428 -106 435 -116 q 403 -87 420 -96 q 355 -69 385 -78 l 403 44 l 534 44 l 534 0 l 508 -62 q 581 -89 553 -72 q 620 -130 608 -106 q 632 -185 632 -153 q 611 -250 632 -221 q 542 -295 590 -278 q 410 -312 493 -312 z "},"Ț":{"ha":901,"x_min":32,"x_max":869,"o":"m 308 0 q 308 152 308 78 q 308 320 308 226 l 308 613 q 308 787 308 710 q 308 944 308 864 l 415 742 l 276 742 q 142 742 200 742 q 32 742 84 742 l 32 990 l 869 990 l 869 742 q 759 742 817 742 q 625 742 701 742 l 486 742 l 593 944 q 593 787 593 864 q 593 613 593 710 l 593 320 q 593 152 593 226 q 593 0 593 78 l 308 0 m 310 -404 q 339 -315 333 -360 q 345 -219 345 -269 q 345 -149 345 -184 q 345 -81 345 -115 l 458 -70 q 554 -102 522 -74 q 587 -176 587 -131 q 566 -266 587 -224 q 507 -343 546 -308 q 414 -401 469 -377 l 310 -404 z "},"Ṭ":{"ha":901,"x_min":32,"x_max":869,"o":"m 308 0 q 308 152 308 78 q 308 320 308 226 l 308 613 q 308 787 308 710 q 308 944 308 864 l 415 742 l 276 742 q 142 742 200 742 q 32 742 84 742 l 32 990 l 869 990 l 869 742 q 759 742 817 742 q 625 742 701 742 l 486 742 l 593 944 q 593 787 593 864 q 593 613 593 710 l 593 320 q 593 152 593 226 q 593 0 593 78 l 308 0 m 451 -336 q 341 -305 381 -336 q 301 -201 301 -273 q 341 -105 301 -139 q 452 -70 381 -70 q 562 -106 522 -70 q 602 -201 602 -142 q 562 -305 602 -273 q 451 -336 522 -336 z "},"Ṯ":{"ha":901,"x_min":32,"x_max":869,"o":"m 308 0 q 308 152 308 78 q 308 320 308 226 l 308 613 q 308 787 308 710 q 308 944 308 864 l 415 742 l 276 742 q 142 742 200 742 q 32 742 84 742 l 32 990 l 869 990 l 869 742 q 759 742 817 742 q 625 742 701 742 l 486 742 l 593 944 q 593 787 593 864 q 593 613 593 710 l 593 320 q 593 152 593 226 q 593 0 593 78 l 308 0 m 203 -282 l 203 -93 q 320 -93 258 -93 q 451 -93 383 -93 q 581 -93 519 -93 q 699 -93 643 -93 l 699 -282 q 581 -282 643 -282 q 451 -282 519 -282 q 320 -282 383 -282 q 203 -282 258 -282 z "},"U":{"ha":1010,"x_min":74,"x_max":936,"o":"m 507 -20 q 253 29 349 -20 q 116 169 158 78 q 74 388 74 261 q 74 457 74 413 q 74 554 74 501 q 74 658 74 607 q 74 833 74 756 q 74 990 74 910 l 360 990 q 360 833 360 910 q 360 658 360 756 l 360 400 q 375 298 360 340 q 424 234 391 256 q 506 213 456 213 q 590 234 558 213 q 636 298 622 256 q 650 401 650 340 l 650 658 q 650 833 650 756 q 650 990 650 910 l 936 990 q 936 833 936 910 q 936 658 936 756 q 936 553 936 607 q 936 455 936 499 q 936 387 936 410 q 891 169 936 260 q 751 29 846 78 q 507 -20 656 -20 z "},"Ú":{"ha":1010,"x_min":74,"x_max":936,"o":"m 507 -20 q 253 29 349 -20 q 116 169 158 78 q 74 388 74 261 q 74 457 74 413 q 74 554 74 501 q 74 658 74 607 q 74 833 74 756 q 74 990 74 910 l 360 990 q 360 833 360 910 q 360 658 360 756 l 360 400 q 375 298 360 340 q 424 234 391 256 q 506 213 456 213 q 590 234 558 213 q 636 298 622 256 q 650 401 650 340 l 650 658 q 650 833 650 756 q 650 990 650 910 l 936 990 q 936 833 936 910 q 936 658 936 756 q 936 553 936 607 q 936 455 936 499 q 936 387 936 410 q 891 169 936 260 q 751 29 846 78 q 507 -20 656 -20 m 353 1069 q 436 1204 395 1137 q 517 1338 476 1271 l 781 1344 q 698 1250 739 1297 q 618 1159 658 1204 q 541 1072 579 1115 l 353 1069 z "},"Ŭ":{"ha":1010,"x_min":74,"x_max":936,"o":"m 507 -20 q 253 29 349 -20 q 116 169 158 78 q 74 388 74 261 q 74 457 74 413 q 74 554 74 501 q 74 658 74 607 q 74 833 74 756 q 74 990 74 910 l 360 990 q 360 833 360 910 q 360 658 360 756 l 360 400 q 375 298 360 340 q 424 234 391 256 q 506 213 456 213 q 590 234 558 213 q 636 298 622 256 q 650 401 650 340 l 650 658 q 650 833 650 756 q 650 990 650 910 l 936 990 q 936 833 936 910 q 936 658 936 756 q 936 553 936 607 q 936 455 936 499 q 936 387 936 410 q 891 169 936 260 q 751 29 846 78 q 507 -20 656 -20 m 505 1052 q 298 1123 367 1052 q 229 1349 229 1194 l 403 1357 q 427 1257 403 1293 q 505 1221 451 1221 q 583 1256 559 1221 q 608 1349 608 1291 l 781 1349 q 751 1180 781 1246 q 659 1083 721 1115 q 505 1052 598 1052 z "},"Û":{"ha":1010,"x_min":74,"x_max":936,"o":"m 507 -20 q 253 29 349 -20 q 116 169 158 78 q 74 388 74 261 q 74 457 74 413 q 74 554 74 501 q 74 658 74 607 q 74 833 74 756 q 74 990 74 910 l 360 990 q 360 833 360 910 q 360 658 360 756 l 360 400 q 375 298 360 340 q 424 234 391 256 q 506 213 456 213 q 590 234 558 213 q 636 298 622 256 q 650 401 650 340 l 650 658 q 650 833 650 756 q 650 990 650 910 l 936 990 q 936 833 936 910 q 936 658 936 756 q 936 553 936 607 q 936 455 936 499 q 936 387 936 410 q 891 169 936 260 q 751 29 846 78 q 507 -20 656 -20 m 615 1067 q 545 1155 580 1111 q 474 1242 510 1198 l 537 1242 q 468 1156 502 1199 q 399 1070 433 1113 l 212 1070 q 293 1205 252 1137 q 375 1341 334 1272 l 637 1341 q 719 1205 678 1272 q 800 1070 760 1137 l 615 1067 z "},"Ȕ":{"ha":1010,"x_min":74,"x_max":936,"o":"m 507 -20 q 253 29 349 -20 q 116 169 158 78 q 74 388 74 261 q 74 457 74 413 q 74 554 74 501 q 74 658 74 607 q 74 833 74 756 q 74 990 74 910 l 360 990 q 360 833 360 910 q 360 658 360 756 l 360 400 q 375 298 360 340 q 424 234 391 256 q 506 213 456 213 q 590 234 558 213 q 636 298 622 256 q 650 401 650 340 l 650 658 q 650 833 650 756 q 650 990 650 910 l 936 990 q 936 833 936 910 q 936 658 936 756 q 936 553 936 607 q 936 455 936 499 q 936 387 936 410 q 891 169 936 260 q 751 29 846 78 q 507 -20 656 -20 m 297 1069 q 225 1156 262 1112 q 152 1246 189 1201 q 76 1338 115 1292 l 316 1344 q 393 1207 355 1275 q 469 1072 431 1140 l 297 1069 m 607 1069 q 547 1156 578 1112 q 485 1246 516 1201 q 422 1338 454 1292 l 654 1344 q 714 1208 684 1275 q 774 1072 743 1141 l 607 1069 z "},"Ü":{"ha":1010,"x_min":74,"x_max":936,"o":"m 507 -20 q 253 29 349 -20 q 116 169 158 78 q 74 388 74 261 q 74 457 74 413 q 74 554 74 501 q 74 658 74 607 q 74 833 74 756 q 74 990 74 910 l 360 990 q 360 833 360 910 q 360 658 360 756 l 360 400 q 375 298 360 340 q 424 234 391 256 q 506 213 456 213 q 590 234 558 213 q 636 298 622 256 q 650 401 650 340 l 650 658 q 650 833 650 756 q 650 990 650 910 l 936 990 q 936 833 936 910 q 936 658 936 756 q 936 553 936 607 q 936 455 936 499 q 936 387 936 410 q 891 169 936 260 q 751 29 846 78 q 507 -20 656 -20 m 670 1063 q 576 1094 610 1063 q 542 1191 542 1126 q 576 1282 542 1247 q 672 1316 610 1316 q 765 1280 731 1316 q 799 1191 799 1244 q 765 1094 799 1126 q 670 1063 731 1063 m 342 1063 q 248 1094 282 1063 q 215 1191 215 1126 q 249 1282 215 1247 q 344 1316 283 1316 q 438 1280 403 1316 q 472 1191 472 1244 q 438 1094 472 1126 q 342 1063 403 1063 z "},"Ụ":{"ha":1010,"x_min":74,"x_max":936,"o":"m 507 -20 q 253 29 349 -20 q 116 169 158 78 q 74 388 74 261 q 74 457 74 413 q 74 554 74 501 q 74 658 74 607 q 74 833 74 756 q 74 990 74 910 l 360 990 q 360 833 360 910 q 360 658 360 756 l 360 400 q 375 298 360 340 q 424 234 391 256 q 506 213 456 213 q 590 234 558 213 q 636 298 622 256 q 650 401 650 340 l 650 658 q 650 833 650 756 q 650 990 650 910 l 936 990 q 936 833 936 910 q 936 658 936 756 q 936 553 936 607 q 936 455 936 499 q 936 387 936 410 q 891 169 936 260 q 751 29 846 78 q 507 -20 656 -20 m 506 -336 q 397 -305 437 -336 q 356 -201 356 -273 q 397 -105 356 -139 q 508 -70 437 -70 q 617 -106 577 -70 q 658 -201 658 -142 q 617 -305 658 -273 q 506 -336 577 -336 z "},"Ù":{"ha":1010,"x_min":74,"x_max":936,"o":"m 507 -20 q 253 29 349 -20 q 116 169 158 78 q 74 388 74 261 q 74 457 74 413 q 74 554 74 501 q 74 658 74 607 q 74 833 74 756 q 74 990 74 910 l 360 990 q 360 833 360 910 q 360 658 360 756 l 360 400 q 375 298 360 340 q 424 234 391 256 q 506 213 456 213 q 590 234 558 213 q 636 298 622 256 q 650 401 650 340 l 650 658 q 650 833 650 756 q 650 990 650 910 l 936 990 q 936 833 936 910 q 936 658 936 756 q 936 553 936 607 q 936 455 936 499 q 936 387 936 410 q 891 169 936 260 q 751 29 846 78 q 507 -20 656 -20 m 472 1069 q 394 1157 433 1113 q 314 1246 354 1201 q 232 1338 274 1292 l 495 1344 q 577 1207 536 1275 q 659 1072 618 1140 l 472 1069 z "},"Ủ":{"ha":1010,"x_min":74,"x_max":936,"o":"m 507 -20 q 253 29 349 -20 q 116 169 158 78 q 74 388 74 261 q 74 457 74 413 q 74 554 74 501 q 74 658 74 607 q 74 833 74 756 q 74 990 74 910 l 360 990 q 360 833 360 910 q 360 658 360 756 l 360 400 q 375 298 360 340 q 424 234 391 256 q 506 213 456 213 q 590 234 558 213 q 636 298 622 256 q 650 401 650 340 l 650 658 q 650 833 650 756 q 650 990 650 910 l 936 990 q 936 833 936 910 q 936 658 936 756 q 936 553 936 607 q 936 455 936 499 q 936 387 936 410 q 891 169 936 260 q 751 29 846 78 q 507 -20 656 -20 m 409 1070 l 409 1145 q 495 1165 458 1147 q 533 1210 533 1183 q 517 1239 533 1230 q 475 1248 501 1248 q 424 1243 449 1248 q 372 1229 398 1238 q 319 1209 346 1220 l 308 1354 q 343 1367 322 1360 q 392 1379 365 1374 q 451 1389 419 1385 q 519 1392 483 1392 q 622 1380 573 1392 q 702 1335 671 1367 q 733 1249 733 1304 q 710 1168 733 1201 q 647 1116 688 1135 q 553 1093 606 1097 l 553 1070 l 409 1070 z "},"Ư":{"ha":1223,"x_min":74,"x_max":1223,"o":"m 507 -20 q 253 29 349 -20 q 116 169 158 78 q 74 388 74 261 q 74 457 74 413 q 74 554 74 501 q 74 658 74 607 q 74 833 74 756 q 74 990 74 910 l 360 990 q 360 833 360 910 q 360 658 360 756 l 360 400 q 375 298 360 340 q 424 234 391 256 q 506 213 456 213 q 590 234 558 213 q 636 298 622 256 q 650 401 650 340 l 650 658 q 650 833 650 756 q 650 990 650 910 l 936 990 q 936 833 936 910 q 936 658 936 756 q 936 553 936 607 q 936 455 936 499 q 936 387 936 410 q 891 169 936 260 q 751 29 846 78 q 507 -20 656 -20 m 883 738 l 856 865 q 962 880 926 865 q 1010 922 998 894 q 1023 989 1023 950 q 1017 1072 1023 1035 q 1005 1142 1012 1108 l 1181 1152 q 1201 1115 1192 1135 q 1217 1065 1211 1094 q 1223 989 1223 1035 q 1188 858 1223 915 q 1077 770 1153 802 q 883 738 1002 738 z "},"Ứ":{"ha":1223,"x_min":74,"x_max":1223,"o":"m 507 -20 q 253 29 349 -20 q 116 169 158 78 q 74 388 74 261 q 74 457 74 413 q 74 554 74 501 q 74 658 74 607 q 74 833 74 756 q 74 990 74 910 l 360 990 q 360 833 360 910 q 360 658 360 756 l 360 400 q 375 298 360 340 q 424 234 391 256 q 506 213 456 213 q 590 234 558 213 q 636 298 622 256 q 650 401 650 340 l 650 658 q 650 833 650 756 q 650 990 650 910 l 936 990 q 936 833 936 910 q 936 658 936 756 q 936 553 936 607 q 936 455 936 499 q 936 387 936 410 q 891 169 936 260 q 751 29 846 78 q 507 -20 656 -20 m 883 738 l 856 865 q 962 880 926 865 q 1010 922 998 894 q 1023 989 1023 950 q 1017 1072 1023 1035 q 1005 1142 1012 1108 l 1181 1152 q 1201 1115 1192 1135 q 1217 1065 1211 1094 q 1223 989 1223 1035 q 1188 858 1223 915 q 1077 770 1153 802 q 883 738 1002 738 m 353 1069 q 436 1204 395 1137 q 517 1338 476 1271 l 781 1344 q 698 1250 739 1297 q 618 1159 658 1204 q 541 1072 579 1115 l 353 1069 z "},"Ự":{"ha":1223,"x_min":74,"x_max":1223,"o":"m 507 -20 q 253 29 349 -20 q 116 169 158 78 q 74 388 74 261 q 74 457 74 413 q 74 554 74 501 q 74 658 74 607 q 74 833 74 756 q 74 990 74 910 l 360 990 q 360 833 360 910 q 360 658 360 756 l 360 400 q 375 298 360 340 q 424 234 391 256 q 506 213 456 213 q 590 234 558 213 q 636 298 622 256 q 650 401 650 340 l 650 658 q 650 833 650 756 q 650 990 650 910 l 936 990 q 936 833 936 910 q 936 658 936 756 q 936 553 936 607 q 936 455 936 499 q 936 387 936 410 q 891 169 936 260 q 751 29 846 78 q 507 -20 656 -20 m 883 738 l 856 865 q 962 880 926 865 q 1010 922 998 894 q 1023 989 1023 950 q 1017 1072 1023 1035 q 1005 1142 1012 1108 l 1181 1152 q 1201 1115 1192 1135 q 1217 1065 1211 1094 q 1223 989 1223 1035 q 1188 858 1223 915 q 1077 770 1153 802 q 883 738 1002 738 m 506 -336 q 397 -305 437 -336 q 356 -201 356 -273 q 397 -105 356 -139 q 508 -70 437 -70 q 617 -106 577 -70 q 658 -201 658 -142 q 617 -305 658 -273 q 506 -336 577 -336 z "},"Ừ":{"ha":1223,"x_min":74,"x_max":1223,"o":"m 507 -20 q 253 29 349 -20 q 116 169 158 78 q 74 388 74 261 q 74 457 74 413 q 74 554 74 501 q 74 658 74 607 q 74 833 74 756 q 74 990 74 910 l 360 990 q 360 833 360 910 q 360 658 360 756 l 360 400 q 375 298 360 340 q 424 234 391 256 q 506 213 456 213 q 590 234 558 213 q 636 298 622 256 q 650 401 650 340 l 650 658 q 650 833 650 756 q 650 990 650 910 l 936 990 q 936 833 936 910 q 936 658 936 756 q 936 553 936 607 q 936 455 936 499 q 936 387 936 410 q 891 169 936 260 q 751 29 846 78 q 507 -20 656 -20 m 883 738 l 856 865 q 962 880 926 865 q 1010 922 998 894 q 1023 989 1023 950 q 1017 1072 1023 1035 q 1005 1142 1012 1108 l 1181 1152 q 1201 1115 1192 1135 q 1217 1065 1211 1094 q 1223 989 1223 1035 q 1188 858 1223 915 q 1077 770 1153 802 q 883 738 1002 738 m 472 1069 q 394 1157 433 1113 q 314 1246 354 1201 q 232 1338 274 1292 l 495 1344 q 577 1207 536 1275 q 659 1072 618 1140 l 472 1069 z "},"Ử":{"ha":1223,"x_min":74,"x_max":1223,"o":"m 507 -20 q 253 29 349 -20 q 116 169 158 78 q 74 388 74 261 q 74 457 74 413 q 74 554 74 501 q 74 658 74 607 q 74 833 74 756 q 74 990 74 910 l 360 990 q 360 833 360 910 q 360 658 360 756 l 360 400 q 375 298 360 340 q 424 234 391 256 q 506 213 456 213 q 590 234 558 213 q 636 298 622 256 q 650 401 650 340 l 650 658 q 650 833 650 756 q 650 990 650 910 l 936 990 q 936 833 936 910 q 936 658 936 756 q 936 553 936 607 q 936 455 936 499 q 936 387 936 410 q 891 169 936 260 q 751 29 846 78 q 507 -20 656 -20 m 883 738 l 856 865 q 962 880 926 865 q 1010 922 998 894 q 1023 989 1023 950 q 1017 1072 1023 1035 q 1005 1142 1012 1108 l 1181 1152 q 1201 1115 1192 1135 q 1217 1065 1211 1094 q 1223 989 1223 1035 q 1188 858 1223 915 q 1077 770 1153 802 q 883 738 1002 738 m 409 1070 l 409 1145 q 495 1165 458 1147 q 533 1210 533 1183 q 517 1239 533 1230 q 475 1248 501 1248 q 424 1243 449 1248 q 372 1229 398 1238 q 319 1209 346 1220 l 308 1354 q 343 1367 322 1360 q 392 1379 365 1374 q 451 1389 419 1385 q 519 1392 483 1392 q 622 1380 573 1392 q 702 1335 671 1367 q 733 1249 733 1304 q 710 1168 733 1201 q 647 1116 688 1135 q 553 1093 606 1097 l 553 1070 l 409 1070 z "},"Ữ":{"ha":1223,"x_min":74,"x_max":1223,"o":"m 507 -20 q 253 29 349 -20 q 116 169 158 78 q 74 388 74 261 q 74 457 74 413 q 74 554 74 501 q 74 658 74 607 q 74 833 74 756 q 74 990 74 910 l 360 990 q 360 833 360 910 q 360 658 360 756 l 360 400 q 375 298 360 340 q 424 234 391 256 q 506 213 456 213 q 590 234 558 213 q 636 298 622 256 q 650 401 650 340 l 650 658 q 650 833 650 756 q 650 990 650 910 l 936 990 q 936 833 936 910 q 936 658 936 756 q 936 553 936 607 q 936 455 936 499 q 936 387 936 410 q 891 169 936 260 q 751 29 846 78 q 507 -20 656 -20 m 883 738 l 856 865 q 962 880 926 865 q 1010 922 998 894 q 1023 989 1023 950 q 1017 1072 1023 1035 q 1005 1142 1012 1108 l 1181 1152 q 1201 1115 1192 1135 q 1217 1065 1211 1094 q 1223 989 1223 1035 q 1188 858 1223 915 q 1077 770 1153 802 q 883 738 1002 738 m 633 1053 q 555 1069 588 1053 q 495 1104 521 1084 q 450 1140 469 1124 q 413 1155 430 1155 q 372 1131 385 1155 q 353 1081 358 1106 l 223 1081 q 268 1268 223 1203 q 389 1333 314 1333 q 465 1318 433 1333 q 522 1283 497 1303 q 567 1248 547 1263 q 606 1233 587 1233 q 644 1257 632 1233 q 660 1306 656 1281 l 790 1306 q 747 1119 790 1185 q 633 1053 703 1053 z "},"Ű":{"ha":1010,"x_min":74,"x_max":945,"o":"m 507 -20 q 253 29 349 -20 q 116 169 158 78 q 74 388 74 261 q 74 457 74 413 q 74 554 74 501 q 74 658 74 607 q 74 833 74 756 q 74 990 74 910 l 360 990 q 360 833 360 910 q 360 658 360 756 l 360 400 q 375 298 360 340 q 424 234 391 256 q 506 213 456 213 q 590 234 558 213 q 636 298 622 256 q 650 401 650 340 l 650 658 q 650 833 650 756 q 650 990 650 910 l 936 990 q 936 833 936 910 q 936 658 936 756 q 936 553 936 607 q 936 455 936 499 q 936 387 936 410 q 891 169 936 260 q 751 29 846 78 q 507 -20 656 -20 m 540 1069 q 618 1203 579 1136 q 697 1338 658 1271 l 945 1344 q 867 1250 906 1297 q 791 1159 828 1204 q 717 1072 753 1115 l 540 1069 m 238 1069 q 298 1204 268 1137 q 359 1338 328 1271 l 597 1344 q 531 1250 563 1297 q 467 1159 499 1204 q 406 1072 435 1115 l 238 1069 z "},"Ȗ":{"ha":1010,"x_min":74,"x_max":936,"o":"m 507 -20 q 253 29 349 -20 q 116 169 158 78 q 74 388 74 261 q 74 457 74 413 q 74 554 74 501 q 74 658 74 607 q 74 833 74 756 q 74 990 74 910 l 360 990 q 360 833 360 910 q 360 658 360 756 l 360 400 q 375 298 360 340 q 424 234 391 256 q 506 213 456 213 q 590 234 558 213 q 636 298 622 256 q 650 401 650 340 l 650 658 q 650 833 650 756 q 650 990 650 910 l 936 990 q 936 833 936 910 q 936 658 936 756 q 936 553 936 607 q 936 455 936 499 q 936 387 936 410 q 891 169 936 260 q 751 29 846 78 q 507 -20 656 -20 m 608 1058 q 584 1158 608 1122 q 506 1194 560 1194 q 427 1159 451 1194 q 403 1065 403 1124 l 229 1065 q 259 1234 229 1169 q 351 1331 290 1300 q 506 1363 413 1363 q 713 1291 644 1363 q 781 1065 781 1220 l 608 1058 z "},"Ū":{"ha":1010,"x_min":74,"x_max":936,"o":"m 507 -20 q 253 29 349 -20 q 116 169 158 78 q 74 388 74 261 q 74 457 74 413 q 74 554 74 501 q 74 658 74 607 q 74 833 74 756 q 74 990 74 910 l 360 990 q 360 833 360 910 q 360 658 360 756 l 360 400 q 375 298 360 340 q 424 234 391 256 q 506 213 456 213 q 590 234 558 213 q 636 298 622 256 q 650 401 650 340 l 650 658 q 650 833 650 756 q 650 990 650 910 l 936 990 q 936 833 936 910 q 936 658 936 756 q 936 553 936 607 q 936 455 936 499 q 936 387 936 410 q 891 169 936 260 q 751 29 846 78 q 507 -20 656 -20 m 258 1097 l 258 1285 q 376 1285 314 1285 q 506 1285 438 1285 q 636 1285 574 1285 q 754 1285 699 1285 l 754 1097 q 636 1097 699 1097 q 506 1097 574 1097 q 376 1097 438 1097 q 258 1097 314 1097 z "},"Ṻ":{"ha":1010,"x_min":74,"x_max":936,"o":"m 507 -20 q 253 29 349 -20 q 116 169 158 78 q 74 388 74 261 q 74 457 74 413 q 74 554 74 501 q 74 658 74 607 q 74 833 74 756 q 74 990 74 910 l 360 990 q 360 833 360 910 q 360 658 360 756 l 360 400 q 375 298 360 340 q 424 234 391 256 q 506 213 456 213 q 590 234 558 213 q 636 298 622 256 q 650 401 650 340 l 650 658 q 650 833 650 756 q 650 990 650 910 l 936 990 q 936 833 936 910 q 936 658 936 756 q 936 553 936 607 q 936 455 936 499 q 936 387 936 410 q 891 169 936 260 q 751 29 846 78 q 507 -20 656 -20 m 258 1097 l 258 1285 q 376 1285 314 1285 q 506 1285 438 1285 q 636 1285 574 1285 q 754 1285 699 1285 l 754 1097 q 636 1097 699 1097 q 506 1097 574 1097 q 376 1097 438 1097 q 258 1097 314 1097 m 670 1348 q 576 1380 610 1348 q 542 1476 542 1412 q 576 1567 542 1533 q 672 1601 610 1601 q 765 1565 731 1601 q 799 1476 799 1529 q 765 1380 799 1412 q 670 1348 731 1348 m 342 1348 q 248 1380 282 1348 q 215 1476 215 1412 q 249 1567 215 1533 q 344 1601 283 1601 q 438 1565 403 1601 q 472 1476 472 1529 q 438 1380 472 1412 q 342 1348 403 1348 z "},"Ų":{"ha":1010,"x_min":74,"x_max":936,"o":"m 507 -20 q 253 29 349 -20 q 116 169 158 78 q 74 388 74 261 q 74 457 74 413 q 74 554 74 501 q 74 658 74 607 q 74 833 74 756 q 74 990 74 910 l 360 990 q 360 833 360 910 q 360 658 360 756 l 360 400 q 375 298 360 340 q 424 234 391 256 q 506 213 456 213 q 590 234 558 213 q 636 298 622 256 q 650 401 650 340 l 650 658 q 650 833 650 756 q 650 990 650 910 l 936 990 q 936 833 936 910 q 936 658 936 756 q 936 553 936 607 q 936 455 936 499 q 936 387 936 410 q 891 169 936 260 q 751 29 846 78 q 507 -20 656 -20 m 575 -310 q 455 -292 500 -310 q 388 -245 409 -275 q 367 -177 367 -215 q 384 -107 367 -138 q 428 -52 401 -76 q 486 -14 455 -29 l 486 35 l 617 51 l 669 0 q 585 -48 617 -21 q 553 -108 553 -75 q 571 -144 553 -132 q 619 -156 588 -156 q 653 -153 639 -156 q 674 -147 667 -149 l 674 -296 q 632 -306 659 -302 q 575 -310 606 -310 z "},"Ů":{"ha":1010,"x_min":74,"x_max":936,"o":"m 507 -20 q 253 29 349 -20 q 116 169 158 78 q 74 388 74 261 q 74 457 74 413 q 74 554 74 501 q 74 658 74 607 q 74 833 74 756 q 74 990 74 910 l 360 990 q 360 833 360 910 q 360 658 360 756 l 360 400 q 375 298 360 340 q 424 234 391 256 q 506 213 456 213 q 590 234 558 213 q 636 298 622 256 q 650 401 650 340 l 650 658 q 650 833 650 756 q 650 990 650 910 l 936 990 q 936 833 936 910 q 936 658 936 756 q 936 553 936 607 q 936 455 936 499 q 936 387 936 410 q 891 169 936 260 q 751 29 846 78 q 507 -20 656 -20 m 505 1051 q 399 1071 444 1051 q 329 1130 354 1090 q 304 1229 304 1169 q 359 1356 304 1309 q 506 1402 415 1402 q 612 1380 567 1402 q 682 1319 657 1358 q 707 1229 707 1280 q 682 1130 707 1169 q 611 1071 657 1090 q 505 1051 566 1051 m 505 1155 q 561 1174 541 1155 q 582 1228 582 1193 q 561 1278 582 1256 q 506 1300 541 1300 q 450 1279 471 1300 q 429 1228 429 1258 q 450 1174 429 1193 q 505 1155 470 1155 z "},"Ũ":{"ha":1010,"x_min":74,"x_max":936,"o":"m 507 -20 q 253 29 349 -20 q 116 169 158 78 q 74 388 74 261 q 74 457 74 413 q 74 554 74 501 q 74 658 74 607 q 74 833 74 756 q 74 990 74 910 l 360 990 q 360 833 360 910 q 360 658 360 756 l 360 400 q 375 298 360 340 q 424 234 391 256 q 506 213 456 213 q 590 234 558 213 q 636 298 622 256 q 650 401 650 340 l 650 658 q 650 833 650 756 q 650 990 650 910 l 936 990 q 936 833 936 910 q 936 658 936 756 q 936 553 936 607 q 936 455 936 499 q 936 387 936 410 q 891 169 936 260 q 751 29 846 78 q 507 -20 656 -20 m 633 1053 q 555 1069 588 1053 q 495 1104 521 1084 q 450 1140 469 1124 q 413 1155 430 1155 q 372 1131 385 1155 q 353 1081 358 1106 l 223 1081 q 268 1268 223 1203 q 389 1333 314 1333 q 465 1318 433 1333 q 522 1283 497 1303 q 567 1248 547 1263 q 606 1233 587 1233 q 644 1257 632 1233 q 660 1306 656 1281 l 790 1306 q 747 1119 790 1185 q 633 1053 703 1053 z "},"Ṹ":{"ha":1010,"x_min":74,"x_max":936,"o":"m 507 -20 q 253 29 349 -20 q 116 169 158 78 q 74 388 74 261 q 74 457 74 413 q 74 554 74 501 q 74 658 74 607 q 74 833 74 756 q 74 990 74 910 l 360 990 q 360 833 360 910 q 360 658 360 756 l 360 400 q 375 298 360 340 q 424 234 391 256 q 506 213 456 213 q 590 234 558 213 q 636 298 622 256 q 650 401 650 340 l 650 658 q 650 833 650 756 q 650 990 650 910 l 936 990 q 936 833 936 910 q 936 658 936 756 q 936 553 936 607 q 936 455 936 499 q 936 387 936 410 q 891 169 936 260 q 751 29 846 78 q 507 -20 656 -20 m 633 1053 q 555 1069 588 1053 q 495 1104 521 1084 q 450 1140 469 1124 q 413 1155 430 1155 q 372 1131 385 1155 q 353 1081 358 1106 l 223 1081 q 268 1268 223 1203 q 389 1333 314 1333 q 465 1318 433 1333 q 522 1283 497 1303 q 567 1248 547 1263 q 606 1233 587 1233 q 644 1257 632 1233 q 660 1306 656 1281 l 790 1306 q 747 1119 790 1185 q 633 1053 703 1053 m 353 1390 q 436 1525 395 1458 q 517 1660 476 1592 l 781 1665 q 698 1572 739 1618 q 618 1481 658 1526 q 541 1393 579 1436 l 353 1390 z "},"V":{"ha":1005,"x_min":27,"x_max":977,"o":"m 309 0 q 264 158 288 74 q 219 314 240 242 l 131 624 q 98 740 116 677 q 62 867 81 803 q 27 990 44 932 l 345 990 q 384 805 364 903 q 422 620 405 707 l 491 289 l 510 289 l 585 622 q 627 805 606 710 q 669 990 649 901 l 977 990 q 942 866 960 930 q 906 741 924 803 q 872 625 888 680 l 782 314 q 737 157 760 240 q 691 0 713 74 l 309 0 z "},"W":{"ha":1475,"x_min":25,"x_max":1450,"o":"m 275 0 q 235 157 256 74 q 196 313 214 241 l 117 624 q 72 805 97 707 q 25 990 47 903 l 350 990 q 377 817 363 908 q 405 644 392 726 l 453 340 l 474 340 l 526 649 q 546 760 536 701 q 566 878 556 819 q 586 990 576 937 l 885 990 q 916 819 900 908 q 947 647 932 731 l 1003 340 l 1022 340 l 1072 649 q 1099 819 1084 728 q 1125 990 1113 910 l 1450 990 q 1402 805 1427 902 q 1356 626 1377 707 l 1274 313 q 1234 156 1255 239 q 1194 0 1213 72 l 850 0 q 819 152 835 72 q 788 304 803 231 l 733 578 l 713 578 l 660 304 q 631 152 647 233 q 601 0 615 72 l 275 0 z "},"Ẃ":{"ha":1475,"x_min":25,"x_max":1450,"o":"m 275 0 q 235 157 256 74 q 196 313 214 241 l 117 624 q 72 805 97 707 q 25 990 47 903 l 350 990 q 377 817 363 908 q 405 644 392 726 l 453 340 l 474 340 l 526 649 q 546 760 536 701 q 566 878 556 819 q 586 990 576 937 l 885 990 q 916 819 900 908 q 947 647 932 731 l 1003 340 l 1022 340 l 1072 649 q 1099 819 1084 728 q 1125 990 1113 910 l 1450 990 q 1402 805 1427 902 q 1356 626 1377 707 l 1274 313 q 1234 156 1255 239 q 1194 0 1213 72 l 850 0 q 819 152 835 72 q 788 304 803 231 l 733 578 l 713 578 l 660 304 q 631 152 647 233 q 601 0 615 72 l 275 0 m 578 1069 q 660 1204 619 1137 q 741 1338 701 1271 l 1005 1344 q 923 1250 963 1297 q 843 1159 882 1204 q 765 1072 803 1115 l 578 1069 z "},"Ŵ":{"ha":1475,"x_min":25,"x_max":1450,"o":"m 275 0 q 235 157 256 74 q 196 313 214 241 l 117 624 q 72 805 97 707 q 25 990 47 903 l 350 990 q 377 817 363 908 q 405 644 392 726 l 453 340 l 474 340 l 526 649 q 546 760 536 701 q 566 878 556 819 q 586 990 576 937 l 885 990 q 916 819 900 908 q 947 647 932 731 l 1003 340 l 1022 340 l 1072 649 q 1099 819 1084 728 q 1125 990 1113 910 l 1450 990 q 1402 805 1427 902 q 1356 626 1377 707 l 1274 313 q 1234 156 1255 239 q 1194 0 1213 72 l 850 0 q 819 152 835 72 q 788 304 803 231 l 733 578 l 713 578 l 660 304 q 631 152 647 233 q 601 0 615 72 l 275 0 m 839 1067 q 769 1155 804 1111 q 699 1242 735 1198 l 761 1242 q 692 1156 726 1199 q 624 1070 658 1113 l 436 1070 q 517 1205 476 1137 q 599 1341 558 1272 l 861 1341 q 943 1205 902 1272 q 1024 1070 984 1137 l 839 1067 z "},"Ẅ":{"ha":1475,"x_min":25,"x_max":1450,"o":"m 275 0 q 235 157 256 74 q 196 313 214 241 l 117 624 q 72 805 97 707 q 25 990 47 903 l 350 990 q 377 817 363 908 q 405 644 392 726 l 453 340 l 474 340 l 526 649 q 546 760 536 701 q 566 878 556 819 q 586 990 576 937 l 885 990 q 916 819 900 908 q 947 647 932 731 l 1003 340 l 1022 340 l 1072 649 q 1099 819 1084 728 q 1125 990 1113 910 l 1450 990 q 1402 805 1427 902 q 1356 626 1377 707 l 1274 313 q 1234 156 1255 239 q 1194 0 1213 72 l 850 0 q 819 152 835 72 q 788 304 803 231 l 733 578 l 713 578 l 660 304 q 631 152 647 233 q 601 0 615 72 l 275 0 m 894 1063 q 800 1094 834 1063 q 766 1191 766 1126 q 800 1282 766 1247 q 896 1316 835 1316 q 990 1280 956 1316 q 1024 1191 1024 1244 q 990 1094 1024 1126 q 894 1063 956 1063 m 567 1063 q 473 1094 506 1063 q 439 1191 439 1126 q 473 1282 439 1247 q 568 1316 507 1316 q 662 1280 628 1316 q 696 1191 696 1244 q 662 1094 696 1126 q 567 1063 628 1063 z "},"Ẁ":{"ha":1475,"x_min":25,"x_max":1450,"o":"m 275 0 q 235 157 256 74 q 196 313 214 241 l 117 624 q 72 805 97 707 q 25 990 47 903 l 350 990 q 377 817 363 908 q 405 644 392 726 l 453 340 l 474 340 l 526 649 q 546 760 536 701 q 566 878 556 819 q 586 990 576 937 l 885 990 q 916 819 900 908 q 947 647 932 731 l 1003 340 l 1022 340 l 1072 649 q 1099 819 1084 728 q 1125 990 1113 910 l 1450 990 q 1402 805 1427 902 q 1356 626 1377 707 l 1274 313 q 1234 156 1255 239 q 1194 0 1213 72 l 850 0 q 819 152 835 72 q 788 304 803 231 l 733 578 l 713 578 l 660 304 q 631 152 647 233 q 601 0 615 72 l 275 0 m 696 1069 q 618 1157 658 1113 q 539 1246 578 1201 q 456 1338 499 1292 l 719 1344 q 801 1207 760 1275 q 883 1072 842 1140 l 696 1069 z "},"X":{"ha":1010,"x_min":27,"x_max":983,"o":"m 31 0 q 100 143 65 70 q 173 294 135 215 l 295 545 l 295 482 l 187 688 q 111 832 149 758 q 27 990 72 905 l 351 990 q 398 886 375 937 q 440 788 420 835 l 492 669 l 513 669 l 562 789 q 602 887 581 836 q 645 990 624 938 l 958 990 q 879 831 917 906 q 810 692 842 755 l 691 451 l 691 523 l 813 306 q 899 152 858 226 q 983 0 940 78 l 647 0 q 603 96 624 51 q 564 183 583 141 l 501 320 l 482 320 l 423 182 q 386 94 405 139 q 347 0 367 50 l 31 0 z "},"Y":{"ha":969,"x_min":23,"x_max":946,"o":"m 350 328 l 152 729 q 91 854 120 794 q 23 990 61 914 l 348 990 q 380 900 367 938 q 404 829 392 863 q 431 755 416 795 l 476 624 l 499 624 l 544 751 q 573 829 560 794 q 599 902 585 864 q 632 990 613 940 l 946 990 q 882 859 915 925 q 819 730 850 792 l 624 328 l 350 328 m 344 0 q 344 152 344 78 q 344 320 344 226 l 344 569 l 631 569 l 631 320 q 631 152 631 226 q 631 0 631 78 l 344 0 z "},"Ý":{"ha":969,"x_min":23,"x_max":946,"o":"m 350 328 l 152 729 q 91 854 120 794 q 23 990 61 914 l 348 990 q 380 900 367 938 q 404 829 392 863 q 431 755 416 795 l 476 624 l 499 624 l 544 751 q 573 829 560 794 q 599 902 585 864 q 632 990 613 940 l 946 990 q 882 859 915 925 q 819 730 850 792 l 624 328 l 350 328 m 344 0 q 344 152 344 78 q 344 320 344 226 l 344 569 l 631 569 l 631 320 q 631 152 631 226 q 631 0 631 78 l 344 0 m 335 1069 q 417 1204 376 1137 q 498 1338 458 1271 l 762 1344 q 680 1250 720 1297 q 600 1159 639 1204 q 522 1072 560 1115 l 335 1069 z "},"Ŷ":{"ha":969,"x_min":23,"x_max":946,"o":"m 350 328 l 152 729 q 91 854 120 794 q 23 990 61 914 l 348 990 q 380 900 367 938 q 404 829 392 863 q 431 755 416 795 l 476 624 l 499 624 l 544 751 q 573 829 560 794 q 599 902 585 864 q 632 990 613 940 l 946 990 q 882 859 915 925 q 819 730 850 792 l 624 328 l 350 328 m 344 0 q 344 152 344 78 q 344 320 344 226 l 344 569 l 631 569 l 631 320 q 631 152 631 226 q 631 0 631 78 l 344 0 m 596 1067 q 526 1155 561 1111 q 456 1242 492 1198 l 518 1242 q 449 1156 483 1199 q 381 1070 415 1113 l 193 1070 q 274 1205 233 1137 q 356 1341 315 1272 l 618 1341 q 700 1205 659 1272 q 781 1070 741 1137 l 596 1067 z "},"Ÿ":{"ha":969,"x_min":23,"x_max":946,"o":"m 350 328 l 152 729 q 91 854 120 794 q 23 990 61 914 l 348 990 q 380 900 367 938 q 404 829 392 863 q 431 755 416 795 l 476 624 l 499 624 l 544 751 q 573 829 560 794 q 599 902 585 864 q 632 990 613 940 l 946 990 q 882 859 915 925 q 819 730 850 792 l 624 328 l 350 328 m 344 0 q 344 152 344 78 q 344 320 344 226 l 344 569 l 631 569 l 631 320 q 631 152 631 226 q 631 0 631 78 l 344 0 m 651 1063 q 557 1094 591 1063 q 523 1191 523 1126 q 557 1282 523 1247 q 653 1316 592 1316 q 747 1280 713 1316 q 781 1191 781 1244 q 747 1094 781 1126 q 651 1063 713 1063 m 324 1063 q 230 1094 263 1063 q 196 1191 196 1126 q 230 1282 196 1247 q 325 1316 264 1316 q 419 1280 385 1316 q 453 1191 453 1244 q 419 1094 453 1126 q 324 1063 385 1063 z "},"Ẏ":{"ha":969,"x_min":23,"x_max":946,"o":"m 350 328 l 152 729 q 91 854 120 794 q 23 990 61 914 l 348 990 q 380 900 367 938 q 404 829 392 863 q 431 755 416 795 l 476 624 l 499 624 l 544 751 q 573 829 560 794 q 599 902 585 864 q 632 990 613 940 l 946 990 q 882 859 915 925 q 819 730 850 792 l 624 328 l 350 328 m 344 0 q 344 152 344 78 q 344 320 344 226 l 344 569 l 631 569 l 631 320 q 631 152 631 226 q 631 0 631 78 l 344 0 m 486 1063 q 377 1094 417 1063 q 336 1197 336 1126 q 377 1294 336 1260 q 488 1328 417 1328 q 598 1293 558 1328 q 638 1197 638 1258 q 597 1094 638 1126 q 486 1063 557 1063 z "},"Ỵ":{"ha":969,"x_min":23,"x_max":946,"o":"m 350 328 l 152 729 q 91 854 120 794 q 23 990 61 914 l 348 990 q 380 900 367 938 q 404 829 392 863 q 431 755 416 795 l 476 624 l 499 624 l 544 751 q 573 829 560 794 q 599 902 585 864 q 632 990 613 940 l 946 990 q 882 859 915 925 q 819 730 850 792 l 624 328 l 350 328 m 344 0 q 344 152 344 78 q 344 320 344 226 l 344 569 l 631 569 l 631 320 q 631 152 631 226 q 631 0 631 78 l 344 0 m 488 -336 q 378 -305 418 -336 q 338 -201 338 -273 q 378 -105 338 -139 q 489 -70 418 -70 q 599 -106 558 -70 q 639 -201 639 -142 q 599 -305 639 -273 q 488 -336 558 -336 z "},"Ỳ":{"ha":969,"x_min":23,"x_max":946,"o":"m 350 328 l 152 729 q 91 854 120 794 q 23 990 61 914 l 348 990 q 380 900 367 938 q 404 829 392 863 q 431 755 416 795 l 476 624 l 499 624 l 544 751 q 573 829 560 794 q 599 902 585 864 q 632 990 613 940 l 946 990 q 882 859 915 925 q 819 730 850 792 l 624 328 l 350 328 m 344 0 q 344 152 344 78 q 344 320 344 226 l 344 569 l 631 569 l 631 320 q 631 152 631 226 q 631 0 631 78 l 344 0 m 453 1069 q 375 1157 415 1113 q 295 1246 335 1201 q 213 1338 256 1292 l 476 1344 q 558 1207 517 1275 q 640 1072 599 1140 l 453 1069 z "},"Ỷ":{"ha":969,"x_min":23,"x_max":946,"o":"m 350 328 l 152 729 q 91 854 120 794 q 23 990 61 914 l 348 990 q 380 900 367 938 q 404 829 392 863 q 431 755 416 795 l 476 624 l 499 624 l 544 751 q 573 829 560 794 q 599 902 585 864 q 632 990 613 940 l 946 990 q 882 859 915 925 q 819 730 850 792 l 624 328 l 350 328 m 344 0 q 344 152 344 78 q 344 320 344 226 l 344 569 l 631 569 l 631 320 q 631 152 631 226 q 631 0 631 78 l 344 0 m 390 1070 l 390 1145 q 477 1165 439 1147 q 515 1210 515 1183 q 499 1239 515 1230 q 456 1248 483 1248 q 405 1243 431 1248 q 353 1229 379 1238 q 300 1209 327 1220 l 289 1354 q 325 1367 303 1360 q 373 1379 346 1374 q 433 1389 401 1385 q 501 1392 465 1392 q 603 1380 554 1392 q 683 1335 652 1367 q 714 1249 714 1304 q 691 1168 714 1201 q 628 1116 669 1135 q 534 1093 588 1097 l 534 1070 l 390 1070 z "},"Ȳ":{"ha":969,"x_min":23,"x_max":946,"o":"m 350 328 l 152 729 q 91 854 120 794 q 23 990 61 914 l 348 990 q 380 900 367 938 q 404 829 392 863 q 431 755 416 795 l 476 624 l 499 624 l 544 751 q 573 829 560 794 q 599 902 585 864 q 632 990 613 940 l 946 990 q 882 859 915 925 q 819 730 850 792 l 624 328 l 350 328 m 344 0 q 344 152 344 78 q 344 320 344 226 l 344 569 l 631 569 l 631 320 q 631 152 631 226 q 631 0 631 78 l 344 0 m 240 1097 l 240 1285 q 357 1285 295 1285 q 488 1285 419 1285 q 618 1285 556 1285 q 735 1285 680 1285 l 735 1097 q 618 1097 680 1097 q 488 1097 556 1097 q 357 1097 419 1097 q 240 1097 295 1097 z "},"Ỹ":{"ha":969,"x_min":23,"x_max":946,"o":"m 350 328 l 152 729 q 91 854 120 794 q 23 990 61 914 l 348 990 q 380 900 367 938 q 404 829 392 863 q 431 755 416 795 l 476 624 l 499 624 l 544 751 q 573 829 560 794 q 599 902 585 864 q 632 990 613 940 l 946 990 q 882 859 915 925 q 819 730 850 792 l 624 328 l 350 328 m 344 0 q 344 152 344 78 q 344 320 344 226 l 344 569 l 631 569 l 631 320 q 631 152 631 226 q 631 0 631 78 l 344 0 m 614 1053 q 536 1069 569 1053 q 476 1104 502 1084 q 431 1140 451 1124 q 394 1155 411 1155 q 353 1131 367 1155 q 334 1081 339 1106 l 204 1081 q 250 1268 204 1203 q 370 1333 295 1333 q 446 1318 414 1333 q 503 1283 478 1303 q 548 1248 528 1263 q 587 1233 568 1233 q 625 1257 613 1233 q 641 1306 637 1281 l 771 1306 q 728 1119 771 1185 q 614 1053 685 1053 z "},"Z":{"ha":966,"x_min":48,"x_max":917,"o":"m 48 0 l 48 147 q 121 240 81 188 q 202 345 161 292 q 278 442 243 398 l 588 838 l 613 755 l 382 755 q 231 755 311 755 q 65 755 150 755 l 65 990 l 908 990 l 908 801 q 806 673 856 735 q 707 548 756 610 l 390 150 l 373 235 l 581 235 q 692 235 631 235 q 812 235 753 235 q 917 235 872 235 l 917 0 l 48 0 z "},"Ź":{"ha":966,"x_min":48,"x_max":917,"o":"m 48 0 l 48 147 q 121 240 81 188 q 202 345 161 292 q 278 442 243 398 l 588 838 l 613 755 l 382 755 q 231 755 311 755 q 65 755 150 755 l 65 990 l 908 990 l 908 801 q 806 673 856 735 q 707 548 756 610 l 390 150 l 373 235 l 581 235 q 692 235 631 235 q 812 235 753 235 q 917 235 872 235 l 917 0 l 48 0 m 331 1069 q 413 1204 372 1137 q 494 1338 453 1271 l 758 1344 q 675 1250 716 1297 q 595 1159 635 1204 q 518 1072 556 1115 l 331 1069 z "},"Ž":{"ha":966,"x_min":48,"x_max":917,"o":"m 48 0 l 48 147 q 121 240 81 188 q 202 345 161 292 q 278 442 243 398 l 588 838 l 613 755 l 382 755 q 231 755 311 755 q 65 755 150 755 l 65 990 l 908 990 l 908 801 q 806 673 856 735 q 707 548 756 610 l 390 150 l 373 235 l 581 235 q 692 235 631 235 q 812 235 753 235 q 917 235 872 235 l 917 0 l 48 0 m 351 1068 q 269 1205 310 1137 q 188 1339 228 1273 l 374 1342 q 443 1255 408 1299 q 514 1167 478 1212 l 451 1167 q 521 1254 486 1211 q 589 1339 556 1297 l 776 1339 q 695 1205 736 1273 q 613 1068 655 1137 l 351 1068 z "},"Ż":{"ha":966,"x_min":48,"x_max":917,"o":"m 48 0 l 48 147 q 121 240 81 188 q 202 345 161 292 q 278 442 243 398 l 588 838 l 613 755 l 382 755 q 231 755 311 755 q 65 755 150 755 l 65 990 l 908 990 l 908 801 q 806 673 856 735 q 707 548 756 610 l 390 150 l 373 235 l 581 235 q 692 235 631 235 q 812 235 753 235 q 917 235 872 235 l 917 0 l 48 0 m 482 1063 q 373 1094 413 1063 q 332 1197 332 1126 q 373 1294 332 1260 q 483 1328 413 1328 q 593 1293 553 1328 q 633 1197 633 1258 q 593 1094 633 1126 q 482 1063 553 1063 z "},"Ẓ":{"ha":966,"x_min":48,"x_max":917,"o":"m 48 0 l 48 147 q 121 240 81 188 q 202 345 161 292 q 278 442 243 398 l 588 838 l 613 755 l 382 755 q 231 755 311 755 q 65 755 150 755 l 65 990 l 908 990 l 908 801 q 806 673 856 735 q 707 548 756 610 l 390 150 l 373 235 l 581 235 q 692 235 631 235 q 812 235 753 235 q 917 235 872 235 l 917 0 l 48 0 m 483 -336 q 374 -305 414 -336 q 333 -201 333 -273 q 374 -105 333 -139 q 485 -70 414 -70 q 594 -106 554 -70 q 635 -201 635 -142 q 594 -305 635 -273 q 483 -336 554 -336 z "},"a":{"ha":731,"x_min":38,"x_max":674,"o":"m 227 -18 q 124 8 166 -18 q 59 79 81 34 q 38 181 38 124 q 59 281 38 241 q 114 345 81 321 q 185 383 148 370 q 255 401 223 396 l 440 433 q 428 474 442 458 q 385 498 414 490 q 315 506 357 506 q 264 502 292 506 q 205 491 235 498 q 142 472 174 483 q 80 446 111 461 l 69 662 q 129 680 95 670 q 204 698 163 690 q 292 711 245 706 q 389 716 338 716 q 542 690 478 716 q 640 608 606 664 q 674 464 674 553 q 674 379 674 428 q 674 294 674 330 l 674 247 q 674 130 674 191 q 674 0 674 68 l 460 0 l 442 97 l 425 97 q 379 41 407 67 q 314 -2 351 15 q 227 -18 276 -18 m 342 179 q 375 187 358 179 q 407 210 392 195 q 433 244 422 224 l 433 346 q 417 334 426 340 q 391 324 408 329 q 344 310 374 318 q 313 297 327 306 q 290 273 299 288 q 282 238 282 259 q 301 193 282 207 q 342 179 319 179 z "},"á":{"ha":727,"x_min":38,"x_max":674,"o":"m 227 -18 q 124 8 166 -18 q 59 79 81 34 q 38 181 38 124 q 59 281 38 241 q 114 345 81 321 q 185 383 148 370 q 255 401 223 396 l 440 433 q 428 474 442 458 q 385 498 414 490 q 315 506 357 506 q 264 502 292 506 q 205 491 235 498 q 142 472 174 483 q 80 446 111 461 l 69 662 q 129 680 95 670 q 204 698 163 690 q 292 711 245 706 q 389 716 338 716 q 542 690 478 716 q 640 608 606 664 q 674 464 674 553 q 674 379 674 428 q 674 294 674 330 l 674 247 q 674 130 674 191 q 674 0 674 68 l 460 0 l 442 97 l 425 97 q 379 41 407 67 q 314 -2 351 15 q 227 -18 276 -18 m 342 179 q 375 187 358 179 q 407 210 392 195 q 433 244 422 224 l 433 346 q 417 334 426 340 q 391 324 408 329 q 344 310 374 318 q 313 297 327 306 q 290 273 299 288 q 282 238 282 259 q 301 193 282 207 q 342 179 319 179 m 217 776 q 299 925 258 851 q 381 1073 340 999 l 644 1078 q 562 976 603 1026 q 483 876 522 925 q 405 779 444 827 l 217 776 z "},"ă":{"ha":727,"x_min":38,"x_max":674,"o":"m 227 -18 q 124 8 166 -18 q 59 79 81 34 q 38 181 38 124 q 59 281 38 241 q 114 345 81 321 q 185 383 148 370 q 255 401 223 396 l 440 433 q 428 474 442 458 q 385 498 414 490 q 315 506 357 506 q 264 502 292 506 q 205 491 235 498 q 142 472 174 483 q 80 446 111 461 l 69 662 q 129 680 95 670 q 204 698 163 690 q 292 711 245 706 q 389 716 338 716 q 542 690 478 716 q 640 608 606 664 q 674 464 674 553 q 674 379 674 428 q 674 294 674 330 l 674 247 q 674 130 674 191 q 674 0 674 68 l 460 0 l 442 97 l 425 97 q 379 41 407 67 q 314 -2 351 15 q 227 -18 276 -18 m 342 179 q 375 187 358 179 q 407 210 392 195 q 433 244 422 224 l 433 346 q 417 334 426 340 q 391 324 408 329 q 344 310 374 318 q 313 297 327 306 q 290 273 299 288 q 282 238 282 259 q 301 193 282 207 q 342 179 319 179 m 369 759 q 162 831 231 759 q 93 1056 93 902 l 267 1065 q 291 964 267 1001 q 369 928 315 928 q 447 963 423 928 q 472 1056 472 999 l 645 1056 q 615 888 645 953 q 523 790 585 822 q 369 759 462 759 z "},"ắ":{"ha":727,"x_min":38,"x_max":674,"o":"m 227 -18 q 124 8 166 -18 q 59 79 81 34 q 38 181 38 124 q 59 281 38 241 q 114 345 81 321 q 185 383 148 370 q 255 401 223 396 l 440 433 q 428 474 442 458 q 385 498 414 490 q 315 506 357 506 q 264 502 292 506 q 205 491 235 498 q 142 472 174 483 q 80 446 111 461 l 69 662 q 129 680 95 670 q 204 698 163 690 q 292 711 245 706 q 389 716 338 716 q 542 690 478 716 q 640 608 606 664 q 674 464 674 553 q 674 379 674 428 q 674 294 674 330 l 674 247 q 674 130 674 191 q 674 0 674 68 l 460 0 l 442 97 l 425 97 q 379 41 407 67 q 314 -2 351 15 q 227 -18 276 -18 m 342 179 q 375 187 358 179 q 407 210 392 195 q 433 244 422 224 l 433 346 q 417 334 426 340 q 391 324 408 329 q 344 310 374 318 q 313 297 327 306 q 290 273 299 288 q 282 238 282 259 q 301 193 282 207 q 342 179 319 179 m 369 759 q 162 825 231 759 q 93 1035 93 891 l 261 1042 q 286 949 261 983 q 369 915 312 915 q 452 948 426 915 q 477 1035 477 981 l 645 1035 q 615 878 645 939 q 523 788 585 817 q 369 759 462 759 m 265 1061 q 334 1193 299 1127 q 403 1324 369 1260 l 631 1329 q 562 1238 596 1283 q 495 1149 528 1193 q 430 1063 462 1105 l 265 1061 z "},"ặ":{"ha":727,"x_min":38,"x_max":674,"o":"m 227 -18 q 124 8 166 -18 q 59 79 81 34 q 38 181 38 124 q 59 281 38 241 q 114 345 81 321 q 185 383 148 370 q 255 401 223 396 l 440 433 q 428 474 442 458 q 385 498 414 490 q 315 506 357 506 q 264 502 292 506 q 205 491 235 498 q 142 472 174 483 q 80 446 111 461 l 69 662 q 129 680 95 670 q 204 698 163 690 q 292 711 245 706 q 389 716 338 716 q 542 690 478 716 q 640 608 606 664 q 674 464 674 553 q 674 379 674 428 q 674 294 674 330 l 674 247 q 674 130 674 191 q 674 0 674 68 l 460 0 l 442 97 l 425 97 q 379 41 407 67 q 314 -2 351 15 q 227 -18 276 -18 m 342 179 q 375 187 358 179 q 407 210 392 195 q 433 244 422 224 l 433 346 q 417 334 426 340 q 391 324 408 329 q 344 310 374 318 q 313 297 327 306 q 290 273 299 288 q 282 238 282 259 q 301 193 282 207 q 342 179 319 179 m 370 -336 q 260 -305 301 -336 q 220 -201 220 -273 q 260 -105 220 -139 q 372 -70 301 -70 q 481 -106 441 -70 q 522 -201 522 -142 q 481 -305 522 -273 q 370 -336 441 -336 m 369 759 q 162 831 231 759 q 93 1056 93 902 l 267 1065 q 291 964 267 1001 q 369 928 315 928 q 447 963 423 928 q 472 1056 472 999 l 645 1056 q 615 888 645 953 q 523 790 585 822 q 369 759 462 759 z "},"ằ":{"ha":727,"x_min":38,"x_max":674,"o":"m 227 -18 q 124 8 166 -18 q 59 79 81 34 q 38 181 38 124 q 59 281 38 241 q 114 345 81 321 q 185 383 148 370 q 255 401 223 396 l 440 433 q 428 474 442 458 q 385 498 414 490 q 315 506 357 506 q 264 502 292 506 q 205 491 235 498 q 142 472 174 483 q 80 446 111 461 l 69 662 q 129 680 95 670 q 204 698 163 690 q 292 711 245 706 q 389 716 338 716 q 542 690 478 716 q 640 608 606 664 q 674 464 674 553 q 674 379 674 428 q 674 294 674 330 l 674 247 q 674 130 674 191 q 674 0 674 68 l 460 0 l 442 97 l 425 97 q 379 41 407 67 q 314 -2 351 15 q 227 -18 276 -18 m 342 179 q 375 187 358 179 q 407 210 392 195 q 433 244 422 224 l 433 346 q 417 334 426 340 q 391 324 408 329 q 344 310 374 318 q 313 297 327 306 q 290 273 299 288 q 282 238 282 259 q 301 193 282 207 q 342 179 319 179 m 369 759 q 163 825 231 759 q 94 1035 94 891 l 262 1042 q 287 949 262 983 q 369 915 313 915 q 452 948 427 915 q 478 1035 478 981 l 646 1035 q 616 878 646 939 q 524 788 585 817 q 369 759 463 759 m 333 1061 q 269 1147 302 1103 q 202 1234 236 1190 q 133 1324 168 1278 l 359 1329 q 428 1197 394 1263 q 498 1063 463 1131 l 333 1061 z "},"ẳ":{"ha":727,"x_min":38,"x_max":674,"o":"m 227 -18 q 124 8 166 -18 q 59 79 81 34 q 38 181 38 124 q 59 281 38 241 q 114 345 81 321 q 185 383 148 370 q 255 401 223 396 l 440 433 q 428 474 442 458 q 385 498 414 490 q 315 506 357 506 q 264 502 292 506 q 205 491 235 498 q 142 472 174 483 q 80 446 111 461 l 69 662 q 129 680 95 670 q 204 698 163 690 q 292 711 245 706 q 389 716 338 716 q 542 690 478 716 q 640 608 606 664 q 674 464 674 553 q 674 379 674 428 q 674 294 674 330 l 674 247 q 674 130 674 191 q 674 0 674 68 l 460 0 l 442 97 l 425 97 q 379 41 407 67 q 314 -2 351 15 q 227 -18 276 -18 m 342 179 q 375 187 358 179 q 407 210 392 195 q 433 244 422 224 l 433 346 q 417 334 426 340 q 391 324 408 329 q 344 310 374 318 q 313 297 327 306 q 290 273 299 288 q 282 238 282 259 q 301 193 282 207 q 342 179 319 179 m 369 759 q 163 825 231 759 q 94 1035 94 891 l 262 1042 q 287 949 262 983 q 369 915 313 915 q 452 948 427 915 q 478 1035 478 981 l 646 1035 q 616 878 646 939 q 524 788 585 817 q 369 759 463 759 m 287 1056 l 287 1124 q 364 1160 331 1140 q 398 1205 398 1181 q 383 1231 398 1223 q 345 1240 369 1240 q 299 1235 322 1240 q 253 1222 276 1230 q 207 1204 231 1214 l 197 1332 q 228 1342 210 1337 q 271 1353 247 1348 q 323 1362 294 1358 q 384 1365 351 1365 q 474 1354 431 1365 q 545 1315 517 1342 q 572 1238 572 1287 q 552 1165 572 1196 q 496 1113 532 1135 q 413 1077 460 1092 l 413 1056 l 287 1056 z "},"ẵ":{"ha":727,"x_min":38,"x_max":674,"o":"m 227 -18 q 124 8 166 -18 q 59 79 81 34 q 38 181 38 124 q 59 281 38 241 q 114 345 81 321 q 185 383 148 370 q 255 401 223 396 l 440 433 q 428 474 442 458 q 385 498 414 490 q 315 506 357 506 q 264 502 292 506 q 205 491 235 498 q 142 472 174 483 q 80 446 111 461 l 69 662 q 129 680 95 670 q 204 698 163 690 q 292 711 245 706 q 389 716 338 716 q 542 690 478 716 q 640 608 606 664 q 674 464 674 553 q 674 379 674 428 q 674 294 674 330 l 674 247 q 674 130 674 191 q 674 0 674 68 l 460 0 l 442 97 l 425 97 q 379 41 407 67 q 314 -2 351 15 q 227 -18 276 -18 m 342 179 q 375 187 358 179 q 407 210 392 195 q 433 244 422 224 l 433 346 q 417 334 426 340 q 391 324 408 329 q 344 310 374 318 q 313 297 327 306 q 290 273 299 288 q 282 238 282 259 q 301 193 282 207 q 342 179 319 179 m 369 759 q 162 825 231 759 q 93 1035 93 891 l 261 1042 q 286 949 261 983 q 369 915 312 915 q 452 948 426 915 q 477 1035 477 981 l 645 1035 q 615 878 645 939 q 523 788 585 817 q 369 759 462 759 m 487 1079 q 414 1093 446 1079 q 359 1124 383 1106 q 317 1156 335 1142 q 282 1169 299 1169 q 244 1148 256 1169 q 226 1103 231 1126 l 107 1103 q 149 1269 107 1211 q 261 1327 191 1327 q 331 1313 301 1327 q 384 1282 361 1299 q 426 1250 408 1264 q 462 1236 445 1236 q 498 1258 487 1236 q 513 1302 510 1280 l 633 1302 q 593 1137 633 1195 q 487 1079 553 1079 z "},"â":{"ha":727,"x_min":38,"x_max":674,"o":"m 227 -18 q 124 8 166 -18 q 59 79 81 34 q 38 181 38 124 q 59 281 38 241 q 114 345 81 321 q 185 383 148 370 q 255 401 223 396 l 440 433 q 428 474 442 458 q 385 498 414 490 q 315 506 357 506 q 264 502 292 506 q 205 491 235 498 q 142 472 174 483 q 80 446 111 461 l 69 662 q 129 680 95 670 q 204 698 163 690 q 292 711 245 706 q 389 716 338 716 q 542 690 478 716 q 640 608 606 664 q 674 464 674 553 q 674 379 674 428 q 674 294 674 330 l 674 247 q 674 130 674 191 q 674 0 674 68 l 460 0 l 442 97 l 425 97 q 379 41 407 67 q 314 -2 351 15 q 227 -18 276 -18 m 342 179 q 375 187 358 179 q 407 210 392 195 q 433 244 422 224 l 433 346 q 417 334 426 340 q 391 324 408 329 q 344 310 374 318 q 313 297 327 306 q 290 273 299 288 q 282 238 282 259 q 301 193 282 207 q 342 179 319 179 m 478 775 q 410 868 444 822 q 342 963 376 915 l 399 963 q 330 869 364 915 q 263 778 297 824 l 76 778 q 157 926 116 851 q 239 1076 197 1000 l 501 1076 q 583 926 542 1000 q 664 778 623 851 l 478 775 z "},"ấ":{"ha":727,"x_min":38,"x_max":921,"o":"m 227 -18 q 124 8 166 -18 q 59 79 81 34 q 38 181 38 124 q 59 281 38 241 q 114 345 81 321 q 185 383 148 370 q 255 401 223 396 l 440 433 q 428 474 442 458 q 385 498 414 490 q 315 506 357 506 q 264 502 292 506 q 205 491 235 498 q 142 472 174 483 q 80 446 111 461 l 69 662 q 129 680 95 670 q 204 698 163 690 q 292 711 245 706 q 389 716 338 716 q 542 690 478 716 q 640 608 606 664 q 674 464 674 553 q 674 379 674 428 q 674 294 674 330 l 674 247 q 674 130 674 191 q 674 0 674 68 l 460 0 l 442 97 l 425 97 q 379 41 407 67 q 314 -2 351 15 q 227 -18 276 -18 m 342 179 q 375 187 358 179 q 407 210 392 195 q 433 244 422 224 l 433 346 q 417 334 426 340 q 391 324 408 329 q 344 310 374 318 q 313 297 327 306 q 290 273 299 288 q 282 238 282 259 q 301 193 282 207 q 342 179 319 179 m 556 999 q 625 1131 590 1065 q 694 1262 660 1197 l 921 1267 q 852 1175 886 1221 q 785 1086 818 1130 q 720 1000 753 1042 l 556 999 m 93 778 q 170 920 131 849 q 248 1065 208 991 l 472 1065 q 403 967 438 1015 q 335 872 369 919 q 268 778 301 824 l 93 778 m 474 775 q 407 870 441 822 q 338 966 372 918 q 267 1065 303 1015 l 493 1065 q 570 920 532 991 q 647 778 609 849 l 474 775 z "},"ậ":{"ha":727,"x_min":38,"x_max":674,"o":"m 227 -18 q 124 8 166 -18 q 59 79 81 34 q 38 181 38 124 q 59 281 38 241 q 114 345 81 321 q 185 383 148 370 q 255 401 223 396 l 440 433 q 428 474 442 458 q 385 498 414 490 q 315 506 357 506 q 264 502 292 506 q 205 491 235 498 q 142 472 174 483 q 80 446 111 461 l 69 662 q 129 680 95 670 q 204 698 163 690 q 292 711 245 706 q 389 716 338 716 q 542 690 478 716 q 640 608 606 664 q 674 464 674 553 q 674 379 674 428 q 674 294 674 330 l 674 247 q 674 130 674 191 q 674 0 674 68 l 460 0 l 442 97 l 425 97 q 379 41 407 67 q 314 -2 351 15 q 227 -18 276 -18 m 342 179 q 375 187 358 179 q 407 210 392 195 q 433 244 422 224 l 433 346 q 417 334 426 340 q 391 324 408 329 q 344 310 374 318 q 313 297 327 306 q 290 273 299 288 q 282 238 282 259 q 301 193 282 207 q 342 179 319 179 m 370 -336 q 260 -305 301 -336 q 220 -201 220 -273 q 260 -105 220 -139 q 372 -70 301 -70 q 481 -106 441 -70 q 522 -201 522 -142 q 481 -305 522 -273 q 370 -336 441 -336 m 478 775 q 410 868 444 822 q 342 963 376 915 l 399 963 q 330 869 364 915 q 263 778 297 824 l 76 778 q 157 926 116 851 q 239 1076 197 1000 l 501 1076 q 583 926 542 1000 q 664 778 623 851 l 478 775 z "},"ầ":{"ha":727,"x_min":38,"x_max":772,"o":"m 227 -18 q 124 8 166 -18 q 59 79 81 34 q 38 181 38 124 q 59 281 38 241 q 114 345 81 321 q 185 383 148 370 q 255 401 223 396 l 440 433 q 428 474 442 458 q 385 498 414 490 q 315 506 357 506 q 264 502 292 506 q 205 491 235 498 q 142 472 174 483 q 80 446 111 461 l 69 662 q 129 680 95 670 q 204 698 163 690 q 292 711 245 706 q 389 716 338 716 q 542 690 478 716 q 640 608 606 664 q 674 464 674 553 q 674 379 674 428 q 674 294 674 330 l 674 247 q 674 130 674 191 q 674 0 674 68 l 460 0 l 442 97 l 425 97 q 379 41 407 67 q 314 -2 351 15 q 227 -18 276 -18 m 342 179 q 375 187 358 179 q 407 210 392 195 q 433 244 422 224 l 433 346 q 417 334 426 340 q 391 324 408 329 q 344 310 374 318 q 313 297 327 306 q 290 273 299 288 q 282 238 282 259 q 301 193 282 207 q 342 179 319 179 m 606 997 q 542 1083 575 1040 q 475 1170 508 1126 q 406 1260 441 1215 l 632 1265 q 701 1133 667 1199 q 771 999 736 1067 l 606 997 m 93 778 q 170 920 131 849 q 248 1065 208 991 l 472 1065 q 403 967 438 1015 q 335 872 369 919 q 268 778 301 824 l 93 778 m 474 775 q 406 870 440 822 q 338 966 372 918 q 267 1065 303 1015 l 493 1065 q 570 920 532 991 q 647 778 609 849 l 474 775 z "},"ẩ":{"ha":727,"x_min":38,"x_max":848,"o":"m 227 -18 q 124 8 166 -18 q 59 79 81 34 q 38 181 38 124 q 59 281 38 241 q 114 345 81 321 q 185 383 148 370 q 255 401 223 396 l 440 433 q 428 474 442 458 q 385 498 414 490 q 315 506 357 506 q 264 502 292 506 q 205 491 235 498 q 142 472 174 483 q 80 446 111 461 l 69 662 q 129 680 95 670 q 204 698 163 690 q 292 711 245 706 q 389 716 338 716 q 542 690 478 716 q 640 608 606 664 q 674 464 674 553 q 674 379 674 428 q 674 294 674 330 l 674 247 q 674 130 674 191 q 674 0 674 68 l 460 0 l 442 97 l 425 97 q 379 41 407 67 q 314 -2 351 15 q 227 -18 276 -18 m 342 179 q 375 187 358 179 q 407 210 392 195 q 433 244 422 224 l 433 346 q 417 334 426 340 q 391 324 408 329 q 344 310 374 318 q 313 297 327 306 q 290 273 299 288 q 282 238 282 259 q 301 193 282 207 q 342 179 319 179 m 93 778 q 170 920 131 849 q 248 1065 208 991 l 472 1065 q 403 967 438 1015 q 335 872 369 919 q 268 778 301 824 l 93 778 m 474 775 q 406 870 440 822 q 338 966 372 918 q 267 1065 303 1015 l 493 1065 q 570 920 532 991 q 647 778 609 849 l 474 775 m 563 999 l 563 1065 q 640 1102 606 1082 q 673 1147 673 1122 q 658 1173 673 1165 q 621 1181 644 1181 q 575 1176 598 1181 q 529 1164 552 1172 q 483 1147 506 1156 l 473 1274 q 504 1284 485 1278 q 547 1295 523 1290 q 599 1303 570 1300 q 659 1307 627 1307 q 750 1295 707 1307 q 820 1256 793 1284 q 848 1180 848 1228 q 828 1107 848 1138 q 772 1055 808 1076 q 688 1019 735 1033 l 688 999 l 563 999 z "},"ẫ":{"ha":727,"x_min":38,"x_max":674,"o":"m 227 -18 q 124 8 166 -18 q 59 79 81 34 q 38 181 38 124 q 59 281 38 241 q 114 345 81 321 q 185 383 148 370 q 255 401 223 396 l 440 433 q 428 474 442 458 q 385 498 414 490 q 315 506 357 506 q 264 502 292 506 q 205 491 235 498 q 142 472 174 483 q 80 446 111 461 l 69 662 q 129 680 95 670 q 204 698 163 690 q 292 711 245 706 q 389 716 338 716 q 542 690 478 716 q 640 608 606 664 q 674 464 674 553 q 674 379 674 428 q 674 294 674 330 l 674 247 q 674 130 674 191 q 674 0 674 68 l 460 0 l 442 97 l 425 97 q 379 41 407 67 q 314 -2 351 15 q 227 -18 276 -18 m 342 179 q 375 187 358 179 q 407 210 392 195 q 433 244 422 224 l 433 346 q 417 334 426 340 q 391 324 408 329 q 344 310 374 318 q 313 297 327 306 q 290 273 299 288 q 282 238 282 259 q 301 193 282 207 q 342 179 319 179 m 487 1079 q 414 1093 446 1079 q 359 1124 383 1106 q 317 1156 335 1142 q 282 1169 299 1169 q 244 1148 256 1169 q 226 1103 231 1126 l 107 1103 q 149 1269 107 1211 q 261 1327 191 1327 q 331 1313 301 1327 q 384 1282 361 1299 q 426 1250 408 1264 q 462 1236 445 1236 q 498 1258 487 1236 q 513 1302 510 1280 l 633 1302 q 593 1137 633 1195 q 487 1079 553 1079 m 93 778 q 170 909 131 843 q 248 1042 208 975 l 472 1042 q 403 952 438 997 q 335 865 369 908 q 268 778 301 821 l 93 778 m 474 775 q 407 863 440 819 q 338 951 373 907 q 267 1042 303 996 l 493 1042 q 570 909 532 975 q 647 778 609 842 l 474 775 z "}}}
